solid Default
  facet normal 6.671465e-01 -7.449265e-01 0.000000e+00
    outer loop
      vertex 2.716100e+01 2.241500e+01 0.000000e+00
      vertex 2.580100e+01 2.119700e+01 1.100200e+01
      vertex 2.580100e+01 2.119700e+01 0.000000e+00
    endloop
  endfacet
  facet normal 6.671465e-01 -7.449265e-01 0.000000e+00
    outer loop
      vertex 2.580100e+01 2.119700e+01 1.100200e+01
      vertex 2.716100e+01 2.241500e+01 0.000000e+00
      vertex 2.716100e+01 2.241500e+01 1.100200e+01
    endloop
  endfacet
  facet normal -7.192509e-01 6.947504e-01 -0.000000e+00
    outer loop
      vertex 2.422100e+01 2.454300e+01 1.100200e+01
      vertex 2.580900e+01 2.618700e+01 0.000000e+00
      vertex 2.422100e+01 2.454300e+01 0.000000e+00
    endloop
  endfacet
  facet normal -7.192509e-01 6.947504e-01 0.000000e+00
    outer loop
      vertex 2.580900e+01 2.618700e+01 0.000000e+00
      vertex 2.422100e+01 2.454300e+01 1.100200e+01
      vertex 2.580900e+01 2.618700e+01 1.100200e+01
    endloop
  endfacet
  facet normal -7.065528e-01 7.076603e-01 0.000000e+00
    outer loop
      vertex 2.953700e+01 1.439300e+01 1.100200e+01
      vertex 2.825900e+01 1.311700e+01 0.000000e+00
      vertex 2.825900e+01 1.311700e+01 1.100200e+01
    endloop
  endfacet
  facet normal -7.065528e-01 7.076603e-01 0.000000e+00
    outer loop
      vertex 2.825900e+01 1.311700e+01 0.000000e+00
      vertex 2.953700e+01 1.439300e+01 1.100200e+01
      vertex 2.953700e+01 1.439300e+01 0.000000e+00
    endloop
  endfacet
  facet normal 6.745614e-01 -7.382187e-01 0.000000e+00
    outer loop
      vertex 2.724900e+01 1.249100e+01 0.000000e+00
      vertex 2.581100e+01 1.117700e+01 1.100200e+01
      vertex 2.581100e+01 1.117700e+01 0.000000e+00
    endloop
  endfacet
  facet normal 6.745614e-01 -7.382187e-01 0.000000e+00
    outer loop
      vertex 2.581100e+01 1.117700e+01 1.100200e+01
      vertex 2.724900e+01 1.249100e+01 0.000000e+00
      vertex 2.724900e+01 1.249100e+01 1.100200e+01
    endloop
  endfacet
  facet normal -7.119740e-01 7.022059e-01 -0.000000e+00
    outer loop
      vertex 2.824300e+01 2.304100e+01 1.100200e+01
      vertex 2.953700e+01 2.435300e+01 0.000000e+00
      vertex 2.824300e+01 2.304100e+01 0.000000e+00
    endloop
  endfacet
  facet normal -7.119740e-01 7.022059e-01 0.000000e+00
    outer loop
      vertex 2.953700e+01 2.435300e+01 0.000000e+00
      vertex 2.824300e+01 2.304100e+01 1.100200e+01
      vertex 2.953700e+01 2.435300e+01 1.100200e+01
    endloop
  endfacet
  facet normal -6.879601e-01 -7.257485e-01 0.000000e+00
    outer loop
      vertex 2.953700e+01 1.938500e+01 0.000000e+00
      vertex 2.823100e+01 2.062300e+01 1.100200e+01
      vertex 2.823100e+01 2.062300e+01 0.000000e+00
    endloop
  endfacet
  facet normal -6.879601e-01 -7.257485e-01 0.000000e+00
    outer loop
      vertex 2.823100e+01 2.062300e+01 1.100200e+01
      vertex 2.953700e+01 1.938500e+01 0.000000e+00
      vertex 2.953700e+01 1.938500e+01 1.100200e+01
    endloop
  endfacet
  facet normal 6.342838e-01 7.731004e-01 0.000000e+00
    outer loop
      vertex 2.724900e+01 1.249100e+01 1.100200e+01
      vertex 2.580100e+01 1.367900e+01 0.000000e+00
      vertex 2.580100e+01 1.367900e+01 1.100200e+01
    endloop
  endfacet
  facet normal 6.342838e-01 7.731004e-01 0.000000e+00
    outer loop
      vertex 2.580100e+01 1.367900e+01 0.000000e+00
      vertex 2.724900e+01 1.249100e+01 1.100200e+01
      vertex 2.724900e+01 1.249100e+01 0.000000e+00
    endloop
  endfacet
  facet normal 6.123234e-17 -1.000000e+00 0.000000e+00
    outer loop
      vertex 3.566500e+01 -3.243100e+01 0.000000e+00
      vertex 3.430900e+01 -3.243100e+01 1.100200e+01
      vertex 3.430900e+01 -3.243100e+01 0.000000e+00
    endloop
  endfacet
  facet normal 6.123234e-17 -1.000000e+00 0.000000e+00
    outer loop
      vertex 3.430900e+01 -3.243100e+01 1.100200e+01
      vertex 3.566500e+01 -3.243100e+01 0.000000e+00
      vertex 3.566500e+01 -3.243100e+01 1.100200e+01
    endloop
  endfacet
  facet normal 7.669758e-02 -9.970544e-01 0.000000e+00
    outer loop
      vertex 3.172100e+01 8.755001e+00 0.000000e+00
      vertex 3.143500e+01 8.733001e+00 1.100200e+01
      vertex 3.143500e+01 8.733001e+00 0.000000e+00
    endloop
  endfacet
  facet normal 7.669758e-02 -9.970544e-01 0.000000e+00
    outer loop
      vertex 3.143500e+01 8.733001e+00 1.100200e+01
      vertex 3.172100e+01 8.755001e+00 0.000000e+00
      vertex 3.172100e+01 8.755001e+00 1.100200e+01
    endloop
  endfacet
  facet normal 6.465219e-01 7.628955e-01 0.000000e+00
    outer loop
      vertex 2.721700e+01 1.999700e+01 1.100200e+01
      vertex 2.580100e+01 2.119700e+01 0.000000e+00
      vertex 2.580100e+01 2.119700e+01 1.100200e+01
    endloop
  endfacet
  facet normal 6.465219e-01 7.628955e-01 0.000000e+00
    outer loop
      vertex 2.580100e+01 2.119700e+01 0.000000e+00
      vertex 2.721700e+01 1.999700e+01 1.100200e+01
      vertex 2.721700e+01 1.999700e+01 0.000000e+00
    endloop
  endfacet
  facet normal 6.835260e-01 -7.299192e-01 3.184873e-03
    outer loop
      vertex 2.721700e+01 1.999700e+01 0.000000e+00
      vertex 2.580100e+01 1.868300e+01 2.750000e+00
      vertex 2.580100e+01 1.867100e+01 0.000000e+00
    endloop
  endfacet
  facet normal 6.802130e-01 -7.330145e-01 0.000000e+00
    outer loop
      vertex 2.580100e+01 1.868300e+01 2.750000e+00
      vertex 2.721700e+01 1.999700e+01 0.000000e+00
      vertex 2.580100e+01 1.868300e+01 1.100200e+01
    endloop
  endfacet
  facet normal 6.802131e-01 -7.330145e-01 0.000000e+00
    outer loop
      vertex 2.580100e+01 1.868300e+01 1.100200e+01
      vertex 2.721700e+01 1.999700e+01 0.000000e+00
      vertex 2.721700e+01 1.999700e+01 1.100200e+01
    endloop
  endfacet
  facet normal 4.000454e-01 -9.164953e-01 0.000000e+00
    outer loop
      vertex 2.425100e+01 -6.361000e+00 0.000000e+00
      vertex 1.703900e+01 -9.509000e+00 1.100200e+01
      vertex 1.703900e+01 -9.509000e+00 0.000000e+00
    endloop
  endfacet
  facet normal 4.000454e-01 -9.164953e-01 0.000000e+00
    outer loop
      vertex 1.703900e+01 -9.509000e+00 1.100200e+01
      vertex 2.425100e+01 -6.361000e+00 0.000000e+00
      vertex 2.425100e+01 -6.361000e+00 1.100200e+01
    endloop
  endfacet
  facet normal 6.761174e-01 7.367940e-01 0.000000e+00
    outer loop
      vertex 2.716100e+01 2.241500e+01 1.100200e+01
      vertex 2.580100e+01 2.366300e+01 0.000000e+00
      vertex 2.580100e+01 2.366300e+01 1.100200e+01
    endloop
  endfacet
  facet normal 6.761174e-01 7.367940e-01 0.000000e+00
    outer loop
      vertex 2.580100e+01 2.366300e+01 0.000000e+00
      vertex 2.716100e+01 2.241500e+01 1.100200e+01
      vertex 2.716100e+01 2.241500e+01 0.000000e+00
    endloop
  endfacet
  facet normal -6.965588e-01 7.174997e-01 0.000000e+00
    outer loop
      vertex 2.953700e+01 1.688300e+01 1.100200e+01
      vertex 2.823500e+01 1.561900e+01 0.000000e+00
      vertex 2.823500e+01 1.561900e+01 1.100200e+01
    endloop
  endfacet
  facet normal -6.965588e-01 7.174997e-01 0.000000e+00
    outer loop
      vertex 2.823500e+01 1.561900e+01 0.000000e+00
      vertex 2.953700e+01 1.688300e+01 1.100200e+01
      vertex 2.953700e+01 1.688300e+01 0.000000e+00
    endloop
  endfacet
  facet normal -6.922734e-01 -7.216353e-01 0.000000e+00
    outer loop
      vertex 2.953700e+01 1.189100e+01 0.000000e+00
      vertex 2.825900e+01 1.311700e+01 1.100200e+01
      vertex 2.825900e+01 1.311700e+01 0.000000e+00
    endloop
  endfacet
  facet normal -6.922734e-01 -7.216353e-01 0.000000e+00
    outer loop
      vertex 2.825900e+01 1.311700e+01 1.100200e+01
      vertex 2.953700e+01 1.189100e+01 0.000000e+00
      vertex 2.953700e+01 1.189100e+01 1.100200e+01
    endloop
  endfacet
  facet normal -7.657616e-01 6.431247e-01 -0.000000e+00
    outer loop
      vertex 2.020300e+01 -3.243100e+01 1.100200e+01
      vertex 2.557300e+01 -2.603700e+01 0.000000e+00
      vertex 2.020300e+01 -3.243100e+01 0.000000e+00
    endloop
  endfacet
  facet normal -7.657616e-01 6.431247e-01 0.000000e+00
    outer loop
      vertex 2.557300e+01 -2.603700e+01 0.000000e+00
      vertex 2.020300e+01 -3.243100e+01 1.100200e+01
      vertex 2.557300e+01 -2.603700e+01 1.100200e+01
    endloop
  endfacet
  facet normal -6.920256e-01 7.218729e-01 0.000000e+00
    outer loop
      vertex 2.953700e+01 2.187500e+01 1.100200e+01
      vertex 2.823100e+01 2.062300e+01 0.000000e+00
      vertex 2.823100e+01 2.062300e+01 1.100200e+01
    endloop
  endfacet
  facet normal -6.920256e-01 7.218729e-01 0.000000e+00
    outer loop
      vertex 2.823100e+01 2.062300e+01 0.000000e+00
      vertex 2.953700e+01 2.187500e+01 1.100200e+01
      vertex 2.953700e+01 2.187500e+01 0.000000e+00
    endloop
  endfacet
  facet normal 0.000000e+00 -0.000000e+00 -1.000000e+00
    outer loop
      vertex 2.712700e+01 2.499100e+01 0.000000e+00
      vertex 2.422100e+01 2.454300e+01 0.000000e+00
      vertex 2.580900e+01 2.618700e+01 0.000000e+00
    endloop
  endfacet
  facet normal 0.000000e+00 0.000000e+00 -1.000000e+00
    outer loop
      vertex 2.422100e+01 2.454300e+01 0.000000e+00
      vertex 2.712700e+01 2.499100e+01 0.000000e+00
      vertex 2.580100e+01 2.366300e+01 0.000000e+00
    endloop
  endfacet
  facet normal 0.000000e+00 0.000000e+00 -1.000000e+00
    outer loop
      vertex 2.422100e+01 2.454300e+01 0.000000e+00
      vertex 2.580100e+01 2.366300e+01 0.000000e+00
      vertex 2.422100e+01 1.573001e+00 0.000000e+00
    endloop
  endfacet
  facet normal 0.000000e+00 0.000000e+00 -1.000000e+00
    outer loop
      vertex 2.422100e+01 1.573001e+00 0.000000e+00
      vertex 2.580100e+01 2.366300e+01 0.000000e+00
      vertex 2.580100e+01 2.119700e+01 0.000000e+00
    endloop
  endfacet
  facet normal 0.000000e+00 0.000000e+00 -1.000000e+00
    outer loop
      vertex 2.580100e+01 2.119700e+01 0.000000e+00
      vertex 2.580100e+01 2.366300e+01 0.000000e+00
      vertex 2.716100e+01 2.241500e+01 0.000000e+00
    endloop
  endfacet
  facet normal 0.000000e+00 0.000000e+00 -1.000000e+00
    outer loop
      vertex 2.422100e+01 1.573001e+00 0.000000e+00
      vertex 2.580100e+01 2.119700e+01 0.000000e+00
      vertex 2.580100e+01 1.867100e+01 0.000000e+00
    endloop
  endfacet
  facet normal 0.000000e+00 0.000000e+00 -1.000000e+00
    outer loop
      vertex 2.580100e+01 1.867100e+01 0.000000e+00
      vertex 2.580100e+01 2.119700e+01 0.000000e+00
      vertex 2.721700e+01 1.999700e+01 0.000000e+00
    endloop
  endfacet
  facet normal 0.000000e+00 0.000000e+00 -1.000000e+00
    outer loop
      vertex 2.422100e+01 1.573001e+00 0.000000e+00
      vertex 2.580100e+01 1.867100e+01 0.000000e+00
      vertex 2.580100e+01 1.616700e+01 0.000000e+00
    endloop
  endfacet
  facet normal 0.000000e+00 0.000000e+00 -1.000000e+00
    outer loop
      vertex 2.580100e+01 1.616700e+01 0.000000e+00
      vertex 2.580100e+01 1.867100e+01 0.000000e+00
      vertex 2.721700e+01 1.744700e+01 0.000000e+00
    endloop
  endfacet
  facet normal 0.000000e+00 0.000000e+00 -1.000000e+00
    outer loop
      vertex 2.422100e+01 1.573001e+00 0.000000e+00
      vertex 2.580100e+01 1.616700e+01 0.000000e+00
      vertex 2.580100e+01 1.367900e+01 0.000000e+00
    endloop
  endfacet
  facet normal 0.000000e+00 0.000000e+00 -1.000000e+00
    outer loop
      vertex 2.580100e+01 1.367900e+01 0.000000e+00
      vertex 2.580100e+01 1.616700e+01 0.000000e+00
      vertex 2.724900e+01 1.499300e+01 0.000000e+00
    endloop
  endfacet
  facet normal 0.000000e+00 0.000000e+00 -1.000000e+00
    outer loop
      vertex 2.422100e+01 1.573001e+00 0.000000e+00
      vertex 2.580100e+01 1.367900e+01 0.000000e+00
      vertex 2.581100e+01 1.117700e+01 0.000000e+00
    endloop
  endfacet
  facet normal 0.000000e+00 0.000000e+00 -1.000000e+00
    outer loop
      vertex 2.581100e+01 1.117700e+01 0.000000e+00
      vertex 2.580100e+01 1.367900e+01 0.000000e+00
      vertex 2.724900e+01 1.249100e+01 0.000000e+00
    endloop
  endfacet
  facet normal 0.000000e+00 0.000000e+00 -1.000000e+00
    outer loop
      vertex 2.422100e+01 1.573001e+00 0.000000e+00
      vertex 2.581100e+01 1.117700e+01 0.000000e+00
      vertex 2.735100e+01 9.653001e+00 0.000000e+00
    endloop
  endfacet
  facet normal 0.000000e+00 0.000000e+00 -1.000000e+00
    outer loop
      vertex 2.422100e+01 1.573001e+00 0.000000e+00
      vertex 2.735100e+01 9.653001e+00 0.000000e+00
      vertex 3.092700e+01 8.481001e+00 0.000000e+00
    endloop
  endfacet
  facet normal 0.000000e+00 0.000000e+00 -1.000000e+00
    outer loop
      vertex 3.092700e+01 8.481001e+00 0.000000e+00
      vertex 2.735100e+01 9.653001e+00 0.000000e+00
      vertex 3.116500e+01 8.641001e+00 0.000000e+00
    endloop
  endfacet
  facet normal 0.000000e+00 0.000000e+00 -1.000000e+00
    outer loop
      vertex 3.116500e+01 8.641001e+00 0.000000e+00
      vertex 2.735100e+01 9.653001e+00 0.000000e+00
      vertex 3.143500e+01 8.733001e+00 0.000000e+00
    endloop
  endfacet
  facet normal 0.000000e+00 0.000000e+00 -1.000000e+00
    outer loop
      vertex 3.143500e+01 8.733001e+00 0.000000e+00
      vertex 2.735100e+01 9.653001e+00 0.000000e+00
      vertex 3.172100e+01 8.755001e+00 0.000000e+00
    endloop
  endfacet
  facet normal 0.000000e+00 0.000000e+00 -1.000000e+00
    outer loop
      vertex 2.422100e+01 1.573001e+00 0.000000e+00
      vertex 3.092700e+01 8.481001e+00 0.000000e+00
      vertex 3.073900e+01 8.265001e+00 0.000000e+00
    endloop
  endfacet
  facet normal 0.000000e+00 0.000000e+00 -1.000000e+00
    outer loop
      vertex 2.422100e+01 1.573001e+00 0.000000e+00
      vertex 3.073900e+01 8.265001e+00 0.000000e+00
      vertex 3.061500e+01 8.007001e+00 0.000000e+00
    endloop
  endfacet
  facet normal 0.000000e+00 0.000000e+00 -1.000000e+00
    outer loop
      vertex 2.422100e+01 1.573001e+00 0.000000e+00
      vertex 3.061500e+01 8.007001e+00 0.000000e+00
      vertex 3.056100e+01 7.725001e+00 0.000000e+00
    endloop
  endfacet
  facet normal 0.000000e+00 0.000000e+00 -1.000000e+00
    outer loop
      vertex 2.422100e+01 1.573001e+00 0.000000e+00
      vertex 3.056100e+01 7.725001e+00 0.000000e+00
      vertex 3.058100e+01 7.441001e+00 0.000000e+00
    endloop
  endfacet
  facet normal 0.000000e+00 0.000000e+00 -1.000000e+00
    outer loop
      vertex 2.422100e+01 1.573001e+00 0.000000e+00
      vertex 3.058100e+01 7.441001e+00 0.000000e+00
      vertex 3.067300e+01 7.169001e+00 0.000000e+00
    endloop
  endfacet
  facet normal 0.000000e+00 0.000000e+00 -1.000000e+00
    outer loop
      vertex 2.422100e+01 1.573001e+00 0.000000e+00
      vertex 3.067300e+01 7.169001e+00 0.000000e+00
      vertex 3.083500e+01 6.933001e+00 0.000000e+00
    endloop
  endfacet
  facet normal 0.000000e+00 0.000000e+00 -1.000000e+00
    outer loop
      vertex 2.422100e+01 1.573001e+00 0.000000e+00
      vertex 3.083500e+01 6.933001e+00 0.000000e+00
      vertex 3.105100e+01 6.745001e+00 0.000000e+00
    endloop
  endfacet
  facet normal 0.000000e+00 0.000000e+00 -1.000000e+00
    outer loop
      vertex 2.422100e+01 1.573001e+00 0.000000e+00
      vertex 3.105100e+01 6.745001e+00 0.000000e+00
      vertex 3.130700e+01 6.621001e+00 0.000000e+00
    endloop
  endfacet
  facet normal 0.000000e+00 0.000000e+00 -1.000000e+00
    outer loop
      vertex 2.422100e+01 1.573001e+00 0.000000e+00
      vertex 3.130700e+01 6.621001e+00 0.000000e+00
      vertex 3.158900e+01 6.565001e+00 0.000000e+00
    endloop
  endfacet
  facet normal 0.000000e+00 0.000000e+00 -1.000000e+00
    outer loop
      vertex 3.396500e+01 3.117300e+01 0.000000e+00
      vertex 2.953700e+01 2.435300e+01 0.000000e+00
      vertex 2.821700e+01 2.561500e+01 0.000000e+00
    endloop
  endfacet
  facet normal 0.000000e+00 0.000000e+00 -1.000000e+00
    outer loop
      vertex 2.953700e+01 2.435300e+01 0.000000e+00
      vertex 3.396500e+01 3.117300e+01 0.000000e+00
      vertex 3.272700e+01 7.879001e+00 0.000000e+00
    endloop
  endfacet
  facet normal 0.000000e+00 0.000000e+00 -1.000000e+00
    outer loop
      vertex 3.272700e+01 7.879001e+00 0.000000e+00
      vertex 3.396500e+01 3.117300e+01 0.000000e+00
      vertex 3.396500e+01 1.420300e+01 0.000000e+00
    endloop
  endfacet
  facet normal 0.000000e+00 0.000000e+00 -1.000000e+00
    outer loop
      vertex 2.953700e+01 2.435300e+01 0.000000e+00
      vertex 3.272700e+01 7.879001e+00 0.000000e+00
      vertex 2.953700e+01 2.187500e+01 0.000000e+00
    endloop
  endfacet
  facet normal 0.000000e+00 0.000000e+00 -1.000000e+00
    outer loop
      vertex 2.953700e+01 2.435300e+01 0.000000e+00
      vertex 2.953700e+01 2.187500e+01 0.000000e+00
      vertex 2.824300e+01 2.304100e+01 0.000000e+00
    endloop
  endfacet
  facet normal 0.000000e+00 0.000000e+00 -1.000000e+00
    outer loop
      vertex 2.953700e+01 2.187500e+01 0.000000e+00
      vertex 3.272700e+01 7.879001e+00 0.000000e+00
      vertex 2.953700e+01 1.938500e+01 0.000000e+00
    endloop
  endfacet
  facet normal 0.000000e+00 0.000000e+00 -1.000000e+00
    outer loop
      vertex 2.953700e+01 2.187500e+01 0.000000e+00
      vertex 2.953700e+01 1.938500e+01 0.000000e+00
      vertex 2.823100e+01 2.062300e+01 0.000000e+00
    endloop
  endfacet
  facet normal 0.000000e+00 0.000000e+00 -1.000000e+00
    outer loop
      vertex 2.953700e+01 1.938500e+01 0.000000e+00
      vertex 3.272700e+01 7.879001e+00 0.000000e+00
      vertex 3.263500e+01 8.149001e+00 0.000000e+00
    endloop
  endfacet
  facet normal 0.000000e+00 0.000000e+00 -1.000000e+00
    outer loop
      vertex 2.953700e+01 1.938500e+01 0.000000e+00
      vertex 3.263500e+01 8.149001e+00 0.000000e+00
      vertex 2.953700e+01 1.688300e+01 0.000000e+00
    endloop
  endfacet
  facet normal 0.000000e+00 0.000000e+00 -1.000000e+00
    outer loop
      vertex 2.953700e+01 1.938500e+01 0.000000e+00
      vertex 2.953700e+01 1.688300e+01 0.000000e+00
      vertex 2.823500e+01 1.807300e+01 0.000000e+00
    endloop
  endfacet
  facet normal 0.000000e+00 0.000000e+00 -1.000000e+00
    outer loop
      vertex 2.953700e+01 1.688300e+01 0.000000e+00
      vertex 3.263500e+01 8.149001e+00 0.000000e+00
      vertex 2.953700e+01 1.439300e+01 0.000000e+00
    endloop
  endfacet
  facet normal 0.000000e+00 0.000000e+00 -1.000000e+00
    outer loop
      vertex 2.953700e+01 1.688300e+01 0.000000e+00
      vertex 2.953700e+01 1.439300e+01 0.000000e+00
      vertex 2.823500e+01 1.561900e+01 0.000000e+00
    endloop
  endfacet
  facet normal 0.000000e+00 0.000000e+00 -1.000000e+00
    outer loop
      vertex 2.953700e+01 1.439300e+01 0.000000e+00
      vertex 3.263500e+01 8.149001e+00 0.000000e+00
      vertex 3.247500e+01 8.387001e+00 0.000000e+00
    endloop
  endfacet
  facet normal 0.000000e+00 0.000000e+00 -1.000000e+00
    outer loop
      vertex 2.953700e+01 1.439300e+01 0.000000e+00
      vertex 3.247500e+01 8.387001e+00 0.000000e+00
      vertex 2.953700e+01 1.189100e+01 0.000000e+00
    endloop
  endfacet
  facet normal 0.000000e+00 0.000000e+00 -1.000000e+00
    outer loop
      vertex 2.953700e+01 1.439300e+01 0.000000e+00
      vertex 2.953700e+01 1.189100e+01 0.000000e+00
      vertex 2.825900e+01 1.311700e+01 0.000000e+00
    endloop
  endfacet
  facet normal 0.000000e+00 0.000000e+00 -1.000000e+00
    outer loop
      vertex 2.953700e+01 1.189100e+01 0.000000e+00
      vertex 3.247500e+01 8.387001e+00 0.000000e+00
      vertex 3.225900e+01 8.573001e+00 0.000000e+00
    endloop
  endfacet
  facet normal 0.000000e+00 0.000000e+00 -1.000000e+00
    outer loop
      vertex 2.953700e+01 1.189100e+01 0.000000e+00
      vertex 3.225900e+01 8.573001e+00 0.000000e+00
      vertex 3.200100e+01 8.699001e+00 0.000000e+00
    endloop
  endfacet
  facet normal 0.000000e+00 0.000000e+00 -1.000000e+00
    outer loop
      vertex 2.953700e+01 1.189100e+01 0.000000e+00
      vertex 3.200100e+01 8.699001e+00 0.000000e+00
      vertex 2.735100e+01 9.653001e+00 0.000000e+00
    endloop
  endfacet
  facet normal 0.000000e+00 0.000000e+00 -1.000000e+00
    outer loop
      vertex 2.735100e+01 9.653001e+00 0.000000e+00
      vertex 3.200100e+01 8.699001e+00 0.000000e+00
      vertex 3.172100e+01 8.755001e+00 0.000000e+00
    endloop
  endfacet
  facet normal 0.000000e+00 0.000000e+00 -1.000000e+00
    outer loop
      vertex 3.272700e+01 7.879001e+00 0.000000e+00
      vertex 3.396500e+01 -2.767000e+00 0.000000e+00
      vertex 3.274900e+01 7.595001e+00 0.000000e+00
    endloop
  endfacet
  facet normal 0.000000e+00 0.000000e+00 -1.000000e+00
    outer loop
      vertex 3.274900e+01 7.595001e+00 0.000000e+00
      vertex 3.396500e+01 -2.767000e+00 0.000000e+00
      vertex 3.269500e+01 7.313001e+00 0.000000e+00
    endloop
  endfacet
  facet normal 0.000000e+00 0.000000e+00 -1.000000e+00
    outer loop
      vertex 3.269500e+01 7.313001e+00 0.000000e+00
      vertex 3.396500e+01 -2.767000e+00 0.000000e+00
      vertex 3.256900e+01 7.055001e+00 0.000000e+00
    endloop
  endfacet
  facet normal 0.000000e+00 0.000000e+00 -1.000000e+00
    outer loop
      vertex 3.256900e+01 7.055001e+00 0.000000e+00
      vertex 3.396500e+01 -2.767000e+00 0.000000e+00
      vertex 3.238100e+01 6.839001e+00 0.000000e+00
    endloop
  endfacet
  facet normal 0.000000e+00 0.000000e+00 -1.000000e+00
    outer loop
      vertex 3.238100e+01 6.839001e+00 0.000000e+00
      vertex 3.396500e+01 -2.767000e+00 0.000000e+00
      vertex 3.214500e+01 6.679001e+00 0.000000e+00
    endloop
  endfacet
  facet normal 0.000000e+00 0.000000e+00 -1.000000e+00
    outer loop
      vertex 3.214500e+01 6.679001e+00 0.000000e+00
      vertex 3.396500e+01 -2.767000e+00 0.000000e+00
      vertex 3.187300e+01 6.587001e+00 0.000000e+00
    endloop
  endfacet
  facet normal 0.000000e+00 0.000000e+00 -1.000000e+00
    outer loop
      vertex 3.187300e+01 6.587001e+00 0.000000e+00
      vertex 3.396500e+01 -2.767000e+00 0.000000e+00
      vertex 3.158900e+01 6.565001e+00 0.000000e+00
    endloop
  endfacet
  facet normal 0.000000e+00 0.000000e+00 -1.000000e+00
    outer loop
      vertex 3.158900e+01 6.565001e+00 0.000000e+00
      vertex 3.396500e+01 -2.767000e+00 0.000000e+00
      vertex 2.422100e+01 1.573001e+00 0.000000e+00
    endloop
  endfacet
  facet normal 0.000000e+00 0.000000e+00 -1.000000e+00
    outer loop
      vertex 2.422100e+01 1.573001e+00 0.000000e+00
      vertex 3.396500e+01 -2.767000e+00 0.000000e+00
      vertex 2.062900e+01 -3.967000e+00 0.000000e+00
    endloop
  endfacet
  facet normal 0.000000e+00 0.000000e+00 -1.000000e+00
    outer loop
      vertex 2.062900e+01 -3.967000e+00 0.000000e+00
      vertex 3.396500e+01 -2.767000e+00 0.000000e+00
      vertex 3.987700e+01 -9.083000e+00 0.000000e+00
    endloop
  endfacet
  facet normal 0.000000e+00 0.000000e+00 -1.000000e+00
    outer loop
      vertex 2.062900e+01 -3.967000e+00 0.000000e+00
      vertex 3.987700e+01 -9.083000e+00 0.000000e+00
      vertex 2.425100e+01 -6.361000e+00 0.000000e+00
    endloop
  endfacet
  facet normal 0.000000e+00 0.000000e+00 -1.000000e+00
    outer loop
      vertex 2.425100e+01 -6.361000e+00 0.000000e+00
      vertex 3.987700e+01 -9.083000e+00 0.000000e+00
      vertex 2.491100e+01 -1.619700e+01 0.000000e+00
    endloop
  endfacet
  facet normal 0.000000e+00 0.000000e+00 -1.000000e+00
    outer loop
      vertex 2.491100e+01 -1.619700e+01 0.000000e+00
      vertex 3.987700e+01 -9.083000e+00 0.000000e+00
      vertex 3.296700e+01 -1.263100e+01 0.000000e+00
    endloop
  endfacet
  facet normal 0.000000e+00 0.000000e+00 -1.000000e+00
    outer loop
      vertex 2.491100e+01 -1.619700e+01 0.000000e+00
      vertex 3.296700e+01 -1.263100e+01 0.000000e+00
      vertex 3.159500e+01 -1.933300e+01 0.000000e+00
    endloop
  endfacet
  facet normal 0.000000e+00 0.000000e+00 -1.000000e+00
    outer loop
      vertex 2.491100e+01 -1.619700e+01 0.000000e+00
      vertex 3.159500e+01 -1.933300e+01 0.000000e+00
      vertex 2.557300e+01 -2.603700e+01 0.000000e+00
    endloop
  endfacet
  facet normal 0.000000e+00 0.000000e+00 -1.000000e+00
    outer loop
      vertex 2.557300e+01 -2.603700e+01 0.000000e+00
      vertex 3.159500e+01 -1.933300e+01 0.000000e+00
      vertex 3.022100e+01 -2.603700e+01 0.000000e+00
    endloop
  endfacet
  facet normal 0.000000e+00 0.000000e+00 -1.000000e+00
    outer loop
      vertex 2.557300e+01 -2.603700e+01 0.000000e+00
      vertex 3.022100e+01 -2.603700e+01 0.000000e+00
      vertex 3.566500e+01 -3.243100e+01 0.000000e+00
    endloop
  endfacet
  facet normal 0.000000e+00 0.000000e+00 -1.000000e+00
    outer loop
      vertex 2.557300e+01 -2.603700e+01 0.000000e+00
      vertex 3.566500e+01 -3.243100e+01 0.000000e+00
      vertex 2.789700e+01 -2.923300e+01 0.000000e+00
    endloop
  endfacet
  facet normal 0.000000e+00 0.000000e+00 -1.000000e+00
    outer loop
      vertex 2.789700e+01 -2.923300e+01 0.000000e+00
      vertex 3.566500e+01 -3.243100e+01 0.000000e+00
      vertex 3.430900e+01 -3.243100e+01 0.000000e+00
    endloop
  endfacet
  facet normal 0.000000e+00 -0.000000e+00 -1.000000e+00
    outer loop
      vertex 2.789700e+01 -2.923300e+01 0.000000e+00
      vertex 2.020300e+01 -3.243100e+01 0.000000e+00
      vertex 2.557300e+01 -2.603700e+01 0.000000e+00
    endloop
  endfacet
  facet normal 0.000000e+00 0.000000e+00 -1.000000e+00
    outer loop
      vertex 2.020300e+01 -3.243100e+01 0.000000e+00
      vertex 2.789700e+01 -2.923300e+01 0.000000e+00
      vertex 2.180500e+01 -3.243100e+01 0.000000e+00
    endloop
  endfacet
  facet normal 0.000000e+00 0.000000e+00 -1.000000e+00
    outer loop
      vertex 1.703900e+01 -9.509000e+00 0.000000e+00
      vertex 2.062900e+01 -3.967000e+00 0.000000e+00
      vertex 2.425100e+01 -6.361000e+00 0.000000e+00
    endloop
  endfacet
  facet normal 7.034047e-01 7.107895e-01 0.000000e+00
    outer loop
      vertex 2.735100e+01 9.653001e+00 1.100200e+01
      vertex 2.581100e+01 1.117700e+01 0.000000e+00
      vertex 2.581100e+01 1.117700e+01 1.100200e+01
    endloop
  endfacet
  facet normal 7.034047e-01 7.107895e-01 0.000000e+00
    outer loop
      vertex 2.581100e+01 1.117700e+01 0.000000e+00
      vertex 2.735100e+01 9.653001e+00 1.100200e+01
      vertex 2.735100e+01 9.653001e+00 0.000000e+00
    endloop
  endfacet
  facet normal -6.746458e-01 -7.381416e-01 0.000000e+00
    outer loop
      vertex 2.953700e+01 1.688300e+01 0.000000e+00
      vertex 2.823500e+01 1.807300e+01 1.100200e+01
      vertex 2.823500e+01 1.807300e+01 0.000000e+00
    endloop
  endfacet
  facet normal -6.746458e-01 -7.381416e-01 0.000000e+00
    outer loop
      vertex 2.823500e+01 1.807300e+01 1.100200e+01
      vertex 2.953700e+01 1.688300e+01 0.000000e+00
      vertex 2.953700e+01 1.688300e+01 1.100200e+01
    endloop
  endfacet
  facet normal 6.705836e-01 -7.418339e-01 0.000000e+00
    outer loop
      vertex 2.721700e+01 1.744700e+01 0.000000e+00
      vertex 2.580100e+01 1.616700e+01 1.100200e+01
      vertex 2.580100e+01 1.616700e+01 0.000000e+00
    endloop
  endfacet
  facet normal 6.705836e-01 -7.418339e-01 0.000000e+00
    outer loop
      vertex 2.580100e+01 1.616700e+01 1.100200e+01
      vertex 2.721700e+01 1.744700e+01 0.000000e+00
      vertex 2.721700e+01 1.744700e+01 1.100200e+01
    endloop
  endfacet
  facet normal -6.855390e-01 -7.280359e-01 0.000000e+00
    outer loop
      vertex 2.953700e+01 1.439300e+01 0.000000e+00
      vertex 2.823500e+01 1.561900e+01 1.100200e+01
      vertex 2.823500e+01 1.561900e+01 0.000000e+00
    endloop
  endfacet
  facet normal -6.855390e-01 -7.280359e-01 0.000000e+00
    outer loop
      vertex 2.823500e+01 1.561900e+01 1.100200e+01
      vertex 2.953700e+01 1.439300e+01 0.000000e+00
      vertex 2.953700e+01 1.439300e+01 1.100200e+01
    endloop
  endfacet
  facet normal 7.076392e-01 -7.065740e-01 0.000000e+00
    outer loop
      vertex 2.712700e+01 2.499100e+01 1.100200e+01
      vertex 2.580100e+01 2.366300e+01 0.000000e+00
      vertex 2.712700e+01 2.499100e+01 0.000000e+00
    endloop
  endfacet
  facet normal 7.076392e-01 -7.065740e-01 0.000000e+00
    outer loop
      vertex 2.580100e+01 2.366300e+01 0.000000e+00
      vertex 2.712700e+01 2.499100e+01 1.100200e+01
      vertex 2.580100e+01 2.366300e+01 1.100200e+01
    endloop
  endfacet
  facet normal -7.153687e-01 6.987472e-01 -0.000000e+00
    outer loop
      vertex 2.735100e+01 9.653001e+00 1.100200e+01
      vertex 2.953700e+01 1.189100e+01 0.000000e+00
      vertex 2.735100e+01 9.653001e+00 0.000000e+00
    endloop
  endfacet
  facet normal -7.153687e-01 6.987472e-01 0.000000e+00
    outer loop
      vertex 2.953700e+01 1.189100e+01 0.000000e+00
      vertex 2.735100e+01 9.653001e+00 1.100200e+01
      vertex 2.953700e+01 1.189100e+01 1.100200e+01
    endloop
  endfacet
  facet normal -3.204038e-01 9.472810e-01 0.000000e+00
    outer loop
      vertex 3.214500e+01 6.679001e+00 1.100200e+01
      vertex 3.187300e+01 6.587001e+00 0.000000e+00
      vertex 3.187300e+01 6.587001e+00 1.100200e+01
    endloop
  endfacet
  facet normal -3.204038e-01 9.472810e-01 0.000000e+00
    outer loop
      vertex 3.187300e+01 6.587001e+00 0.000000e+00
      vertex 3.214500e+01 6.679001e+00 1.100200e+01
      vertex 3.214500e+01 6.679001e+00 0.000000e+00
    endloop
  endfacet
  facet normal -5.611578e-01 8.277088e-01 0.000000e+00
    outer loop
      vertex 3.238100e+01 6.839001e+00 1.100200e+01
      vertex 3.214500e+01 6.679001e+00 0.000000e+00
      vertex 3.214500e+01 6.679001e+00 1.100200e+01
    endloop
  endfacet
  facet normal -5.611578e-01 8.277088e-01 0.000000e+00
    outer loop
      vertex 3.214500e+01 6.679001e+00 0.000000e+00
      vertex 3.238100e+01 6.839001e+00 1.100200e+01
      vertex 3.238100e+01 6.839001e+00 0.000000e+00
    endloop
  endfacet
  facet normal -6.910483e-01 -7.228085e-01 0.000000e+00
    outer loop
      vertex 2.953700e+01 2.435300e+01 0.000000e+00
      vertex 2.821700e+01 2.561500e+01 1.100200e+01
      vertex 2.821700e+01 2.561500e+01 0.000000e+00
    endloop
  endfacet
  facet normal -6.910483e-01 -7.228085e-01 0.000000e+00
    outer loop
      vertex 2.821700e+01 2.561500e+01 1.100200e+01
      vertex 2.953700e+01 2.435300e+01 0.000000e+00
      vertex 2.953700e+01 2.435300e+01 1.100200e+01
    endloop
  endfacet
  facet normal -7.098067e-01 7.043965e-01 -0.000000e+00
    outer loop
      vertex 2.823500e+01 1.807300e+01 1.100200e+01
      vertex 2.953700e+01 1.938500e+01 0.000000e+00
      vertex 2.823500e+01 1.807300e+01 0.000000e+00
    endloop
  endfacet
  facet normal -7.098067e-01 7.043965e-01 0.000000e+00
    outer loop
      vertex 2.953700e+01 1.938500e+01 0.000000e+00
      vertex 2.823500e+01 1.807300e+01 1.100200e+01
      vertex 2.953700e+01 1.938500e+01 1.100200e+01
    endloop
  endfacet
  facet normal 6.720109e-01 -7.405412e-01 0.000000e+00
    outer loop
      vertex 2.724900e+01 1.499300e+01 0.000000e+00
      vertex 2.580100e+01 1.367900e+01 1.100200e+01
      vertex 2.580100e+01 1.367900e+01 0.000000e+00
    endloop
  endfacet
  facet normal 6.720109e-01 -7.405412e-01 0.000000e+00
    outer loop
      vertex 2.580100e+01 1.367900e+01 1.100200e+01
      vertex 2.724900e+01 1.499300e+01 0.000000e+00
      vertex 2.724900e+01 1.499300e+01 1.100200e+01
    endloop
  endfacet
  facet normal -6.694088e-01 -7.428943e-01 0.000000e+00
    outer loop
      vertex 2.953700e+01 2.187500e+01 0.000000e+00
      vertex 2.824300e+01 2.304100e+01 1.100200e+01
      vertex 2.824300e+01 2.304100e+01 0.000000e+00
    endloop
  endfacet
  facet normal -6.694088e-01 -7.428943e-01 0.000000e+00
    outer loop
      vertex 2.824300e+01 2.304100e+01 1.100200e+01
      vertex 2.953700e+01 2.187500e+01 0.000000e+00
      vertex 2.953700e+01 2.187500e+01 1.100200e+01
    endloop
  endfacet
  facet normal 6.720017e-01 7.405497e-01 0.000000e+00
    outer loop
      vertex 2.712700e+01 2.499100e+01 1.100200e+01
      vertex 2.580900e+01 2.618700e+01 0.000000e+00
      vertex 2.580900e+01 2.618700e+01 1.100200e+01
    endloop
  endfacet
  facet normal 6.720017e-01 7.405497e-01 0.000000e+00
    outer loop
      vertex 2.580900e+01 2.618700e+01 0.000000e+00
      vertex 2.712700e+01 2.499100e+01 1.100200e+01
      vertex 2.712700e+01 2.499100e+01 0.000000e+00
    endloop
  endfacet
  facet normal 6.123234e-17 -1.000000e+00 0.000000e+00
    outer loop
      vertex 2.180500e+01 -3.243100e+01 0.000000e+00
      vertex 2.020300e+01 -3.243100e+01 1.100200e+01
      vertex 2.020300e+01 -3.243100e+01 0.000000e+00
    endloop
  endfacet
  facet normal 6.123234e-17 -1.000000e+00 0.000000e+00
    outer loop
      vertex 2.020300e+01 -3.243100e+01 1.100200e+01
      vertex 2.180500e+01 -3.243100e+01 0.000000e+00
      vertex 2.180500e+01 -3.243100e+01 1.100200e+01
    endloop
  endfacet
  facet normal 6.297843e-01 7.767701e-01 0.000000e+00
    outer loop
      vertex 2.724900e+01 1.499300e+01 1.100200e+01
      vertex 2.580100e+01 1.616700e+01 0.000000e+00
      vertex 2.580100e+01 1.616700e+01 1.100200e+01
    endloop
  endfacet
  facet normal 6.297843e-01 7.767701e-01 0.000000e+00
    outer loop
      vertex 2.580100e+01 1.616700e+01 0.000000e+00
      vertex 2.724900e+01 1.499300e+01 1.100200e+01
      vertex 2.724900e+01 1.499300e+01 0.000000e+00
    endloop
  endfacet
  facet normal 0.000000e+00 0.000000e+00 1.000000e+00
    outer loop
      vertex 2.422100e+01 2.454300e+01 1.100200e+01
      vertex 2.712700e+01 2.499100e+01 1.100200e+01
      vertex 2.580900e+01 2.618700e+01 1.100200e+01
    endloop
  endfacet
  facet normal 0.000000e+00 0.000000e+00 1.000000e+00
    outer loop
      vertex 2.712700e+01 2.499100e+01 1.100200e+01
      vertex 2.422100e+01 2.454300e+01 1.100200e+01
      vertex 2.580100e+01 2.366300e+01 1.100200e+01
    endloop
  endfacet
  facet normal 0.000000e+00 0.000000e+00 1.000000e+00
    outer loop
      vertex 2.580100e+01 2.366300e+01 1.100200e+01
      vertex 2.422100e+01 2.454300e+01 1.100200e+01
      vertex 2.422100e+01 1.573001e+00 1.100200e+01
    endloop
  endfacet
  facet normal 0.000000e+00 0.000000e+00 1.000000e+00
    outer loop
      vertex 2.580100e+01 2.366300e+01 1.100200e+01
      vertex 2.422100e+01 1.573001e+00 1.100200e+01
      vertex 2.580100e+01 2.119700e+01 1.100200e+01
    endloop
  endfacet
  facet normal 0.000000e+00 0.000000e+00 1.000000e+00
    outer loop
      vertex 2.580100e+01 2.366300e+01 1.100200e+01
      vertex 2.580100e+01 2.119700e+01 1.100200e+01
      vertex 2.716100e+01 2.241500e+01 1.100200e+01
    endloop
  endfacet
  facet normal 0.000000e+00 0.000000e+00 1.000000e+00
    outer loop
      vertex 2.580100e+01 2.119700e+01 1.100200e+01
      vertex 2.422100e+01 1.573001e+00 1.100200e+01
      vertex 2.580100e+01 1.868300e+01 1.100200e+01
    endloop
  endfacet
  facet normal 0.000000e+00 0.000000e+00 1.000000e+00
    outer loop
      vertex 2.580100e+01 2.119700e+01 1.100200e+01
      vertex 2.580100e+01 1.868300e+01 1.100200e+01
      vertex 2.721700e+01 1.999700e+01 1.100200e+01
    endloop
  endfacet
  facet normal 0.000000e+00 0.000000e+00 1.000000e+00
    outer loop
      vertex 2.580100e+01 1.868300e+01 1.100200e+01
      vertex 2.422100e+01 1.573001e+00 1.100200e+01
      vertex 2.580100e+01 1.616700e+01 1.100200e+01
    endloop
  endfacet
  facet normal 0.000000e+00 0.000000e+00 1.000000e+00
    outer loop
      vertex 2.580100e+01 1.868300e+01 1.100200e+01
      vertex 2.580100e+01 1.616700e+01 1.100200e+01
      vertex 2.721700e+01 1.744700e+01 1.100200e+01
    endloop
  endfacet
  facet normal 0.000000e+00 0.000000e+00 1.000000e+00
    outer loop
      vertex 2.580100e+01 1.616700e+01 1.100200e+01
      vertex 2.422100e+01 1.573001e+00 1.100200e+01
      vertex 2.580100e+01 1.367900e+01 1.100200e+01
    endloop
  endfacet
  facet normal 0.000000e+00 0.000000e+00 1.000000e+00
    outer loop
      vertex 2.580100e+01 1.616700e+01 1.100200e+01
      vertex 2.580100e+01 1.367900e+01 1.100200e+01
      vertex 2.724900e+01 1.499300e+01 1.100200e+01
    endloop
  endfacet
  facet normal 0.000000e+00 0.000000e+00 1.000000e+00
    outer loop
      vertex 2.580100e+01 1.367900e+01 1.100200e+01
      vertex 2.422100e+01 1.573001e+00 1.100200e+01
      vertex 2.581100e+01 1.117700e+01 1.100200e+01
    endloop
  endfacet
  facet normal 0.000000e+00 0.000000e+00 1.000000e+00
    outer loop
      vertex 2.580100e+01 1.367900e+01 1.100200e+01
      vertex 2.581100e+01 1.117700e+01 1.100200e+01
      vertex 2.724900e+01 1.249100e+01 1.100200e+01
    endloop
  endfacet
  facet normal 0.000000e+00 0.000000e+00 1.000000e+00
    outer loop
      vertex 2.581100e+01 1.117700e+01 1.100200e+01
      vertex 2.422100e+01 1.573001e+00 1.100200e+01
      vertex 2.735100e+01 9.653001e+00 1.100200e+01
    endloop
  endfacet
  facet normal 0.000000e+00 0.000000e+00 1.000000e+00
    outer loop
      vertex 2.735100e+01 9.653001e+00 1.100200e+01
      vertex 2.422100e+01 1.573001e+00 1.100200e+01
      vertex 3.092700e+01 8.481001e+00 1.100200e+01
    endloop
  endfacet
  facet normal 0.000000e+00 0.000000e+00 1.000000e+00
    outer loop
      vertex 2.735100e+01 9.653001e+00 1.100200e+01
      vertex 3.092700e+01 8.481001e+00 1.100200e+01
      vertex 3.116500e+01 8.641001e+00 1.100200e+01
    endloop
  endfacet
  facet normal 0.000000e+00 0.000000e+00 1.000000e+00
    outer loop
      vertex 2.735100e+01 9.653001e+00 1.100200e+01
      vertex 3.116500e+01 8.641001e+00 1.100200e+01
      vertex 3.143500e+01 8.733001e+00 1.100200e+01
    endloop
  endfacet
  facet normal 0.000000e+00 0.000000e+00 1.000000e+00
    outer loop
      vertex 2.735100e+01 9.653001e+00 1.100200e+01
      vertex 3.143500e+01 8.733001e+00 1.100200e+01
      vertex 3.172100e+01 8.755001e+00 1.100200e+01
    endloop
  endfacet
  facet normal 0.000000e+00 0.000000e+00 1.000000e+00
    outer loop
      vertex 3.092700e+01 8.481001e+00 1.100200e+01
      vertex 2.422100e+01 1.573001e+00 1.100200e+01
      vertex 3.073900e+01 8.265001e+00 1.100200e+01
    endloop
  endfacet
  facet normal 0.000000e+00 0.000000e+00 1.000000e+00
    outer loop
      vertex 3.073900e+01 8.265001e+00 1.100200e+01
      vertex 2.422100e+01 1.573001e+00 1.100200e+01
      vertex 3.061500e+01 8.007001e+00 1.100200e+01
    endloop
  endfacet
  facet normal 0.000000e+00 0.000000e+00 1.000000e+00
    outer loop
      vertex 3.061500e+01 8.007001e+00 1.100200e+01
      vertex 2.422100e+01 1.573001e+00 1.100200e+01
      vertex 3.056100e+01 7.725001e+00 1.100200e+01
    endloop
  endfacet
  facet normal 0.000000e+00 0.000000e+00 1.000000e+00
    outer loop
      vertex 3.056100e+01 7.725001e+00 1.100200e+01
      vertex 2.422100e+01 1.573001e+00 1.100200e+01
      vertex 3.058100e+01 7.441001e+00 1.100200e+01
    endloop
  endfacet
  facet normal 0.000000e+00 0.000000e+00 1.000000e+00
    outer loop
      vertex 3.058100e+01 7.441001e+00 1.100200e+01
      vertex 2.422100e+01 1.573001e+00 1.100200e+01
      vertex 3.067300e+01 7.169001e+00 1.100200e+01
    endloop
  endfacet
  facet normal 0.000000e+00 0.000000e+00 1.000000e+00
    outer loop
      vertex 3.067300e+01 7.169001e+00 1.100200e+01
      vertex 2.422100e+01 1.573001e+00 1.100200e+01
      vertex 3.083500e+01 6.933001e+00 1.100200e+01
    endloop
  endfacet
  facet normal 0.000000e+00 0.000000e+00 1.000000e+00
    outer loop
      vertex 3.083500e+01 6.933001e+00 1.100200e+01
      vertex 2.422100e+01 1.573001e+00 1.100200e+01
      vertex 3.105100e+01 6.745001e+00 1.100200e+01
    endloop
  endfacet
  facet normal 0.000000e+00 0.000000e+00 1.000000e+00
    outer loop
      vertex 3.105100e+01 6.745001e+00 1.100200e+01
      vertex 2.422100e+01 1.573001e+00 1.100200e+01
      vertex 3.130700e+01 6.621001e+00 1.100200e+01
    endloop
  endfacet
  facet normal 0.000000e+00 0.000000e+00 1.000000e+00
    outer loop
      vertex 3.130700e+01 6.621001e+00 1.100200e+01
      vertex 2.422100e+01 1.573001e+00 1.100200e+01
      vertex 3.158900e+01 6.565001e+00 1.100200e+01
    endloop
  endfacet
  facet normal 0.000000e+00 0.000000e+00 1.000000e+00
    outer loop
      vertex 3.272700e+01 7.879001e+00 1.100200e+01
      vertex 3.396500e+01 -2.767000e+00 1.100200e+01
      vertex 3.396500e+01 1.420300e+01 1.100200e+01
    endloop
  endfacet
  facet normal 0.000000e+00 0.000000e+00 1.000000e+00
    outer loop
      vertex 3.272700e+01 7.879001e+00 1.100200e+01
      vertex 3.396500e+01 3.117300e+01 1.100200e+01
      vertex 2.953700e+01 2.435300e+01 1.100200e+01
    endloop
  endfacet
  facet normal 0.000000e+00 0.000000e+00 1.000000e+00
    outer loop
      vertex 2.953700e+01 2.435300e+01 1.100200e+01
      vertex 3.396500e+01 3.117300e+01 1.100200e+01
      vertex 2.821700e+01 2.561500e+01 1.100200e+01
    endloop
  endfacet
  facet normal 0.000000e+00 0.000000e+00 1.000000e+00
    outer loop
      vertex 3.272700e+01 7.879001e+00 1.100200e+01
      vertex 2.953700e+01 2.435300e+01 1.100200e+01
      vertex 2.953700e+01 2.187500e+01 1.100200e+01
    endloop
  endfacet
  facet normal 0.000000e+00 0.000000e+00 1.000000e+00
    outer loop
      vertex 2.953700e+01 2.187500e+01 1.100200e+01
      vertex 2.953700e+01 2.435300e+01 1.100200e+01
      vertex 2.824300e+01 2.304100e+01 1.100200e+01
    endloop
  endfacet
  facet normal 0.000000e+00 0.000000e+00 1.000000e+00
    outer loop
      vertex 3.272700e+01 7.879001e+00 1.100200e+01
      vertex 2.953700e+01 2.187500e+01 1.100200e+01
      vertex 2.953700e+01 1.938500e+01 1.100200e+01
    endloop
  endfacet
  facet normal 0.000000e+00 0.000000e+00 1.000000e+00
    outer loop
      vertex 2.953700e+01 1.938500e+01 1.100200e+01
      vertex 2.953700e+01 2.187500e+01 1.100200e+01
      vertex 2.823100e+01 2.062300e+01 1.100200e+01
    endloop
  endfacet
  facet normal 0.000000e+00 0.000000e+00 1.000000e+00
    outer loop
      vertex 3.272700e+01 7.879001e+00 1.100200e+01
      vertex 2.953700e+01 1.938500e+01 1.100200e+01
      vertex 3.263500e+01 8.149001e+00 1.100200e+01
    endloop
  endfacet
  facet normal 0.000000e+00 0.000000e+00 1.000000e+00
    outer loop
      vertex 3.263500e+01 8.149001e+00 1.100200e+01
      vertex 2.953700e+01 1.938500e+01 1.100200e+01
      vertex 2.953700e+01 1.688300e+01 1.100200e+01
    endloop
  endfacet
  facet normal 0.000000e+00 0.000000e+00 1.000000e+00
    outer loop
      vertex 2.953700e+01 1.688300e+01 1.100200e+01
      vertex 2.953700e+01 1.938500e+01 1.100200e+01
      vertex 2.823500e+01 1.807300e+01 1.100200e+01
    endloop
  endfacet
  facet normal 0.000000e+00 0.000000e+00 1.000000e+00
    outer loop
      vertex 3.263500e+01 8.149001e+00 1.100200e+01
      vertex 2.953700e+01 1.688300e+01 1.100200e+01
      vertex 2.953700e+01 1.439300e+01 1.100200e+01
    endloop
  endfacet
  facet normal 0.000000e+00 0.000000e+00 1.000000e+00
    outer loop
      vertex 2.953700e+01 1.439300e+01 1.100200e+01
      vertex 2.953700e+01 1.688300e+01 1.100200e+01
      vertex 2.823500e+01 1.561900e+01 1.100200e+01
    endloop
  endfacet
  facet normal 0.000000e+00 0.000000e+00 1.000000e+00
    outer loop
      vertex 3.263500e+01 8.149001e+00 1.100200e+01
      vertex 2.953700e+01 1.439300e+01 1.100200e+01
      vertex 3.247500e+01 8.387001e+00 1.100200e+01
    endloop
  endfacet
  facet normal 0.000000e+00 0.000000e+00 1.000000e+00
    outer loop
      vertex 3.247500e+01 8.387001e+00 1.100200e+01
      vertex 2.953700e+01 1.439300e+01 1.100200e+01
      vertex 2.953700e+01 1.189100e+01 1.100200e+01
    endloop
  endfacet
  facet normal 0.000000e+00 0.000000e+00 1.000000e+00
    outer loop
      vertex 2.953700e+01 1.189100e+01 1.100200e+01
      vertex 2.953700e+01 1.439300e+01 1.100200e+01
      vertex 2.825900e+01 1.311700e+01 1.100200e+01
    endloop
  endfacet
  facet normal 0.000000e+00 0.000000e+00 1.000000e+00
    outer loop
      vertex 3.247500e+01 8.387001e+00 1.100200e+01
      vertex 2.953700e+01 1.189100e+01 1.100200e+01
      vertex 3.225900e+01 8.573001e+00 1.100200e+01
    endloop
  endfacet
  facet normal 0.000000e+00 0.000000e+00 1.000000e+00
    outer loop
      vertex 3.225900e+01 8.573001e+00 1.100200e+01
      vertex 2.953700e+01 1.189100e+01 1.100200e+01
      vertex 3.200100e+01 8.699001e+00 1.100200e+01
    endloop
  endfacet
  facet normal 0.000000e+00 0.000000e+00 1.000000e+00
    outer loop
      vertex 3.200100e+01 8.699001e+00 1.100200e+01
      vertex 2.953700e+01 1.189100e+01 1.100200e+01
      vertex 2.735100e+01 9.653001e+00 1.100200e+01
    endloop
  endfacet
  facet normal 0.000000e+00 0.000000e+00 1.000000e+00
    outer loop
      vertex 3.200100e+01 8.699001e+00 1.100200e+01
      vertex 2.735100e+01 9.653001e+00 1.100200e+01
      vertex 3.172100e+01 8.755001e+00 1.100200e+01
    endloop
  endfacet
  facet normal 0.000000e+00 0.000000e+00 1.000000e+00
    outer loop
      vertex 3.396500e+01 -2.767000e+00 1.100200e+01
      vertex 3.272700e+01 7.879001e+00 1.100200e+01
      vertex 3.274900e+01 7.595001e+00 1.100200e+01
    endloop
  endfacet
  facet normal 0.000000e+00 0.000000e+00 1.000000e+00
    outer loop
      vertex 3.396500e+01 -2.767000e+00 1.100200e+01
      vertex 3.274900e+01 7.595001e+00 1.100200e+01
      vertex 3.269500e+01 7.313001e+00 1.100200e+01
    endloop
  endfacet
  facet normal 0.000000e+00 0.000000e+00 1.000000e+00
    outer loop
      vertex 3.396500e+01 -2.767000e+00 1.100200e+01
      vertex 3.269500e+01 7.313001e+00 1.100200e+01
      vertex 3.256900e+01 7.055001e+00 1.100200e+01
    endloop
  endfacet
  facet normal 0.000000e+00 0.000000e+00 1.000000e+00
    outer loop
      vertex 3.396500e+01 -2.767000e+00 1.100200e+01
      vertex 3.256900e+01 7.055001e+00 1.100200e+01
      vertex 3.238100e+01 6.839001e+00 1.100200e+01
    endloop
  endfacet
  facet normal 0.000000e+00 0.000000e+00 1.000000e+00
    outer loop
      vertex 3.396500e+01 -2.767000e+00 1.100200e+01
      vertex 3.238100e+01 6.839001e+00 1.100200e+01
      vertex 3.214500e+01 6.679001e+00 1.100200e+01
    endloop
  endfacet
  facet normal 0.000000e+00 0.000000e+00 1.000000e+00
    outer loop
      vertex 3.396500e+01 -2.767000e+00 1.100200e+01
      vertex 3.214500e+01 6.679001e+00 1.100200e+01
      vertex 3.187300e+01 6.587001e+00 1.100200e+01
    endloop
  endfacet
  facet normal 0.000000e+00 0.000000e+00 1.000000e+00
    outer loop
      vertex 3.396500e+01 -2.767000e+00 1.100200e+01
      vertex 3.187300e+01 6.587001e+00 1.100200e+01
      vertex 3.158900e+01 6.565001e+00 1.100200e+01
    endloop
  endfacet
  facet normal 0.000000e+00 0.000000e+00 1.000000e+00
    outer loop
      vertex 3.158900e+01 6.565001e+00 1.100200e+01
      vertex 2.422100e+01 1.573001e+00 1.100200e+01
      vertex 3.396500e+01 -2.767000e+00 1.100200e+01
    endloop
  endfacet
  facet normal 0.000000e+00 0.000000e+00 1.000000e+00
    outer loop
      vertex 3.987700e+01 -9.083000e+00 1.100200e+01
      vertex 2.425100e+01 -6.361000e+00 1.100200e+01
      vertex 2.491100e+01 -1.619700e+01 1.100200e+01
    endloop
  endfacet
  facet normal 0.000000e+00 0.000000e+00 1.000000e+00
    outer loop
      vertex 3.987700e+01 -9.083000e+00 1.100200e+01
      vertex 2.491100e+01 -1.619700e+01 1.100200e+01
      vertex 3.296700e+01 -1.263100e+01 1.100200e+01
    endloop
  endfacet
  facet normal 0.000000e+00 0.000000e+00 1.000000e+00
    outer loop
      vertex 3.296700e+01 -1.263100e+01 1.100200e+01
      vertex 2.491100e+01 -1.619700e+01 1.100200e+01
      vertex 3.159500e+01 -1.933300e+01 1.100200e+01
    endloop
  endfacet
  facet normal 0.000000e+00 0.000000e+00 1.000000e+00
    outer loop
      vertex 3.159500e+01 -1.933300e+01 1.100200e+01
      vertex 2.491100e+01 -1.619700e+01 1.100200e+01
      vertex 2.557300e+01 -2.603700e+01 1.100200e+01
    endloop
  endfacet
  facet normal 0.000000e+00 0.000000e+00 1.000000e+00
    outer loop
      vertex 3.159500e+01 -1.933300e+01 1.100200e+01
      vertex 2.557300e+01 -2.603700e+01 1.100200e+01
      vertex 3.022100e+01 -2.603700e+01 1.100200e+01
    endloop
  endfacet
  facet normal 0.000000e+00 0.000000e+00 1.000000e+00
    outer loop
      vertex 3.022100e+01 -2.603700e+01 1.100200e+01
      vertex 2.557300e+01 -2.603700e+01 1.100200e+01
      vertex 2.020300e+01 -3.243100e+01 1.100200e+01
    endloop
  endfacet
  facet normal 0.000000e+00 0.000000e+00 1.000000e+00
    outer loop
      vertex 3.022100e+01 -2.603700e+01 1.100200e+01
      vertex 2.020300e+01 -3.243100e+01 1.100200e+01
      vertex 2.789700e+01 -2.923300e+01 1.100200e+01
    endloop
  endfacet
  facet normal 0.000000e+00 0.000000e+00 1.000000e+00
    outer loop
      vertex 2.789700e+01 -2.923300e+01 1.100200e+01
      vertex 2.020300e+01 -3.243100e+01 1.100200e+01
      vertex 2.180500e+01 -3.243100e+01 1.100200e+01
    endloop
  endfacet
  facet normal 0.000000e+00 0.000000e+00 1.000000e+00
    outer loop
      vertex 2.789700e+01 -2.923300e+01 1.100200e+01
      vertex 3.566500e+01 -3.243100e+01 1.100200e+01
      vertex 3.022100e+01 -2.603700e+01 1.100200e+01
    endloop
  endfacet
  facet normal 0.000000e+00 0.000000e+00 1.000000e+00
    outer loop
      vertex 3.566500e+01 -3.243100e+01 1.100200e+01
      vertex 2.789700e+01 -2.923300e+01 1.100200e+01
      vertex 3.430900e+01 -3.243100e+01 1.100200e+01
    endloop
  endfacet
  facet normal 4.647997e-01 -8.854159e-01 0.000000e+00
    outer loop
      vertex 2.789700e+01 -2.923300e+01 0.000000e+00
      vertex 2.180500e+01 -3.243100e+01 1.100200e+01
      vertex 2.180500e+01 -3.243100e+01 0.000000e+00
    endloop
  endfacet
  facet normal 4.647997e-01 -8.854159e-01 0.000000e+00
    outer loop
      vertex 2.180500e+01 -3.243100e+01 1.100200e+01
      vertex 2.789700e+01 -2.923300e+01 0.000000e+00
      vertex 2.789700e+01 -2.923300e+01 1.100200e+01
    endloop
  endfacet
  facet normal -7.543057e-01 6.565235e-01 -0.000000e+00
    outer loop
      vertex 3.238100e+01 6.839001e+00 1.100200e+01
      vertex 3.256900e+01 7.055001e+00 0.000000e+00
      vertex 3.238100e+01 6.839001e+00 0.000000e+00
    endloop
  endfacet
  facet normal -7.543057e-01 6.565235e-01 0.000000e+00
    outer loop
      vertex 3.256900e+01 7.055001e+00 0.000000e+00
      vertex 3.238100e+01 6.839001e+00 1.100200e+01
      vertex 3.256900e+01 7.055001e+00 1.100200e+01
    endloop
  endfacet
  facet normal 7.300705e-01 6.833719e-01 0.000000e+00
    outer loop
      vertex 3.396500e+01 -2.767000e+00 1.100200e+01
      vertex 3.987700e+01 -9.083000e+00 0.000000e+00
      vertex 3.396500e+01 -2.767000e+00 0.000000e+00
    endloop
  endfacet
  facet normal 7.300705e-01 6.833719e-01 0.000000e+00
    outer loop
      vertex 3.987700e+01 -9.083000e+00 0.000000e+00
      vertex 3.396500e+01 -2.767000e+00 1.100200e+01
      vertex 3.987700e+01 -9.083000e+00 1.100200e+01
    endloop
  endfacet
  facet normal -4.463202e-01 -8.948734e-01 0.000000e+00
    outer loop
      vertex 3.430900e+01 -3.243100e+01 0.000000e+00
      vertex 2.789700e+01 -2.923300e+01 1.100200e+01
      vertex 2.789700e+01 -2.923300e+01 0.000000e+00
    endloop
  endfacet
  facet normal -4.463202e-01 -8.948734e-01 0.000000e+00
    outer loop
      vertex 2.789700e+01 -2.923300e+01 1.100200e+01
      vertex 3.430900e+01 -3.243100e+01 0.000000e+00
      vertex 3.430900e+01 -3.243100e+01 1.100200e+01
    endloop
  endfacet
  facet normal -8.392938e-01 5.436782e-01 -0.000000e+00
    outer loop
      vertex 1.703900e+01 -9.509000e+00 1.100200e+01
      vertex 2.062900e+01 -3.967000e+00 0.000000e+00
      vertex 1.703900e+01 -9.509000e+00 0.000000e+00
    endloop
  endfacet
  facet normal -8.390660e-01 5.440297e-01 2.513843e-04
    outer loop
      vertex 1.703900e+01 -9.509000e+00 1.100200e+01
      vertex 2.422100e+01 1.573001e+00 0.000000e+00
      vertex 2.062900e+01 -3.967000e+00 0.000000e+00
    endloop
  endfacet
  facet normal -8.390659e-01 5.440297e-01 0.000000e+00
    outer loop
      vertex 2.422100e+01 1.573001e+00 0.000000e+00
      vertex 2.062900e+01 -3.967000e+00 1.100200e+01
      vertex 2.422100e+01 1.573001e+00 1.100200e+01
    endloop
  endfacet
  facet normal -8.392937e-01 5.436782e-01 -2.513618e-04
    outer loop
      vertex 2.422100e+01 1.573001e+00 0.000000e+00
      vertex 1.703900e+01 -9.509000e+00 1.100200e+01
      vertex 2.062900e+01 -3.967000e+00 1.100200e+01
    endloop
  endfacet
  facet normal -8.985670e-01 4.388366e-01 -0.000000e+00
    outer loop
      vertex 3.256900e+01 7.055001e+00 1.100200e+01
      vertex 3.269500e+01 7.313001e+00 0.000000e+00
      vertex 3.256900e+01 7.055001e+00 0.000000e+00
    endloop
  endfacet
  facet normal -8.985670e-01 4.388366e-01 0.000000e+00
    outer loop
      vertex 3.269500e+01 7.313001e+00 0.000000e+00
      vertex 3.256900e+01 7.055001e+00 1.100200e+01
      vertex 3.269500e+01 7.313001e+00 1.100200e+01
    endloop
  endfacet
  facet normal -9.821553e-01 1.880716e-01 -0.000000e+00
    outer loop
      vertex 3.269500e+01 7.313001e+00 1.100200e+01
      vertex 3.274900e+01 7.595001e+00 0.000000e+00
      vertex 3.269500e+01 7.313001e+00 0.000000e+00
    endloop
  endfacet
  facet normal -9.821553e-01 1.880716e-01 0.000000e+00
    outer loop
      vertex 3.274900e+01 7.595001e+00 0.000000e+00
      vertex 3.269500e+01 7.313001e+00 1.100200e+01
      vertex 3.274900e+01 7.595001e+00 1.100200e+01
    endloop
  endfacet
  facet normal 9.013052e-01 -4.331847e-01 0.000000e+00
    outer loop
      vertex 3.073900e+01 8.265001e+00 1.100200e+01
      vertex 3.061500e+01 8.007001e+00 0.000000e+00
      vertex 3.073900e+01 8.265001e+00 0.000000e+00
    endloop
  endfacet
  facet normal 9.013052e-01 -4.331847e-01 0.000000e+00
    outer loop
      vertex 3.061500e+01 8.007001e+00 0.000000e+00
      vertex 3.073900e+01 8.265001e+00 1.100200e+01
      vertex 3.061500e+01 8.007001e+00 1.100200e+01
    endloop
  endfacet
  facet normal 1.000000e+00 6.123234e-17 0.000000e+00
    outer loop
      vertex 3.396500e+01 3.117300e+01 0.000000e+00
      vertex 3.396500e+01 3.117300e+01 1.100200e+01
      vertex 3.396500e+01 1.420300e+01 5.500000e+00
    endloop
  endfacet
  facet normal 1.000000e+00 6.123234e-17 0.000000e+00
    outer loop
      vertex 3.396500e+01 1.420300e+01 5.500000e+00
      vertex 3.396500e+01 1.420300e+01 1.100200e+01
      vertex 3.396500e+01 -2.767000e+00 1.100200e+01
    endloop
  endfacet
  facet normal -1.000000e+00 -6.123234e-17 0.000000e+00
    outer loop
      vertex 2.422100e+01 1.573001e+00 1.100200e+01
      vertex 2.422100e+01 2.454300e+01 0.000000e+00
      vertex 2.422100e+01 1.573001e+00 0.000000e+00
    endloop
  endfacet
  facet normal -1.000000e+00 -6.123234e-17 0.000000e+00
    outer loop
      vertex 2.422100e+01 2.454300e+01 0.000000e+00
      vertex 2.422100e+01 1.573001e+00 1.100200e+01
      vertex 2.422100e+01 2.454300e+01 1.100200e+01
    endloop
  endfacet
  facet normal 9.821551e-01 -1.880726e-01 0.000000e+00
    outer loop
      vertex 3.061500e+01 8.007001e+00 1.100200e+01
      vertex 3.056100e+01 7.725001e+00 0.000000e+00
      vertex 3.061500e+01 8.007001e+00 0.000000e+00
    endloop
  endfacet
  facet normal 9.821551e-01 -1.880726e-01 0.000000e+00
    outer loop
      vertex 3.056100e+01 7.725001e+00 0.000000e+00
      vertex 3.061500e+01 8.007001e+00 1.100200e+01
      vertex 3.056100e+01 7.725001e+00 1.100200e+01
    endloop
  endfacet
  facet normal 7.543042e-01 -6.565251e-01 0.000000e+00
    outer loop
      vertex 3.092700e+01 8.481001e+00 1.100200e+01
      vertex 3.073900e+01 8.265001e+00 0.000000e+00
      vertex 3.092700e+01 8.481001e+00 0.000000e+00
    endloop
  endfacet
  facet normal 7.543042e-01 -6.565251e-01 0.000000e+00
    outer loop
      vertex 3.073900e+01 8.265001e+00 0.000000e+00
      vertex 3.092700e+01 8.481001e+00 1.100200e+01
      vertex 3.073900e+01 8.265001e+00 1.100200e+01
    endloop
  endfacet
  facet normal 9.975295e-01 7.024840e-02 0.000000e+00
    outer loop
      vertex 3.056100e+01 7.725001e+00 1.100200e+01
      vertex 3.058100e+01 7.441001e+00 0.000000e+00
      vertex 3.056100e+01 7.725001e+00 0.000000e+00
    endloop
  endfacet
  facet normal 9.975295e-01 7.024840e-02 0.000000e+00
    outer loop
      vertex 3.058100e+01 7.441001e+00 0.000000e+00
      vertex 3.056100e+01 7.725001e+00 1.100200e+01
      vertex 3.058100e+01 7.441001e+00 1.100200e+01
    endloop
  endfacet
  facet normal 7.614043e-01 6.482772e-01 0.000000e+00
    outer loop
      vertex 3.022100e+01 -2.603700e+01 1.100200e+01
      vertex 3.566500e+01 -3.243100e+01 0.000000e+00
      vertex 3.022100e+01 -2.603700e+01 0.000000e+00
    endloop
  endfacet
  facet normal 7.614043e-01 6.482772e-01 0.000000e+00
    outer loop
      vertex 3.566500e+01 -3.243100e+01 0.000000e+00
      vertex 3.022100e+01 -2.603700e+01 1.100200e+01
      vertex 3.566500e+01 -3.243100e+01 1.100200e+01
    endloop
  endfacet
  facet normal -9.977446e-01 -6.712468e-02 0.000000e+00
    outer loop
      vertex 2.557300e+01 -2.603700e+01 1.100200e+01
      vertex 2.491100e+01 -1.619700e+01 0.000000e+00
      vertex 2.557300e+01 -2.603700e+01 0.000000e+00
    endloop
  endfacet
  facet normal -9.977564e-01 -6.694992e-02 1.570024e-04
    outer loop
      vertex 2.491100e+01 -1.619700e+01 0.000000e+00
      vertex 2.557300e+01 -2.603700e+01 1.100200e+01
      vertex 2.425100e+01 -6.361000e+00 0.000000e+00
    endloop
  endfacet
  facet normal -9.977505e-01 -6.703732e-02 0.000000e+00
    outer loop
      vertex 2.425100e+01 -6.361000e+00 0.000000e+00
      vertex 2.557300e+01 -2.603700e+01 1.100200e+01
      vertex 2.425100e+01 -6.361000e+00 1.100200e+01
    endloop
  endfacet
  facet normal 0.000000e+00 0.000000e+00 -1.000000e+00
    outer loop
      vertex 2.425100e+01 -6.361000e+00 1.100200e+01
      vertex 2.557300e+01 -2.603700e+01 1.100200e+01
      vertex 2.491100e+01 -1.619700e+01 1.100200e+01
    endloop
  endfacet
  facet normal 4.359275e-01 8.999819e-01 0.000000e+00
    outer loop
      vertex 3.130700e+01 6.621001e+00 1.100200e+01
      vertex 3.105100e+01 6.745001e+00 0.000000e+00
      vertex 3.105100e+01 6.745001e+00 1.100200e+01
    endloop
  endfacet
  facet normal 4.359275e-01 8.999819e-01 0.000000e+00
    outer loop
      vertex 3.105100e+01 6.745001e+00 0.000000e+00
      vertex 3.130700e+01 6.621001e+00 1.100200e+01
      vertex 3.130700e+01 6.621001e+00 0.000000e+00
    endloop
  endfacet
  facet normal -9.970130e-01 -7.723381e-02 0.000000e+00
    outer loop
      vertex 3.274900e+01 7.595001e+00 1.100200e+01
      vertex 3.272700e+01 7.879001e+00 0.000000e+00
      vertex 3.274900e+01 7.595001e+00 0.000000e+00
    endloop
  endfacet
  facet normal -9.970130e-01 -7.723381e-02 0.000000e+00
    outer loop
      vertex 3.272700e+01 7.879001e+00 0.000000e+00
      vertex 3.274900e+01 7.595001e+00 1.100200e+01
      vertex 3.272700e+01 7.879001e+00 1.100200e+01
    endloop
  endfacet
  facet normal 8.244497e-01 5.659354e-01 0.000000e+00
    outer loop
      vertex 3.067300e+01 7.169001e+00 1.100200e+01
      vertex 3.083500e+01 6.933001e+00 0.000000e+00
      vertex 3.067300e+01 7.169001e+00 0.000000e+00
    endloop
  endfacet
  facet normal 8.244497e-01 5.659354e-01 0.000000e+00
    outer loop
      vertex 3.083500e+01 6.933001e+00 0.000000e+00
      vertex 3.067300e+01 7.169001e+00 1.100200e+01
      vertex 3.083500e+01 6.933001e+00 1.100200e+01
    endloop
  endfacet
  facet normal 5.579143e-01 -8.298985e-01 0.000000e+00
    outer loop
      vertex 3.116500e+01 8.641001e+00 0.000000e+00
      vertex 3.092700e+01 8.481001e+00 1.100200e+01
      vertex 3.092700e+01 8.481001e+00 0.000000e+00
    endloop
  endfacet
  facet normal 5.579143e-01 -8.298985e-01 0.000000e+00
    outer loop
      vertex 3.092700e+01 8.481001e+00 1.100200e+01
      vertex 3.116500e+01 8.641001e+00 0.000000e+00
      vertex 3.116500e+01 8.641001e+00 1.100200e+01
    endloop
  endfacet
  facet normal -6.525227e-01 -7.577692e-01 0.000000e+00
    outer loop
      vertex 3.247500e+01 8.387001e+00 0.000000e+00
      vertex 3.225900e+01 8.573001e+00 1.100200e+01
      vertex 3.225900e+01 8.573001e+00 0.000000e+00
    endloop
  endfacet
  facet normal -6.525227e-01 -7.577692e-01 0.000000e+00
    outer loop
      vertex 3.225900e+01 8.573001e+00 1.100200e+01
      vertex 3.247500e+01 8.387001e+00 0.000000e+00
      vertex 3.247500e+01 8.387001e+00 1.100200e+01
    endloop
  endfacet
  facet normal 9.472811e-01 3.204035e-01 0.000000e+00
    outer loop
      vertex 3.058100e+01 7.441001e+00 1.100200e+01
      vertex 3.067300e+01 7.169001e+00 0.000000e+00
      vertex 3.058100e+01 7.441001e+00 0.000000e+00
    endloop
  endfacet
  facet normal 9.472811e-01 3.204035e-01 0.000000e+00
    outer loop
      vertex 3.067300e+01 7.169001e+00 0.000000e+00
      vertex 3.058100e+01 7.441001e+00 1.100200e+01
      vertex 3.067300e+01 7.169001e+00 1.100200e+01
    endloop
  endfacet
  facet normal -8.298984e-01 -5.579146e-01 0.000000e+00
    outer loop
      vertex 3.263500e+01 8.149001e+00 1.100200e+01
      vertex 3.247500e+01 8.387001e+00 0.000000e+00
      vertex 3.263500e+01 8.149001e+00 0.000000e+00
    endloop
  endfacet
  facet normal -8.298984e-01 -5.579146e-01 0.000000e+00
    outer loop
      vertex 3.247500e+01 8.387001e+00 0.000000e+00
      vertex 3.263500e+01 8.149001e+00 1.100200e+01
      vertex 3.247500e+01 8.387001e+00 1.100200e+01
    endloop
  endfacet
  facet normal -9.465591e-01 -3.225307e-01 0.000000e+00
    outer loop
      vertex 3.272700e+01 7.879001e+00 1.100200e+01
      vertex 3.263500e+01 8.149001e+00 0.000000e+00
      vertex 3.272700e+01 7.879001e+00 0.000000e+00
    endloop
  endfacet
  facet normal -9.465591e-01 -3.225307e-01 0.000000e+00
    outer loop
      vertex 3.263500e+01 8.149001e+00 0.000000e+00
      vertex 3.272700e+01 7.879001e+00 1.100200e+01
      vertex 3.263500e+01 8.149001e+00 1.100200e+01
    endloop
  endfacet
  facet normal -7.723451e-02 9.970129e-01 0.000000e+00
    outer loop
      vertex 3.187300e+01 6.587001e+00 1.100200e+01
      vertex 3.158900e+01 6.565001e+00 0.000000e+00
      vertex 3.158900e+01 6.565001e+00 1.100200e+01
    endloop
  endfacet
  facet normal -7.723451e-02 9.970129e-01 0.000000e+00
    outer loop
      vertex 3.158900e+01 6.565001e+00 0.000000e+00
      vertex 3.187300e+01 6.587001e+00 1.100200e+01
      vertex 3.187300e+01 6.587001e+00 0.000000e+00
    endloop
  endfacet
  facet normal 1.947805e-01 9.808468e-01 0.000000e+00
    outer loop
      vertex 3.158900e+01 6.565001e+00 1.100200e+01
      vertex 3.130700e+01 6.621001e+00 0.000000e+00
      vertex 3.130700e+01 6.621001e+00 1.100200e+01
    endloop
  endfacet
  facet normal 1.947805e-01 9.808468e-01 0.000000e+00
    outer loop
      vertex 3.130700e+01 6.621001e+00 0.000000e+00
      vertex 3.158900e+01 6.565001e+00 1.100200e+01
      vertex 3.158900e+01 6.565001e+00 0.000000e+00
    endloop
  endfacet
  facet normal 4.567661e-01 -8.895868e-01 0.000000e+00
    outer loop
      vertex 3.987700e+01 -9.083000e+00 0.000000e+00
      vertex 3.296700e+01 -1.263100e+01 1.100200e+01
      vertex 3.296700e+01 -1.263100e+01 0.000000e+00
    endloop
  endfacet
  facet normal 4.567661e-01 -8.895868e-01 0.000000e+00
    outer loop
      vertex 3.296700e+01 -1.263100e+01 1.100200e+01
      vertex 3.987700e+01 -9.083000e+00 0.000000e+00
      vertex 3.987700e+01 -9.083000e+00 1.100200e+01
    endloop
  endfacet
  facet normal 9.796823e-01 -2.005557e-01 0.000000e+00
    outer loop
      vertex 3.296700e+01 -1.263100e+01 1.100200e+01
      vertex 3.159500e+01 -1.933300e+01 0.000000e+00
      vertex 3.296700e+01 -1.263100e+01 0.000000e+00
    endloop
  endfacet
  facet normal 9.796366e-01 -2.007787e-01 1.415997e-04
    outer loop
      vertex 3.159500e+01 -1.933300e+01 0.000000e+00
      vertex 3.296700e+01 -1.263100e+01 1.100200e+01
      vertex 3.022100e+01 -2.603700e+01 0.000000e+00
    endloop
  endfacet
  facet normal 9.796823e-01 -2.005557e-01 -1.416359e-04
    outer loop
      vertex 3.296700e+01 -1.263100e+01 1.100200e+01
      vertex 3.159500e+01 -1.933300e+01 1.100200e+01
      vertex 3.022100e+01 -2.603700e+01 0.000000e+00
    endloop
  endfacet
  facet normal 9.796366e-01 -2.007787e-01 0.000000e+00
    outer loop
      vertex 3.022100e+01 -2.603700e+01 1.100200e+01
      vertex 3.022100e+01 -2.603700e+01 0.000000e+00
      vertex 3.159500e+01 -1.933300e+01 1.100200e+01
    endloop
  endfacet
  facet normal -4.388362e-01 -8.985670e-01 0.000000e+00
    outer loop
      vertex 3.225900e+01 8.573001e+00 0.000000e+00
      vertex 3.200100e+01 8.699001e+00 1.100200e+01
      vertex 3.200100e+01 8.699001e+00 0.000000e+00
    endloop
  endfacet
  facet normal -4.388362e-01 -8.985670e-01 0.000000e+00
    outer loop
      vertex 3.200100e+01 8.699001e+00 1.100200e+01
      vertex 3.225900e+01 8.573001e+00 0.000000e+00
      vertex 3.225900e+01 8.573001e+00 1.100200e+01
    endloop
  endfacet
  facet normal -6.951256e-01 7.188883e-01 0.000000e+00
    outer loop
      vertex 3.396500e+01 3.117300e+01 1.100200e+01
      vertex 2.821700e+01 2.561500e+01 0.000000e+00
      vertex 2.821700e+01 2.561500e+01 1.100200e+01
    endloop
  endfacet
  facet normal -6.951256e-01 7.188883e-01 0.000000e+00
    outer loop
      vertex 2.821700e+01 2.561500e+01 0.000000e+00
      vertex 3.396500e+01 3.117300e+01 1.100200e+01
      vertex 3.396500e+01 3.117300e+01 0.000000e+00
    endloop
  endfacet
  facet normal -1.961153e-01 -9.805809e-01 0.000000e+00
    outer loop
      vertex 3.200100e+01 8.699001e+00 0.000000e+00
      vertex 3.172100e+01 8.755001e+00 1.100200e+01
      vertex 3.172100e+01 8.755001e+00 0.000000e+00
    endloop
  endfacet
  facet normal -1.961153e-01 -9.805809e-01 0.000000e+00
    outer loop
      vertex 3.172100e+01 8.755001e+00 1.100200e+01
      vertex 3.200100e+01 8.699001e+00 0.000000e+00
      vertex 3.200100e+01 8.699001e+00 1.100200e+01
    endloop
  endfacet
  facet normal 6.565238e-01 7.543053e-01 0.000000e+00
    outer loop
      vertex 3.105100e+01 6.745001e+00 1.100200e+01
      vertex 3.083500e+01 6.933001e+00 0.000000e+00
      vertex 3.083500e+01 6.933001e+00 1.100200e+01
    endloop
  endfacet
  facet normal 6.565238e-01 7.543053e-01 0.000000e+00
    outer loop
      vertex 3.083500e+01 6.933001e+00 0.000000e+00
      vertex 3.105100e+01 6.745001e+00 1.100200e+01
      vertex 3.105100e+01 6.745001e+00 0.000000e+00
    endloop
  endfacet
  facet normal 3.225312e-01 -9.465589e-01 0.000000e+00
    outer loop
      vertex 3.143500e+01 8.733001e+00 0.000000e+00
      vertex 3.116500e+01 8.641001e+00 1.100200e+01
      vertex 3.116500e+01 8.641001e+00 0.000000e+00
    endloop
  endfacet
  facet normal 3.225312e-01 -9.465589e-01 0.000000e+00
    outer loop
      vertex 3.116500e+01 8.641001e+00 1.100200e+01
      vertex 3.143500e+01 8.733001e+00 0.000000e+00
      vertex 3.143500e+01 8.733001e+00 1.100200e+01
    endloop
  endfacet
  facet normal 6.576001e-01 7.533672e-01 0.000000e+00
    outer loop
      vertex 2.721700e+01 1.744700e+01 1.100200e+01
      vertex 2.580100e+01 1.868300e+01 2.750000e+00
      vertex 2.580100e+01 1.868300e+01 1.100200e+01
    endloop
  endfacet
  facet normal 6.682661e-01 7.439153e-01 -3.245940e-03
    outer loop
      vertex 2.580100e+01 1.868300e+01 2.750000e+00
      vertex 2.721700e+01 1.744700e+01 1.100200e+01
      vertex 2.580100e+01 1.867100e+01 0.000000e+00
    endloop
  endfacet
  facet normal 6.539539e-01 7.565344e-01 0.000000e+00
    outer loop
      vertex 2.580100e+01 1.867100e+01 0.000000e+00
      vertex 2.721700e+01 1.744700e+01 1.100200e+01
      vertex 2.721700e+01 1.744700e+01 0.000000e+00
    endloop
  endfacet
  facet normal 1.000000e+00 6.123234e-17 0.000000e+00
    outer loop
      vertex 3.396500e+01 1.420300e+01 5.500000e+00
      vertex 3.396500e+01 1.420300e+01 0.000000e+00
      vertex 3.396500e+01 3.117300e+01 0.000000e+00
    endloop
  endfacet
  facet normal 1.000000e+00 6.123234e-17 0.000000e+00
    outer loop
      vertex 3.396500e+01 -2.767000e+00 1.100200e+01
      vertex 3.396500e+01 -2.767000e+00 0.000000e+00
      vertex 3.396500e+01 1.420300e+01 5.500000e+00
    endloop
  endfacet
  facet normal 0.000000e+00 0.000000e+00 -1.000000e+00
    outer loop
      vertex 3.272700e+01 7.879001e+00 0.000000e+00
      vertex 3.396500e+01 1.420300e+01 0.000000e+00
      vertex 3.396500e+01 -2.767000e+00 0.000000e+00
    endloop
  endfacet
  facet normal 1.000000e+00 6.123234e-17 0.000000e+00
    outer loop
      vertex 3.396500e+01 1.420300e+01 5.500000e+00
      vertex 3.396500e+01 -2.767000e+00 0.000000e+00
      vertex 3.396500e+01 1.420300e+01 0.000000e+00
    endloop
  endfacet
  facet normal 0.000000e+00 0.000000e+00 1.000000e+00
    outer loop
      vertex 3.272700e+01 7.879001e+00 1.100200e+01
      vertex 3.396500e+01 1.420300e+01 1.100200e+01
      vertex 3.396500e+01 3.117300e+01 1.100200e+01
    endloop
  endfacet
  facet normal 1.000000e+00 6.123234e-17 0.000000e+00
    outer loop
      vertex 3.396500e+01 1.420300e+01 5.500000e+00
      vertex 3.396500e+01 3.117300e+01 1.100200e+01
      vertex 3.396500e+01 1.420300e+01 1.100200e+01
    endloop
  endfacet
  facet normal 0.000000e+00 0.000000e+00 1.000000e+00
    outer loop
      vertex 1.703900e+01 -9.509000e+00 1.100200e+01
      vertex 2.425100e+01 -6.361000e+00 1.100200e+01
      vertex 2.062900e+01 -3.967000e+00 1.100200e+01
    endloop
  endfacet
  facet normal 0.000000e+00 0.000000e+00 1.000000e+00
    outer loop
      vertex 3.396500e+01 -2.767000e+00 1.100200e+01
      vertex 2.062900e+01 -3.967000e+00 1.100200e+01
      vertex 2.425100e+01 -6.361000e+00 1.100200e+01
    endloop
  endfacet
  facet normal 0.000000e+00 0.000000e+00 1.000000e+00
    outer loop
      vertex 3.396500e+01 -2.767000e+00 1.100200e+01
      vertex 2.425100e+01 -6.361000e+00 1.100200e+01
      vertex 3.987700e+01 -9.083000e+00 1.100200e+01
    endloop
  endfacet
  facet normal 0.000000e+00 0.000000e+00 1.000000e+00
    outer loop
      vertex 2.062900e+01 -3.967000e+00 1.100200e+01
      vertex 3.396500e+01 -2.767000e+00 1.100200e+01
      vertex 2.422100e+01 1.573001e+00 1.100200e+01
    endloop
  endfacet
endsolid Default
