solid Default
  facet normal -6.671465e-01 7.449265e-01 0.000000e+00
    outer loop
      vertex -2.024500e+01 -2.367300e+01 0.000000e+00
      vertex -1.888500e+01 -2.245500e+01 1.100200e+01
      vertex -1.888500e+01 -2.245500e+01 0.000000e+00
    endloop
  endfacet
  facet normal -6.671465e-01 7.449265e-01 0.000000e+00
    outer loop
      vertex -1.888500e+01 -2.245500e+01 1.100200e+01
      vertex -2.024500e+01 -2.367300e+01 0.000000e+00
      vertex -2.024500e+01 -2.367300e+01 1.100200e+01
    endloop
  endfacet
  facet normal 7.192509e-01 -6.947504e-01 -0.000000e+00
    outer loop
      vertex -1.730500e+01 -2.580100e+01 1.100200e+01
      vertex -1.889300e+01 -2.744500e+01 0.000000e+00
      vertex -1.730500e+01 -2.580100e+01 0.000000e+00
    endloop
  endfacet
  facet normal 7.192509e-01 -6.947504e-01 0.000000e+00
    outer loop
      vertex -1.889300e+01 -2.744500e+01 0.000000e+00
      vertex -1.730500e+01 -2.580100e+01 1.100200e+01
      vertex -1.889300e+01 -2.744500e+01 1.100200e+01
    endloop
  endfacet
  facet normal 7.065528e-01 -7.076603e-01 0.000000e+00
    outer loop
      vertex -2.262100e+01 -1.565100e+01 1.100200e+01
      vertex -2.134300e+01 -1.437500e+01 0.000000e+00
      vertex -2.134300e+01 -1.437500e+01 1.100200e+01
    endloop
  endfacet
  facet normal 7.065528e-01 -7.076603e-01 0.000000e+00
    outer loop
      vertex -2.134300e+01 -1.437500e+01 0.000000e+00
      vertex -2.262100e+01 -1.565100e+01 1.100200e+01
      vertex -2.262100e+01 -1.565100e+01 0.000000e+00
    endloop
  endfacet
  facet normal -6.745614e-01 7.382187e-01 0.000000e+00
    outer loop
      vertex -2.033300e+01 -1.374900e+01 0.000000e+00
      vertex -1.889500e+01 -1.243500e+01 1.100200e+01
      vertex -1.889500e+01 -1.243500e+01 0.000000e+00
    endloop
  endfacet
  facet normal -6.745614e-01 7.382187e-01 0.000000e+00
    outer loop
      vertex -1.889500e+01 -1.243500e+01 1.100200e+01
      vertex -2.033300e+01 -1.374900e+01 0.000000e+00
      vertex -2.033300e+01 -1.374900e+01 1.100200e+01
    endloop
  endfacet
  facet normal 7.119740e-01 -7.022059e-01 -0.000000e+00
    outer loop
      vertex -2.132700e+01 -2.429900e+01 1.100200e+01
      vertex -2.262100e+01 -2.561100e+01 0.000000e+00
      vertex -2.132700e+01 -2.429900e+01 0.000000e+00
    endloop
  endfacet
  facet normal 7.119740e-01 -7.022059e-01 0.000000e+00
    outer loop
      vertex -2.262100e+01 -2.561100e+01 0.000000e+00
      vertex -2.132700e+01 -2.429900e+01 1.100200e+01
      vertex -2.262100e+01 -2.561100e+01 1.100200e+01
    endloop
  endfacet
  facet normal 6.879601e-01 7.257485e-01 0.000000e+00
    outer loop
      vertex -2.262100e+01 -2.064300e+01 0.000000e+00
      vertex -2.131500e+01 -2.188100e+01 1.100200e+01
      vertex -2.131500e+01 -2.188100e+01 0.000000e+00
    endloop
  endfacet
  facet normal 6.879601e-01 7.257485e-01 0.000000e+00
    outer loop
      vertex -2.131500e+01 -2.188100e+01 1.100200e+01
      vertex -2.262100e+01 -2.064300e+01 0.000000e+00
      vertex -2.262100e+01 -2.064300e+01 1.100200e+01
    endloop
  endfacet
  facet normal -6.342838e-01 -7.731004e-01 0.000000e+00
    outer loop
      vertex -2.033300e+01 -1.374900e+01 1.100200e+01
      vertex -1.888500e+01 -1.493700e+01 0.000000e+00
      vertex -1.888500e+01 -1.493700e+01 1.100200e+01
    endloop
  endfacet
  facet normal -6.342838e-01 -7.731004e-01 0.000000e+00
    outer loop
      vertex -1.888500e+01 -1.493700e+01 0.000000e+00
      vertex -2.033300e+01 -1.374900e+01 1.100200e+01
      vertex -2.033300e+01 -1.374900e+01 0.000000e+00
    endloop
  endfacet
  facet normal 6.123234e-17 1.000000e+00 0.000000e+00
    outer loop
      vertex -2.874900e+01 3.117300e+01 0.000000e+00
      vertex -2.739300e+01 3.117300e+01 1.100200e+01
      vertex -2.739300e+01 3.117300e+01 0.000000e+00
    endloop
  endfacet
  facet normal 6.123234e-17 1.000000e+00 0.000000e+00
    outer loop
      vertex -2.739300e+01 3.117300e+01 1.100200e+01
      vertex -2.874900e+01 3.117300e+01 0.000000e+00
      vertex -2.874900e+01 3.117300e+01 1.100200e+01
    endloop
  endfacet
  facet normal -7.669758e-02 9.970544e-01 0.000000e+00
    outer loop
      vertex -2.480500e+01 -1.001300e+01 0.000000e+00
      vertex -2.451900e+01 -9.991000e+00 1.100200e+01
      vertex -2.451900e+01 -9.991000e+00 0.000000e+00
    endloop
  endfacet
  facet normal -7.669758e-02 9.970544e-01 0.000000e+00
    outer loop
      vertex -2.451900e+01 -9.991000e+00 1.100200e+01
      vertex -2.480500e+01 -1.001300e+01 0.000000e+00
      vertex -2.480500e+01 -1.001300e+01 1.100200e+01
    endloop
  endfacet
  facet normal -6.465219e-01 -7.628955e-01 0.000000e+00
    outer loop
      vertex -2.030100e+01 -2.125500e+01 1.100200e+01
      vertex -1.888500e+01 -2.245500e+01 0.000000e+00
      vertex -1.888500e+01 -2.245500e+01 1.100200e+01
    endloop
  endfacet
  facet normal -6.465219e-01 -7.628955e-01 0.000000e+00
    outer loop
      vertex -1.888500e+01 -2.245500e+01 0.000000e+00
      vertex -2.030100e+01 -2.125500e+01 1.100200e+01
      vertex -2.030100e+01 -2.125500e+01 0.000000e+00
    endloop
  endfacet
  facet normal -6.835260e-01 7.299192e-01 3.184873e-03
    outer loop
      vertex -2.030100e+01 -2.125500e+01 0.000000e+00
      vertex -1.888500e+01 -1.994100e+01 2.750000e+00
      vertex -1.888500e+01 -1.992900e+01 0.000000e+00
    endloop
  endfacet
  facet normal -6.802130e-01 7.330145e-01 0.000000e+00
    outer loop
      vertex -1.888500e+01 -1.994100e+01 2.750000e+00
      vertex -2.030100e+01 -2.125500e+01 0.000000e+00
      vertex -1.888500e+01 -1.994100e+01 1.100200e+01
    endloop
  endfacet
  facet normal -6.802131e-01 7.330145e-01 0.000000e+00
    outer loop
      vertex -1.888500e+01 -1.994100e+01 1.100200e+01
      vertex -2.030100e+01 -2.125500e+01 0.000000e+00
      vertex -2.030100e+01 -2.125500e+01 1.100200e+01
    endloop
  endfacet
  facet normal -4.000454e-01 9.164953e-01 0.000000e+00
    outer loop
      vertex -1.733500e+01 5.103000e+00 0.000000e+00
      vertex -1.012300e+01 8.251000e+00 1.100200e+01
      vertex -1.012300e+01 8.251000e+00 0.000000e+00
    endloop
  endfacet
  facet normal -4.000454e-01 9.164953e-01 0.000000e+00
    outer loop
      vertex -1.012300e+01 8.251000e+00 1.100200e+01
      vertex -1.733500e+01 5.103000e+00 0.000000e+00
      vertex -1.733500e+01 5.103000e+00 1.100200e+01
    endloop
  endfacet
  facet normal -6.761174e-01 -7.367940e-01 0.000000e+00
    outer loop
      vertex -2.024500e+01 -2.367300e+01 1.100200e+01
      vertex -1.888500e+01 -2.492100e+01 0.000000e+00
      vertex -1.888500e+01 -2.492100e+01 1.100200e+01
    endloop
  endfacet
  facet normal -6.761174e-01 -7.367940e-01 0.000000e+00
    outer loop
      vertex -1.888500e+01 -2.492100e+01 0.000000e+00
      vertex -2.024500e+01 -2.367300e+01 1.100200e+01
      vertex -2.024500e+01 -2.367300e+01 0.000000e+00
    endloop
  endfacet
  facet normal 6.965588e-01 -7.174997e-01 0.000000e+00
    outer loop
      vertex -2.262100e+01 -1.814100e+01 1.100200e+01
      vertex -2.131900e+01 -1.687700e+01 0.000000e+00
      vertex -2.131900e+01 -1.687700e+01 1.100200e+01
    endloop
  endfacet
  facet normal 6.965588e-01 -7.174997e-01 0.000000e+00
    outer loop
      vertex -2.131900e+01 -1.687700e+01 0.000000e+00
      vertex -2.262100e+01 -1.814100e+01 1.100200e+01
      vertex -2.262100e+01 -1.814100e+01 0.000000e+00
    endloop
  endfacet
  facet normal 6.922734e-01 7.216353e-01 0.000000e+00
    outer loop
      vertex -2.262100e+01 -1.314900e+01 0.000000e+00
      vertex -2.134300e+01 -1.437500e+01 1.100200e+01
      vertex -2.134300e+01 -1.437500e+01 0.000000e+00
    endloop
  endfacet
  facet normal 6.922734e-01 7.216353e-01 0.000000e+00
    outer loop
      vertex -2.134300e+01 -1.437500e+01 1.100200e+01
      vertex -2.262100e+01 -1.314900e+01 0.000000e+00
      vertex -2.262100e+01 -1.314900e+01 1.100200e+01
    endloop
  endfacet
  facet normal 7.657616e-01 -6.431247e-01 -0.000000e+00
    outer loop
      vertex -1.328700e+01 3.117300e+01 1.100200e+01
      vertex -1.865700e+01 2.477900e+01 0.000000e+00
      vertex -1.328700e+01 3.117300e+01 0.000000e+00
    endloop
  endfacet
  facet normal 7.657616e-01 -6.431247e-01 0.000000e+00
    outer loop
      vertex -1.865700e+01 2.477900e+01 0.000000e+00
      vertex -1.328700e+01 3.117300e+01 1.100200e+01
      vertex -1.865700e+01 2.477900e+01 1.100200e+01
    endloop
  endfacet
  facet normal 6.920256e-01 -7.218729e-01 0.000000e+00
    outer loop
      vertex -2.262100e+01 -2.313300e+01 1.100200e+01
      vertex -2.131500e+01 -2.188100e+01 0.000000e+00
      vertex -2.131500e+01 -2.188100e+01 1.100200e+01
    endloop
  endfacet
  facet normal 6.920256e-01 -7.218729e-01 0.000000e+00
    outer loop
      vertex -2.131500e+01 -2.188100e+01 0.000000e+00
      vertex -2.262100e+01 -2.313300e+01 1.100200e+01
      vertex -2.262100e+01 -2.313300e+01 0.000000e+00
    endloop
  endfacet
  facet normal 0.000000e+00 0.000000e+00 -1.000000e+00
    outer loop
      vertex -2.021100e+01 -2.624900e+01 0.000000e+00
      vertex -1.730500e+01 -2.580100e+01 0.000000e+00
      vertex -1.889300e+01 -2.744500e+01 0.000000e+00
    endloop
  endfacet
  facet normal 0.000000e+00 0.000000e+00 -1.000000e+00
    outer loop
      vertex -1.730500e+01 -2.580100e+01 0.000000e+00
      vertex -2.021100e+01 -2.624900e+01 0.000000e+00
      vertex -1.888500e+01 -2.492100e+01 0.000000e+00
    endloop
  endfacet
  facet normal 0.000000e+00 0.000000e+00 -1.000000e+00
    outer loop
      vertex -1.730500e+01 -2.580100e+01 0.000000e+00
      vertex -1.888500e+01 -2.492100e+01 0.000000e+00
      vertex -1.730500e+01 -2.831000e+00 0.000000e+00
    endloop
  endfacet
  facet normal 0.000000e+00 0.000000e+00 -1.000000e+00
    outer loop
      vertex -1.730500e+01 -2.831000e+00 0.000000e+00
      vertex -1.888500e+01 -2.492100e+01 0.000000e+00
      vertex -1.888500e+01 -2.245500e+01 0.000000e+00
    endloop
  endfacet
  facet normal 0.000000e+00 0.000000e+00 -1.000000e+00
    outer loop
      vertex -1.888500e+01 -2.245500e+01 0.000000e+00
      vertex -1.888500e+01 -2.492100e+01 0.000000e+00
      vertex -2.024500e+01 -2.367300e+01 0.000000e+00
    endloop
  endfacet
  facet normal 0.000000e+00 0.000000e+00 -1.000000e+00
    outer loop
      vertex -1.730500e+01 -2.831000e+00 0.000000e+00
      vertex -1.888500e+01 -2.245500e+01 0.000000e+00
      vertex -1.888500e+01 -1.992900e+01 0.000000e+00
    endloop
  endfacet
  facet normal 0.000000e+00 0.000000e+00 -1.000000e+00
    outer loop
      vertex -1.888500e+01 -1.992900e+01 0.000000e+00
      vertex -1.888500e+01 -2.245500e+01 0.000000e+00
      vertex -2.030100e+01 -2.125500e+01 0.000000e+00
    endloop
  endfacet
  facet normal 0.000000e+00 0.000000e+00 -1.000000e+00
    outer loop
      vertex -1.730500e+01 -2.831000e+00 0.000000e+00
      vertex -1.888500e+01 -1.992900e+01 0.000000e+00
      vertex -1.888500e+01 -1.742500e+01 0.000000e+00
    endloop
  endfacet
  facet normal 0.000000e+00 0.000000e+00 -1.000000e+00
    outer loop
      vertex -1.888500e+01 -1.742500e+01 0.000000e+00
      vertex -1.888500e+01 -1.992900e+01 0.000000e+00
      vertex -2.030100e+01 -1.870500e+01 0.000000e+00
    endloop
  endfacet
  facet normal 0.000000e+00 0.000000e+00 -1.000000e+00
    outer loop
      vertex -1.730500e+01 -2.831000e+00 0.000000e+00
      vertex -1.888500e+01 -1.742500e+01 0.000000e+00
      vertex -1.888500e+01 -1.493700e+01 0.000000e+00
    endloop
  endfacet
  facet normal 0.000000e+00 0.000000e+00 -1.000000e+00
    outer loop
      vertex -1.888500e+01 -1.493700e+01 0.000000e+00
      vertex -1.888500e+01 -1.742500e+01 0.000000e+00
      vertex -2.033300e+01 -1.625100e+01 0.000000e+00
    endloop
  endfacet
  facet normal 0.000000e+00 0.000000e+00 -1.000000e+00
    outer loop
      vertex -1.730500e+01 -2.831000e+00 0.000000e+00
      vertex -1.888500e+01 -1.493700e+01 0.000000e+00
      vertex -1.889500e+01 -1.243500e+01 0.000000e+00
    endloop
  endfacet
  facet normal -0.000000e+00 0.000000e+00 -1.000000e+00
    outer loop
      vertex -1.889500e+01 -1.243500e+01 0.000000e+00
      vertex -1.888500e+01 -1.493700e+01 0.000000e+00
      vertex -2.033300e+01 -1.374900e+01 0.000000e+00
    endloop
  endfacet
  facet normal 0.000000e+00 0.000000e+00 -1.000000e+00
    outer loop
      vertex -1.730500e+01 -2.831000e+00 0.000000e+00
      vertex -1.889500e+01 -1.243500e+01 0.000000e+00
      vertex -2.043500e+01 -1.091100e+01 0.000000e+00
    endloop
  endfacet
  facet normal 0.000000e+00 0.000000e+00 -1.000000e+00
    outer loop
      vertex -1.730500e+01 -2.831000e+00 0.000000e+00
      vertex -2.043500e+01 -1.091100e+01 0.000000e+00
      vertex -2.401100e+01 -9.739000e+00 0.000000e+00
    endloop
  endfacet
  facet normal -0.000000e+00 0.000000e+00 -1.000000e+00
    outer loop
      vertex -2.401100e+01 -9.739000e+00 0.000000e+00
      vertex -2.043500e+01 -1.091100e+01 0.000000e+00
      vertex -2.424900e+01 -9.899000e+00 0.000000e+00
    endloop
  endfacet
  facet normal -0.000000e+00 0.000000e+00 -1.000000e+00
    outer loop
      vertex -2.424900e+01 -9.899000e+00 0.000000e+00
      vertex -2.043500e+01 -1.091100e+01 0.000000e+00
      vertex -2.451900e+01 -9.991000e+00 0.000000e+00
    endloop
  endfacet
  facet normal -0.000000e+00 0.000000e+00 -1.000000e+00
    outer loop
      vertex -2.451900e+01 -9.991000e+00 0.000000e+00
      vertex -2.043500e+01 -1.091100e+01 0.000000e+00
      vertex -2.480500e+01 -1.001300e+01 0.000000e+00
    endloop
  endfacet
  facet normal 0.000000e+00 0.000000e+00 -1.000000e+00
    outer loop
      vertex -1.730500e+01 -2.831000e+00 0.000000e+00
      vertex -2.401100e+01 -9.739000e+00 0.000000e+00
      vertex -2.382300e+01 -9.523001e+00 0.000000e+00
    endloop
  endfacet
  facet normal 0.000000e+00 0.000000e+00 -1.000000e+00
    outer loop
      vertex -1.730500e+01 -2.831000e+00 0.000000e+00
      vertex -2.382300e+01 -9.523001e+00 0.000000e+00
      vertex -2.369900e+01 -9.265000e+00 0.000000e+00
    endloop
  endfacet
  facet normal 0.000000e+00 0.000000e+00 -1.000000e+00
    outer loop
      vertex -1.730500e+01 -2.831000e+00 0.000000e+00
      vertex -2.369900e+01 -9.265000e+00 0.000000e+00
      vertex -2.364500e+01 -8.983001e+00 0.000000e+00
    endloop
  endfacet
  facet normal 0.000000e+00 0.000000e+00 -1.000000e+00
    outer loop
      vertex -1.730500e+01 -2.831000e+00 0.000000e+00
      vertex -2.364500e+01 -8.983001e+00 0.000000e+00
      vertex -2.366500e+01 -8.699000e+00 0.000000e+00
    endloop
  endfacet
  facet normal 0.000000e+00 0.000000e+00 -1.000000e+00
    outer loop
      vertex -1.730500e+01 -2.831000e+00 0.000000e+00
      vertex -2.366500e+01 -8.699000e+00 0.000000e+00
      vertex -2.375700e+01 -8.427000e+00 0.000000e+00
    endloop
  endfacet
  facet normal 0.000000e+00 0.000000e+00 -1.000000e+00
    outer loop
      vertex -1.730500e+01 -2.831000e+00 0.000000e+00
      vertex -2.375700e+01 -8.427000e+00 0.000000e+00
      vertex -2.391900e+01 -8.191000e+00 0.000000e+00
    endloop
  endfacet
  facet normal 0.000000e+00 0.000000e+00 -1.000000e+00
    outer loop
      vertex -1.730500e+01 -2.831000e+00 0.000000e+00
      vertex -2.391900e+01 -8.191000e+00 0.000000e+00
      vertex -2.413500e+01 -8.003000e+00 0.000000e+00
    endloop
  endfacet
  facet normal 0.000000e+00 0.000000e+00 -1.000000e+00
    outer loop
      vertex -1.730500e+01 -2.831000e+00 0.000000e+00
      vertex -2.413500e+01 -8.003000e+00 0.000000e+00
      vertex -2.439100e+01 -7.879001e+00 0.000000e+00
    endloop
  endfacet
  facet normal 0.000000e+00 0.000000e+00 -1.000000e+00
    outer loop
      vertex -1.730500e+01 -2.831000e+00 0.000000e+00
      vertex -2.439100e+01 -7.879001e+00 0.000000e+00
      vertex -2.467300e+01 -7.823000e+00 0.000000e+00
    endloop
  endfacet
  facet normal 0.000000e+00 0.000000e+00 -1.000000e+00
    outer loop
      vertex -2.704900e+01 -3.243100e+01 0.000000e+00
      vertex -2.262100e+01 -2.561100e+01 0.000000e+00
      vertex -2.130100e+01 -2.687300e+01 0.000000e+00
    endloop
  endfacet
  facet normal 0.000000e+00 0.000000e+00 -1.000000e+00
    outer loop
      vertex -2.262100e+01 -2.561100e+01 0.000000e+00
      vertex -2.704900e+01 -3.243100e+01 0.000000e+00
      vertex -2.581100e+01 -9.137000e+00 0.000000e+00
    endloop
  endfacet
  facet normal 0.000000e+00 0.000000e+00 -1.000000e+00
    outer loop
      vertex -2.581100e+01 -9.137000e+00 0.000000e+00
      vertex -2.704900e+01 -3.243100e+01 0.000000e+00
      vertex -2.704900e+01 -1.546100e+01 0.000000e+00
    endloop
  endfacet
  facet normal 0.000000e+00 0.000000e+00 -1.000000e+00
    outer loop
      vertex -2.262100e+01 -2.561100e+01 0.000000e+00
      vertex -2.581100e+01 -9.137000e+00 0.000000e+00
      vertex -2.262100e+01 -2.313300e+01 0.000000e+00
    endloop
  endfacet
  facet normal 0.000000e+00 0.000000e+00 -1.000000e+00
    outer loop
      vertex -2.262100e+01 -2.561100e+01 0.000000e+00
      vertex -2.262100e+01 -2.313300e+01 0.000000e+00
      vertex -2.132700e+01 -2.429900e+01 0.000000e+00
    endloop
  endfacet
  facet normal 0.000000e+00 0.000000e+00 -1.000000e+00
    outer loop
      vertex -2.262100e+01 -2.313300e+01 0.000000e+00
      vertex -2.581100e+01 -9.137000e+00 0.000000e+00
      vertex -2.262100e+01 -2.064300e+01 0.000000e+00
    endloop
  endfacet
  facet normal 0.000000e+00 0.000000e+00 -1.000000e+00
    outer loop
      vertex -2.262100e+01 -2.313300e+01 0.000000e+00
      vertex -2.262100e+01 -2.064300e+01 0.000000e+00
      vertex -2.131500e+01 -2.188100e+01 0.000000e+00
    endloop
  endfacet
  facet normal 0.000000e+00 0.000000e+00 -1.000000e+00
    outer loop
      vertex -2.262100e+01 -2.064300e+01 0.000000e+00
      vertex -2.581100e+01 -9.137000e+00 0.000000e+00
      vertex -2.571900e+01 -9.407001e+00 0.000000e+00
    endloop
  endfacet
  facet normal 0.000000e+00 0.000000e+00 -1.000000e+00
    outer loop
      vertex -2.262100e+01 -2.064300e+01 0.000000e+00
      vertex -2.571900e+01 -9.407001e+00 0.000000e+00
      vertex -2.262100e+01 -1.814100e+01 0.000000e+00
    endloop
  endfacet
  facet normal 0.000000e+00 0.000000e+00 -1.000000e+00
    outer loop
      vertex -2.262100e+01 -2.064300e+01 0.000000e+00
      vertex -2.262100e+01 -1.814100e+01 0.000000e+00
      vertex -2.131900e+01 -1.933100e+01 0.000000e+00
    endloop
  endfacet
  facet normal 0.000000e+00 0.000000e+00 -1.000000e+00
    outer loop
      vertex -2.262100e+01 -1.814100e+01 0.000000e+00
      vertex -2.571900e+01 -9.407001e+00 0.000000e+00
      vertex -2.262100e+01 -1.565100e+01 0.000000e+00
    endloop
  endfacet
  facet normal 0.000000e+00 0.000000e+00 -1.000000e+00
    outer loop
      vertex -2.262100e+01 -1.814100e+01 0.000000e+00
      vertex -2.262100e+01 -1.565100e+01 0.000000e+00
      vertex -2.131900e+01 -1.687700e+01 0.000000e+00
    endloop
  endfacet
  facet normal 0.000000e+00 0.000000e+00 -1.000000e+00
    outer loop
      vertex -2.262100e+01 -1.565100e+01 0.000000e+00
      vertex -2.571900e+01 -9.407001e+00 0.000000e+00
      vertex -2.555900e+01 -9.645000e+00 0.000000e+00
    endloop
  endfacet
  facet normal 0.000000e+00 0.000000e+00 -1.000000e+00
    outer loop
      vertex -2.262100e+01 -1.565100e+01 0.000000e+00
      vertex -2.555900e+01 -9.645000e+00 0.000000e+00
      vertex -2.262100e+01 -1.314900e+01 0.000000e+00
    endloop
  endfacet
  facet normal 0.000000e+00 0.000000e+00 -1.000000e+00
    outer loop
      vertex -2.262100e+01 -1.565100e+01 0.000000e+00
      vertex -2.262100e+01 -1.314900e+01 0.000000e+00
      vertex -2.134300e+01 -1.437500e+01 0.000000e+00
    endloop
  endfacet
  facet normal 0.000000e+00 0.000000e+00 -1.000000e+00
    outer loop
      vertex -2.262100e+01 -1.314900e+01 0.000000e+00
      vertex -2.555900e+01 -9.645000e+00 0.000000e+00
      vertex -2.534300e+01 -9.831000e+00 0.000000e+00
    endloop
  endfacet
  facet normal 0.000000e+00 0.000000e+00 -1.000000e+00
    outer loop
      vertex -2.262100e+01 -1.314900e+01 0.000000e+00
      vertex -2.534300e+01 -9.831000e+00 0.000000e+00
      vertex -2.508500e+01 -9.957001e+00 0.000000e+00
    endloop
  endfacet
  facet normal 0.000000e+00 0.000000e+00 -1.000000e+00
    outer loop
      vertex -2.262100e+01 -1.314900e+01 0.000000e+00
      vertex -2.508500e+01 -9.957001e+00 0.000000e+00
      vertex -2.043500e+01 -1.091100e+01 0.000000e+00
    endloop
  endfacet
  facet normal 0.000000e+00 0.000000e+00 -1.000000e+00
    outer loop
      vertex -2.043500e+01 -1.091100e+01 0.000000e+00
      vertex -2.508500e+01 -9.957001e+00 0.000000e+00
      vertex -2.480500e+01 -1.001300e+01 0.000000e+00
    endloop
  endfacet
  facet normal 0.000000e+00 0.000000e+00 -1.000000e+00
    outer loop
      vertex -2.581100e+01 -9.137000e+00 0.000000e+00
      vertex -2.704900e+01 1.509000e+00 0.000000e+00
      vertex -2.583300e+01 -8.853001e+00 0.000000e+00
    endloop
  endfacet
  facet normal 0.000000e+00 0.000000e+00 -1.000000e+00
    outer loop
      vertex -2.583300e+01 -8.853001e+00 0.000000e+00
      vertex -2.704900e+01 1.509000e+00 0.000000e+00
      vertex -2.577900e+01 -8.571000e+00 0.000000e+00
    endloop
  endfacet
  facet normal 0.000000e+00 0.000000e+00 -1.000000e+00
    outer loop
      vertex -2.577900e+01 -8.571000e+00 0.000000e+00
      vertex -2.704900e+01 1.509000e+00 0.000000e+00
      vertex -2.565300e+01 -8.313001e+00 0.000000e+00
    endloop
  endfacet
  facet normal 0.000000e+00 0.000000e+00 -1.000000e+00
    outer loop
      vertex -2.565300e+01 -8.313001e+00 0.000000e+00
      vertex -2.704900e+01 1.509000e+00 0.000000e+00
      vertex -2.546500e+01 -8.097000e+00 0.000000e+00
    endloop
  endfacet
  facet normal 0.000000e+00 0.000000e+00 -1.000000e+00
    outer loop
      vertex -2.546500e+01 -8.097000e+00 0.000000e+00
      vertex -2.704900e+01 1.509000e+00 0.000000e+00
      vertex -2.522900e+01 -7.937000e+00 0.000000e+00
    endloop
  endfacet
  facet normal 0.000000e+00 0.000000e+00 -1.000000e+00
    outer loop
      vertex -2.522900e+01 -7.937000e+00 0.000000e+00
      vertex -2.704900e+01 1.509000e+00 0.000000e+00
      vertex -2.495700e+01 -7.845000e+00 0.000000e+00
    endloop
  endfacet
  facet normal 0.000000e+00 0.000000e+00 -1.000000e+00
    outer loop
      vertex -2.495700e+01 -7.845000e+00 0.000000e+00
      vertex -2.704900e+01 1.509000e+00 0.000000e+00
      vertex -2.467300e+01 -7.823000e+00 0.000000e+00
    endloop
  endfacet
  facet normal 0.000000e+00 0.000000e+00 -1.000000e+00
    outer loop
      vertex -2.467300e+01 -7.823000e+00 0.000000e+00
      vertex -2.704900e+01 1.509000e+00 0.000000e+00
      vertex -1.730500e+01 -2.831000e+00 0.000000e+00
    endloop
  endfacet
  facet normal 0.000000e+00 0.000000e+00 -1.000000e+00
    outer loop
      vertex -1.730500e+01 -2.831000e+00 0.000000e+00
      vertex -2.704900e+01 1.509000e+00 0.000000e+00
      vertex -1.371300e+01 2.709000e+00 0.000000e+00
    endloop
  endfacet
  facet normal 0.000000e+00 0.000000e+00 -1.000000e+00
    outer loop
      vertex -1.371300e+01 2.709000e+00 0.000000e+00
      vertex -2.704900e+01 1.509000e+00 0.000000e+00
      vertex -3.296100e+01 7.825000e+00 0.000000e+00
    endloop
  endfacet
  facet normal 0.000000e+00 0.000000e+00 -1.000000e+00
    outer loop
      vertex -1.371300e+01 2.709000e+00 0.000000e+00
      vertex -3.296100e+01 7.825000e+00 0.000000e+00
      vertex -1.733500e+01 5.103000e+00 0.000000e+00
    endloop
  endfacet
  facet normal 0.000000e+00 0.000000e+00 -1.000000e+00
    outer loop
      vertex -1.733500e+01 5.103000e+00 0.000000e+00
      vertex -3.296100e+01 7.825000e+00 0.000000e+00
      vertex -1.799500e+01 1.493900e+01 0.000000e+00
    endloop
  endfacet
  facet normal 0.000000e+00 0.000000e+00 -1.000000e+00
    outer loop
      vertex -1.799500e+01 1.493900e+01 0.000000e+00
      vertex -3.296100e+01 7.825000e+00 0.000000e+00
      vertex -2.605100e+01 1.137300e+01 0.000000e+00
    endloop
  endfacet
  facet normal 0.000000e+00 0.000000e+00 -1.000000e+00
    outer loop
      vertex -1.799500e+01 1.493900e+01 0.000000e+00
      vertex -2.605100e+01 1.137300e+01 0.000000e+00
      vertex -2.467900e+01 1.807500e+01 0.000000e+00
    endloop
  endfacet
  facet normal 0.000000e+00 0.000000e+00 -1.000000e+00
    outer loop
      vertex -1.799500e+01 1.493900e+01 0.000000e+00
      vertex -2.467900e+01 1.807500e+01 0.000000e+00
      vertex -1.865700e+01 2.477900e+01 0.000000e+00
    endloop
  endfacet
  facet normal 0.000000e+00 0.000000e+00 -1.000000e+00
    outer loop
      vertex -1.865700e+01 2.477900e+01 0.000000e+00
      vertex -2.467900e+01 1.807500e+01 0.000000e+00
      vertex -2.330500e+01 2.477900e+01 0.000000e+00
    endloop
  endfacet
  facet normal 0.000000e+00 0.000000e+00 -1.000000e+00
    outer loop
      vertex -1.865700e+01 2.477900e+01 0.000000e+00
      vertex -2.330500e+01 2.477900e+01 0.000000e+00
      vertex -2.874900e+01 3.117300e+01 0.000000e+00
    endloop
  endfacet
  facet normal 0.000000e+00 0.000000e+00 -1.000000e+00
    outer loop
      vertex -1.865700e+01 2.477900e+01 0.000000e+00
      vertex -2.874900e+01 3.117300e+01 0.000000e+00
      vertex -2.098100e+01 2.797500e+01 0.000000e+00
    endloop
  endfacet
  facet normal 0.000000e+00 0.000000e+00 -1.000000e+00
    outer loop
      vertex -2.098100e+01 2.797500e+01 0.000000e+00
      vertex -2.874900e+01 3.117300e+01 0.000000e+00
      vertex -2.739300e+01 3.117300e+01 0.000000e+00
    endloop
  endfacet
  facet normal 0.000000e+00 0.000000e+00 -1.000000e+00
    outer loop
      vertex -2.098100e+01 2.797500e+01 0.000000e+00
      vertex -1.328700e+01 3.117300e+01 0.000000e+00
      vertex -1.865700e+01 2.477900e+01 0.000000e+00
    endloop
  endfacet
  facet normal 0.000000e+00 0.000000e+00 -1.000000e+00
    outer loop
      vertex -1.328700e+01 3.117300e+01 0.000000e+00
      vertex -2.098100e+01 2.797500e+01 0.000000e+00
      vertex -1.488900e+01 3.117300e+01 0.000000e+00
    endloop
  endfacet
  facet normal 0.000000e+00 0.000000e+00 -1.000000e+00
    outer loop
      vertex -1.012300e+01 8.251000e+00 0.000000e+00
      vertex -1.371300e+01 2.709000e+00 0.000000e+00
      vertex -1.733500e+01 5.103000e+00 0.000000e+00
    endloop
  endfacet
  facet normal -7.034047e-01 -7.107895e-01 0.000000e+00
    outer loop
      vertex -2.043500e+01 -1.091100e+01 1.100200e+01
      vertex -1.889500e+01 -1.243500e+01 0.000000e+00
      vertex -1.889500e+01 -1.243500e+01 1.100200e+01
    endloop
  endfacet
  facet normal -7.034047e-01 -7.107895e-01 0.000000e+00
    outer loop
      vertex -1.889500e+01 -1.243500e+01 0.000000e+00
      vertex -2.043500e+01 -1.091100e+01 1.100200e+01
      vertex -2.043500e+01 -1.091100e+01 0.000000e+00
    endloop
  endfacet
  facet normal 6.746458e-01 7.381416e-01 0.000000e+00
    outer loop
      vertex -2.262100e+01 -1.814100e+01 0.000000e+00
      vertex -2.131900e+01 -1.933100e+01 1.100200e+01
      vertex -2.131900e+01 -1.933100e+01 0.000000e+00
    endloop
  endfacet
  facet normal 6.746458e-01 7.381416e-01 0.000000e+00
    outer loop
      vertex -2.131900e+01 -1.933100e+01 1.100200e+01
      vertex -2.262100e+01 -1.814100e+01 0.000000e+00
      vertex -2.262100e+01 -1.814100e+01 1.100200e+01
    endloop
  endfacet
  facet normal -6.705836e-01 7.418339e-01 0.000000e+00
    outer loop
      vertex -2.030100e+01 -1.870500e+01 0.000000e+00
      vertex -1.888500e+01 -1.742500e+01 1.100200e+01
      vertex -1.888500e+01 -1.742500e+01 0.000000e+00
    endloop
  endfacet
  facet normal -6.705836e-01 7.418339e-01 0.000000e+00
    outer loop
      vertex -1.888500e+01 -1.742500e+01 1.100200e+01
      vertex -2.030100e+01 -1.870500e+01 0.000000e+00
      vertex -2.030100e+01 -1.870500e+01 1.100200e+01
    endloop
  endfacet
  facet normal 6.855390e-01 7.280359e-01 0.000000e+00
    outer loop
      vertex -2.262100e+01 -1.565100e+01 0.000000e+00
      vertex -2.131900e+01 -1.687700e+01 1.100200e+01
      vertex -2.131900e+01 -1.687700e+01 0.000000e+00
    endloop
  endfacet
  facet normal 6.855390e-01 7.280359e-01 0.000000e+00
    outer loop
      vertex -2.131900e+01 -1.687700e+01 1.100200e+01
      vertex -2.262100e+01 -1.565100e+01 0.000000e+00
      vertex -2.262100e+01 -1.565100e+01 1.100200e+01
    endloop
  endfacet
  facet normal -7.076392e-01 7.065740e-01 0.000000e+00
    outer loop
      vertex -2.021100e+01 -2.624900e+01 1.100200e+01
      vertex -1.888500e+01 -2.492100e+01 0.000000e+00
      vertex -2.021100e+01 -2.624900e+01 0.000000e+00
    endloop
  endfacet
  facet normal -7.076392e-01 7.065740e-01 0.000000e+00
    outer loop
      vertex -1.888500e+01 -2.492100e+01 0.000000e+00
      vertex -2.021100e+01 -2.624900e+01 1.100200e+01
      vertex -1.888500e+01 -2.492100e+01 1.100200e+01
    endloop
  endfacet
  facet normal 7.153687e-01 -6.987472e-01 -0.000000e+00
    outer loop
      vertex -2.043500e+01 -1.091100e+01 1.100200e+01
      vertex -2.262100e+01 -1.314900e+01 0.000000e+00
      vertex -2.043500e+01 -1.091100e+01 0.000000e+00
    endloop
  endfacet
  facet normal 7.153687e-01 -6.987472e-01 0.000000e+00
    outer loop
      vertex -2.262100e+01 -1.314900e+01 0.000000e+00
      vertex -2.043500e+01 -1.091100e+01 1.100200e+01
      vertex -2.262100e+01 -1.314900e+01 1.100200e+01
    endloop
  endfacet
  facet normal 3.204038e-01 -9.472810e-01 0.000000e+00
    outer loop
      vertex -2.522900e+01 -7.937000e+00 1.100200e+01
      vertex -2.495700e+01 -7.845000e+00 0.000000e+00
      vertex -2.495700e+01 -7.845000e+00 1.100200e+01
    endloop
  endfacet
  facet normal 3.204038e-01 -9.472810e-01 0.000000e+00
    outer loop
      vertex -2.495700e+01 -7.845000e+00 0.000000e+00
      vertex -2.522900e+01 -7.937000e+00 1.100200e+01
      vertex -2.522900e+01 -7.937000e+00 0.000000e+00
    endloop
  endfacet
  facet normal 5.611578e-01 -8.277088e-01 0.000000e+00
    outer loop
      vertex -2.546500e+01 -8.097000e+00 1.100200e+01
      vertex -2.522900e+01 -7.937000e+00 0.000000e+00
      vertex -2.522900e+01 -7.937000e+00 1.100200e+01
    endloop
  endfacet
  facet normal 5.611578e-01 -8.277088e-01 0.000000e+00
    outer loop
      vertex -2.522900e+01 -7.937000e+00 0.000000e+00
      vertex -2.546500e+01 -8.097000e+00 1.100200e+01
      vertex -2.546500e+01 -8.097000e+00 0.000000e+00
    endloop
  endfacet
  facet normal 6.910483e-01 7.228085e-01 0.000000e+00
    outer loop
      vertex -2.262100e+01 -2.561100e+01 0.000000e+00
      vertex -2.130100e+01 -2.687300e+01 1.100200e+01
      vertex -2.130100e+01 -2.687300e+01 0.000000e+00
    endloop
  endfacet
  facet normal 6.910483e-01 7.228085e-01 0.000000e+00
    outer loop
      vertex -2.130100e+01 -2.687300e+01 1.100200e+01
      vertex -2.262100e+01 -2.561100e+01 0.000000e+00
      vertex -2.262100e+01 -2.561100e+01 1.100200e+01
    endloop
  endfacet
  facet normal 7.098067e-01 -7.043965e-01 -0.000000e+00
    outer loop
      vertex -2.131900e+01 -1.933100e+01 1.100200e+01
      vertex -2.262100e+01 -2.064300e+01 0.000000e+00
      vertex -2.131900e+01 -1.933100e+01 0.000000e+00
    endloop
  endfacet
  facet normal 7.098067e-01 -7.043965e-01 0.000000e+00
    outer loop
      vertex -2.262100e+01 -2.064300e+01 0.000000e+00
      vertex -2.131900e+01 -1.933100e+01 1.100200e+01
      vertex -2.262100e+01 -2.064300e+01 1.100200e+01
    endloop
  endfacet
  facet normal -6.720109e-01 7.405412e-01 0.000000e+00
    outer loop
      vertex -2.033300e+01 -1.625100e+01 0.000000e+00
      vertex -1.888500e+01 -1.493700e+01 1.100200e+01
      vertex -1.888500e+01 -1.493700e+01 0.000000e+00
    endloop
  endfacet
  facet normal -6.720109e-01 7.405412e-01 0.000000e+00
    outer loop
      vertex -1.888500e+01 -1.493700e+01 1.100200e+01
      vertex -2.033300e+01 -1.625100e+01 0.000000e+00
      vertex -2.033300e+01 -1.625100e+01 1.100200e+01
    endloop
  endfacet
  facet normal 6.694088e-01 7.428943e-01 0.000000e+00
    outer loop
      vertex -2.262100e+01 -2.313300e+01 0.000000e+00
      vertex -2.132700e+01 -2.429900e+01 1.100200e+01
      vertex -2.132700e+01 -2.429900e+01 0.000000e+00
    endloop
  endfacet
  facet normal 6.694088e-01 7.428943e-01 0.000000e+00
    outer loop
      vertex -2.132700e+01 -2.429900e+01 1.100200e+01
      vertex -2.262100e+01 -2.313300e+01 0.000000e+00
      vertex -2.262100e+01 -2.313300e+01 1.100200e+01
    endloop
  endfacet
  facet normal -6.720017e-01 -7.405497e-01 0.000000e+00
    outer loop
      vertex -2.021100e+01 -2.624900e+01 1.100200e+01
      vertex -1.889300e+01 -2.744500e+01 0.000000e+00
      vertex -1.889300e+01 -2.744500e+01 1.100200e+01
    endloop
  endfacet
  facet normal -6.720017e-01 -7.405497e-01 0.000000e+00
    outer loop
      vertex -1.889300e+01 -2.744500e+01 0.000000e+00
      vertex -2.021100e+01 -2.624900e+01 1.100200e+01
      vertex -2.021100e+01 -2.624900e+01 0.000000e+00
    endloop
  endfacet
  facet normal 6.123234e-17 1.000000e+00 0.000000e+00
    outer loop
      vertex -1.488900e+01 3.117300e+01 0.000000e+00
      vertex -1.328700e+01 3.117300e+01 1.100200e+01
      vertex -1.328700e+01 3.117300e+01 0.000000e+00
    endloop
  endfacet
  facet normal 6.123234e-17 1.000000e+00 0.000000e+00
    outer loop
      vertex -1.328700e+01 3.117300e+01 1.100200e+01
      vertex -1.488900e+01 3.117300e+01 0.000000e+00
      vertex -1.488900e+01 3.117300e+01 1.100200e+01
    endloop
  endfacet
  facet normal -6.297843e-01 -7.767701e-01 0.000000e+00
    outer loop
      vertex -2.033300e+01 -1.625100e+01 1.100200e+01
      vertex -1.888500e+01 -1.742500e+01 0.000000e+00
      vertex -1.888500e+01 -1.742500e+01 1.100200e+01
    endloop
  endfacet
  facet normal -6.297843e-01 -7.767701e-01 0.000000e+00
    outer loop
      vertex -1.888500e+01 -1.742500e+01 0.000000e+00
      vertex -2.033300e+01 -1.625100e+01 1.100200e+01
      vertex -2.033300e+01 -1.625100e+01 0.000000e+00
    endloop
  endfacet
  facet normal 0.000000e+00 0.000000e+00 1.000000e+00
    outer loop
      vertex -1.730500e+01 -2.580100e+01 1.100200e+01
      vertex -2.021100e+01 -2.624900e+01 1.100200e+01
      vertex -1.889300e+01 -2.744500e+01 1.100200e+01
    endloop
  endfacet
  facet normal 0.000000e+00 0.000000e+00 1.000000e+00
    outer loop
      vertex -2.021100e+01 -2.624900e+01 1.100200e+01
      vertex -1.730500e+01 -2.580100e+01 1.100200e+01
      vertex -1.888500e+01 -2.492100e+01 1.100200e+01
    endloop
  endfacet
  facet normal 0.000000e+00 0.000000e+00 1.000000e+00
    outer loop
      vertex -1.888500e+01 -2.492100e+01 1.100200e+01
      vertex -1.730500e+01 -2.580100e+01 1.100200e+01
      vertex -1.730500e+01 -2.831000e+00 1.100200e+01
    endloop
  endfacet
  facet normal 0.000000e+00 0.000000e+00 1.000000e+00
    outer loop
      vertex -1.888500e+01 -2.492100e+01 1.100200e+01
      vertex -1.730500e+01 -2.831000e+00 1.100200e+01
      vertex -1.888500e+01 -2.245500e+01 1.100200e+01
    endloop
  endfacet
  facet normal 0.000000e+00 0.000000e+00 1.000000e+00
    outer loop
      vertex -1.888500e+01 -2.492100e+01 1.100200e+01
      vertex -1.888500e+01 -2.245500e+01 1.100200e+01
      vertex -2.024500e+01 -2.367300e+01 1.100200e+01
    endloop
  endfacet
  facet normal 0.000000e+00 0.000000e+00 1.000000e+00
    outer loop
      vertex -1.888500e+01 -2.245500e+01 1.100200e+01
      vertex -1.730500e+01 -2.831000e+00 1.100200e+01
      vertex -1.888500e+01 -1.994100e+01 1.100200e+01
    endloop
  endfacet
  facet normal 0.000000e+00 0.000000e+00 1.000000e+00
    outer loop
      vertex -1.888500e+01 -2.245500e+01 1.100200e+01
      vertex -1.888500e+01 -1.994100e+01 1.100200e+01
      vertex -2.030100e+01 -2.125500e+01 1.100200e+01
    endloop
  endfacet
  facet normal 0.000000e+00 0.000000e+00 1.000000e+00
    outer loop
      vertex -1.888500e+01 -1.994100e+01 1.100200e+01
      vertex -1.730500e+01 -2.831000e+00 1.100200e+01
      vertex -1.888500e+01 -1.742500e+01 1.100200e+01
    endloop
  endfacet
  facet normal 0.000000e+00 0.000000e+00 1.000000e+00
    outer loop
      vertex -1.888500e+01 -1.994100e+01 1.100200e+01
      vertex -1.888500e+01 -1.742500e+01 1.100200e+01
      vertex -2.030100e+01 -1.870500e+01 1.100200e+01
    endloop
  endfacet
  facet normal 0.000000e+00 0.000000e+00 1.000000e+00
    outer loop
      vertex -1.888500e+01 -1.742500e+01 1.100200e+01
      vertex -1.730500e+01 -2.831000e+00 1.100200e+01
      vertex -1.888500e+01 -1.493700e+01 1.100200e+01
    endloop
  endfacet
  facet normal 0.000000e+00 0.000000e+00 1.000000e+00
    outer loop
      vertex -1.888500e+01 -1.742500e+01 1.100200e+01
      vertex -1.888500e+01 -1.493700e+01 1.100200e+01
      vertex -2.033300e+01 -1.625100e+01 1.100200e+01
    endloop
  endfacet
  facet normal 0.000000e+00 0.000000e+00 1.000000e+00
    outer loop
      vertex -1.888500e+01 -1.493700e+01 1.100200e+01
      vertex -1.730500e+01 -2.831000e+00 1.100200e+01
      vertex -1.889500e+01 -1.243500e+01 1.100200e+01
    endloop
  endfacet
  facet normal 0.000000e+00 0.000000e+00 1.000000e+00
    outer loop
      vertex -1.888500e+01 -1.493700e+01 1.100200e+01
      vertex -1.889500e+01 -1.243500e+01 1.100200e+01
      vertex -2.033300e+01 -1.374900e+01 1.100200e+01
    endloop
  endfacet
  facet normal 0.000000e+00 0.000000e+00 1.000000e+00
    outer loop
      vertex -1.889500e+01 -1.243500e+01 1.100200e+01
      vertex -1.730500e+01 -2.831000e+00 1.100200e+01
      vertex -2.043500e+01 -1.091100e+01 1.100200e+01
    endloop
  endfacet
  facet normal 0.000000e+00 0.000000e+00 1.000000e+00
    outer loop
      vertex -2.043500e+01 -1.091100e+01 1.100200e+01
      vertex -1.730500e+01 -2.831000e+00 1.100200e+01
      vertex -2.401100e+01 -9.739000e+00 1.100200e+01
    endloop
  endfacet
  facet normal 0.000000e+00 0.000000e+00 1.000000e+00
    outer loop
      vertex -2.043500e+01 -1.091100e+01 1.100200e+01
      vertex -2.401100e+01 -9.739000e+00 1.100200e+01
      vertex -2.424900e+01 -9.899000e+00 1.100200e+01
    endloop
  endfacet
  facet normal 0.000000e+00 0.000000e+00 1.000000e+00
    outer loop
      vertex -2.043500e+01 -1.091100e+01 1.100200e+01
      vertex -2.424900e+01 -9.899000e+00 1.100200e+01
      vertex -2.451900e+01 -9.991000e+00 1.100200e+01
    endloop
  endfacet
  facet normal 0.000000e+00 0.000000e+00 1.000000e+00
    outer loop
      vertex -2.043500e+01 -1.091100e+01 1.100200e+01
      vertex -2.451900e+01 -9.991000e+00 1.100200e+01
      vertex -2.480500e+01 -1.001300e+01 1.100200e+01
    endloop
  endfacet
  facet normal 0.000000e+00 0.000000e+00 1.000000e+00
    outer loop
      vertex -2.401100e+01 -9.739000e+00 1.100200e+01
      vertex -1.730500e+01 -2.831000e+00 1.100200e+01
      vertex -2.382300e+01 -9.523001e+00 1.100200e+01
    endloop
  endfacet
  facet normal 0.000000e+00 0.000000e+00 1.000000e+00
    outer loop
      vertex -2.382300e+01 -9.523001e+00 1.100200e+01
      vertex -1.730500e+01 -2.831000e+00 1.100200e+01
      vertex -2.369900e+01 -9.265000e+00 1.100200e+01
    endloop
  endfacet
  facet normal 0.000000e+00 0.000000e+00 1.000000e+00
    outer loop
      vertex -2.369900e+01 -9.265000e+00 1.100200e+01
      vertex -1.730500e+01 -2.831000e+00 1.100200e+01
      vertex -2.364500e+01 -8.983001e+00 1.100200e+01
    endloop
  endfacet
  facet normal 0.000000e+00 0.000000e+00 1.000000e+00
    outer loop
      vertex -2.364500e+01 -8.983001e+00 1.100200e+01
      vertex -1.730500e+01 -2.831000e+00 1.100200e+01
      vertex -2.366500e+01 -8.699000e+00 1.100200e+01
    endloop
  endfacet
  facet normal 0.000000e+00 0.000000e+00 1.000000e+00
    outer loop
      vertex -2.366500e+01 -8.699000e+00 1.100200e+01
      vertex -1.730500e+01 -2.831000e+00 1.100200e+01
      vertex -2.375700e+01 -8.427000e+00 1.100200e+01
    endloop
  endfacet
  facet normal 0.000000e+00 0.000000e+00 1.000000e+00
    outer loop
      vertex -2.375700e+01 -8.427000e+00 1.100200e+01
      vertex -1.730500e+01 -2.831000e+00 1.100200e+01
      vertex -2.391900e+01 -8.191000e+00 1.100200e+01
    endloop
  endfacet
  facet normal 0.000000e+00 0.000000e+00 1.000000e+00
    outer loop
      vertex -2.391900e+01 -8.191000e+00 1.100200e+01
      vertex -1.730500e+01 -2.831000e+00 1.100200e+01
      vertex -2.413500e+01 -8.003000e+00 1.100200e+01
    endloop
  endfacet
  facet normal 0.000000e+00 0.000000e+00 1.000000e+00
    outer loop
      vertex -2.413500e+01 -8.003000e+00 1.100200e+01
      vertex -1.730500e+01 -2.831000e+00 1.100200e+01
      vertex -2.439100e+01 -7.879001e+00 1.100200e+01
    endloop
  endfacet
  facet normal 0.000000e+00 0.000000e+00 1.000000e+00
    outer loop
      vertex -2.439100e+01 -7.879001e+00 1.100200e+01
      vertex -1.730500e+01 -2.831000e+00 1.100200e+01
      vertex -2.467300e+01 -7.823000e+00 1.100200e+01
    endloop
  endfacet
  facet normal 0.000000e+00 0.000000e+00 1.000000e+00
    outer loop
      vertex -2.581100e+01 -9.137000e+00 1.100200e+01
      vertex -2.704900e+01 1.509000e+00 1.100200e+01
      vertex -2.704900e+01 -1.546100e+01 1.100200e+01
    endloop
  endfacet
  facet normal 0.000000e+00 0.000000e+00 1.000000e+00
    outer loop
      vertex -2.581100e+01 -9.137000e+00 1.100200e+01
      vertex -2.704900e+01 -3.243100e+01 1.100200e+01
      vertex -2.262100e+01 -2.561100e+01 1.100200e+01
    endloop
  endfacet
  facet normal 0.000000e+00 0.000000e+00 1.000000e+00
    outer loop
      vertex -2.262100e+01 -2.561100e+01 1.100200e+01
      vertex -2.704900e+01 -3.243100e+01 1.100200e+01
      vertex -2.130100e+01 -2.687300e+01 1.100200e+01
    endloop
  endfacet
  facet normal 0.000000e+00 0.000000e+00 1.000000e+00
    outer loop
      vertex -2.581100e+01 -9.137000e+00 1.100200e+01
      vertex -2.262100e+01 -2.561100e+01 1.100200e+01
      vertex -2.262100e+01 -2.313300e+01 1.100200e+01
    endloop
  endfacet
  facet normal 0.000000e+00 0.000000e+00 1.000000e+00
    outer loop
      vertex -2.262100e+01 -2.313300e+01 1.100200e+01
      vertex -2.262100e+01 -2.561100e+01 1.100200e+01
      vertex -2.132700e+01 -2.429900e+01 1.100200e+01
    endloop
  endfacet
  facet normal 0.000000e+00 0.000000e+00 1.000000e+00
    outer loop
      vertex -2.581100e+01 -9.137000e+00 1.100200e+01
      vertex -2.262100e+01 -2.313300e+01 1.100200e+01
      vertex -2.262100e+01 -2.064300e+01 1.100200e+01
    endloop
  endfacet
  facet normal 0.000000e+00 0.000000e+00 1.000000e+00
    outer loop
      vertex -2.262100e+01 -2.064300e+01 1.100200e+01
      vertex -2.262100e+01 -2.313300e+01 1.100200e+01
      vertex -2.131500e+01 -2.188100e+01 1.100200e+01
    endloop
  endfacet
  facet normal 0.000000e+00 0.000000e+00 1.000000e+00
    outer loop
      vertex -2.581100e+01 -9.137000e+00 1.100200e+01
      vertex -2.262100e+01 -2.064300e+01 1.100200e+01
      vertex -2.571900e+01 -9.407001e+00 1.100200e+01
    endloop
  endfacet
  facet normal 0.000000e+00 0.000000e+00 1.000000e+00
    outer loop
      vertex -2.571900e+01 -9.407001e+00 1.100200e+01
      vertex -2.262100e+01 -2.064300e+01 1.100200e+01
      vertex -2.262100e+01 -1.814100e+01 1.100200e+01
    endloop
  endfacet
  facet normal 0.000000e+00 0.000000e+00 1.000000e+00
    outer loop
      vertex -2.262100e+01 -1.814100e+01 1.100200e+01
      vertex -2.262100e+01 -2.064300e+01 1.100200e+01
      vertex -2.131900e+01 -1.933100e+01 1.100200e+01
    endloop
  endfacet
  facet normal 0.000000e+00 0.000000e+00 1.000000e+00
    outer loop
      vertex -2.571900e+01 -9.407001e+00 1.100200e+01
      vertex -2.262100e+01 -1.814100e+01 1.100200e+01
      vertex -2.262100e+01 -1.565100e+01 1.100200e+01
    endloop
  endfacet
  facet normal 0.000000e+00 0.000000e+00 1.000000e+00
    outer loop
      vertex -2.262100e+01 -1.565100e+01 1.100200e+01
      vertex -2.262100e+01 -1.814100e+01 1.100200e+01
      vertex -2.131900e+01 -1.687700e+01 1.100200e+01
    endloop
  endfacet
  facet normal 0.000000e+00 0.000000e+00 1.000000e+00
    outer loop
      vertex -2.571900e+01 -9.407001e+00 1.100200e+01
      vertex -2.262100e+01 -1.565100e+01 1.100200e+01
      vertex -2.555900e+01 -9.645000e+00 1.100200e+01
    endloop
  endfacet
  facet normal 0.000000e+00 0.000000e+00 1.000000e+00
    outer loop
      vertex -2.555900e+01 -9.645000e+00 1.100200e+01
      vertex -2.262100e+01 -1.565100e+01 1.100200e+01
      vertex -2.262100e+01 -1.314900e+01 1.100200e+01
    endloop
  endfacet
  facet normal 0.000000e+00 0.000000e+00 1.000000e+00
    outer loop
      vertex -2.262100e+01 -1.314900e+01 1.100200e+01
      vertex -2.262100e+01 -1.565100e+01 1.100200e+01
      vertex -2.134300e+01 -1.437500e+01 1.100200e+01
    endloop
  endfacet
  facet normal 0.000000e+00 0.000000e+00 1.000000e+00
    outer loop
      vertex -2.555900e+01 -9.645000e+00 1.100200e+01
      vertex -2.262100e+01 -1.314900e+01 1.100200e+01
      vertex -2.534300e+01 -9.831000e+00 1.100200e+01
    endloop
  endfacet
  facet normal 0.000000e+00 0.000000e+00 1.000000e+00
    outer loop
      vertex -2.534300e+01 -9.831000e+00 1.100200e+01
      vertex -2.262100e+01 -1.314900e+01 1.100200e+01
      vertex -2.508500e+01 -9.957001e+00 1.100200e+01
    endloop
  endfacet
  facet normal 0.000000e+00 0.000000e+00 1.000000e+00
    outer loop
      vertex -2.508500e+01 -9.957001e+00 1.100200e+01
      vertex -2.262100e+01 -1.314900e+01 1.100200e+01
      vertex -2.043500e+01 -1.091100e+01 1.100200e+01
    endloop
  endfacet
  facet normal 0.000000e+00 0.000000e+00 1.000000e+00
    outer loop
      vertex -2.508500e+01 -9.957001e+00 1.100200e+01
      vertex -2.043500e+01 -1.091100e+01 1.100200e+01
      vertex -2.480500e+01 -1.001300e+01 1.100200e+01
    endloop
  endfacet
  facet normal 0.000000e+00 0.000000e+00 1.000000e+00
    outer loop
      vertex -2.704900e+01 1.509000e+00 1.100200e+01
      vertex -2.581100e+01 -9.137000e+00 1.100200e+01
      vertex -2.583300e+01 -8.853001e+00 1.100200e+01
    endloop
  endfacet
  facet normal 0.000000e+00 0.000000e+00 1.000000e+00
    outer loop
      vertex -2.704900e+01 1.509000e+00 1.100200e+01
      vertex -2.583300e+01 -8.853001e+00 1.100200e+01
      vertex -2.577900e+01 -8.571000e+00 1.100200e+01
    endloop
  endfacet
  facet normal 0.000000e+00 0.000000e+00 1.000000e+00
    outer loop
      vertex -2.704900e+01 1.509000e+00 1.100200e+01
      vertex -2.577900e+01 -8.571000e+00 1.100200e+01
      vertex -2.565300e+01 -8.313001e+00 1.100200e+01
    endloop
  endfacet
  facet normal 0.000000e+00 0.000000e+00 1.000000e+00
    outer loop
      vertex -2.704900e+01 1.509000e+00 1.100200e+01
      vertex -2.565300e+01 -8.313001e+00 1.100200e+01
      vertex -2.546500e+01 -8.097000e+00 1.100200e+01
    endloop
  endfacet
  facet normal 0.000000e+00 0.000000e+00 1.000000e+00
    outer loop
      vertex -2.704900e+01 1.509000e+00 1.100200e+01
      vertex -2.546500e+01 -8.097000e+00 1.100200e+01
      vertex -2.522900e+01 -7.937000e+00 1.100200e+01
    endloop
  endfacet
  facet normal 0.000000e+00 0.000000e+00 1.000000e+00
    outer loop
      vertex -2.704900e+01 1.509000e+00 1.100200e+01
      vertex -2.522900e+01 -7.937000e+00 1.100200e+01
      vertex -2.495700e+01 -7.845000e+00 1.100200e+01
    endloop
  endfacet
  facet normal 0.000000e+00 0.000000e+00 1.000000e+00
    outer loop
      vertex -2.704900e+01 1.509000e+00 1.100200e+01
      vertex -2.495700e+01 -7.845000e+00 1.100200e+01
      vertex -2.467300e+01 -7.823000e+00 1.100200e+01
    endloop
  endfacet
  facet normal 0.000000e+00 0.000000e+00 1.000000e+00
    outer loop
      vertex -2.467300e+01 -7.823000e+00 1.100200e+01
      vertex -1.730500e+01 -2.831000e+00 1.100200e+01
      vertex -2.704900e+01 1.509000e+00 1.100200e+01
    endloop
  endfacet
  facet normal 0.000000e+00 0.000000e+00 1.000000e+00
    outer loop
      vertex -3.296100e+01 7.825000e+00 1.100200e+01
      vertex -1.733500e+01 5.103000e+00 1.100200e+01
      vertex -1.799500e+01 1.493900e+01 1.100200e+01
    endloop
  endfacet
  facet normal 0.000000e+00 0.000000e+00 1.000000e+00
    outer loop
      vertex -3.296100e+01 7.825000e+00 1.100200e+01
      vertex -1.799500e+01 1.493900e+01 1.100200e+01
      vertex -2.605100e+01 1.137300e+01 1.100200e+01
    endloop
  endfacet
  facet normal 0.000000e+00 0.000000e+00 1.000000e+00
    outer loop
      vertex -2.605100e+01 1.137300e+01 1.100200e+01
      vertex -1.799500e+01 1.493900e+01 1.100200e+01
      vertex -2.467900e+01 1.807500e+01 1.100200e+01
    endloop
  endfacet
  facet normal 0.000000e+00 0.000000e+00 1.000000e+00
    outer loop
      vertex -2.467900e+01 1.807500e+01 1.100200e+01
      vertex -1.799500e+01 1.493900e+01 1.100200e+01
      vertex -1.865700e+01 2.477900e+01 1.100200e+01
    endloop
  endfacet
  facet normal 0.000000e+00 0.000000e+00 1.000000e+00
    outer loop
      vertex -2.467900e+01 1.807500e+01 1.100200e+01
      vertex -1.865700e+01 2.477900e+01 1.100200e+01
      vertex -2.330500e+01 2.477900e+01 1.100200e+01
    endloop
  endfacet
  facet normal 0.000000e+00 0.000000e+00 1.000000e+00
    outer loop
      vertex -2.330500e+01 2.477900e+01 1.100200e+01
      vertex -1.865700e+01 2.477900e+01 1.100200e+01
      vertex -1.328700e+01 3.117300e+01 1.100200e+01
    endloop
  endfacet
  facet normal 0.000000e+00 0.000000e+00 1.000000e+00
    outer loop
      vertex -2.330500e+01 2.477900e+01 1.100200e+01
      vertex -1.328700e+01 3.117300e+01 1.100200e+01
      vertex -2.098100e+01 2.797500e+01 1.100200e+01
    endloop
  endfacet
  facet normal 0.000000e+00 0.000000e+00 1.000000e+00
    outer loop
      vertex -2.098100e+01 2.797500e+01 1.100200e+01
      vertex -1.328700e+01 3.117300e+01 1.100200e+01
      vertex -1.488900e+01 3.117300e+01 1.100200e+01
    endloop
  endfacet
  facet normal 0.000000e+00 0.000000e+00 1.000000e+00
    outer loop
      vertex -2.098100e+01 2.797500e+01 1.100200e+01
      vertex -2.874900e+01 3.117300e+01 1.100200e+01
      vertex -2.330500e+01 2.477900e+01 1.100200e+01
    endloop
  endfacet
  facet normal 0.000000e+00 0.000000e+00 1.000000e+00
    outer loop
      vertex -2.874900e+01 3.117300e+01 1.100200e+01
      vertex -2.098100e+01 2.797500e+01 1.100200e+01
      vertex -2.739300e+01 3.117300e+01 1.100200e+01
    endloop
  endfacet
  facet normal -4.647997e-01 8.854159e-01 0.000000e+00
    outer loop
      vertex -2.098100e+01 2.797500e+01 0.000000e+00
      vertex -1.488900e+01 3.117300e+01 1.100200e+01
      vertex -1.488900e+01 3.117300e+01 0.000000e+00
    endloop
  endfacet
  facet normal -4.647997e-01 8.854159e-01 0.000000e+00
    outer loop
      vertex -1.488900e+01 3.117300e+01 1.100200e+01
      vertex -2.098100e+01 2.797500e+01 0.000000e+00
      vertex -2.098100e+01 2.797500e+01 1.100200e+01
    endloop
  endfacet
  facet normal 7.543057e-01 -6.565235e-01 -0.000000e+00
    outer loop
      vertex -2.546500e+01 -8.097000e+00 1.100200e+01
      vertex -2.565300e+01 -8.313001e+00 0.000000e+00
      vertex -2.546500e+01 -8.097000e+00 0.000000e+00
    endloop
  endfacet
  facet normal 7.543057e-01 -6.565235e-01 0.000000e+00
    outer loop
      vertex -2.565300e+01 -8.313001e+00 0.000000e+00
      vertex -2.546500e+01 -8.097000e+00 1.100200e+01
      vertex -2.565300e+01 -8.313001e+00 1.100200e+01
    endloop
  endfacet
  facet normal -7.300705e-01 -6.833719e-01 0.000000e+00
    outer loop
      vertex -2.704900e+01 1.509000e+00 1.100200e+01
      vertex -3.296100e+01 7.825000e+00 0.000000e+00
      vertex -2.704900e+01 1.509000e+00 0.000000e+00
    endloop
  endfacet
  facet normal -7.300705e-01 -6.833719e-01 0.000000e+00
    outer loop
      vertex -3.296100e+01 7.825000e+00 0.000000e+00
      vertex -2.704900e+01 1.509000e+00 1.100200e+01
      vertex -3.296100e+01 7.825000e+00 1.100200e+01
    endloop
  endfacet
  facet normal 4.463202e-01 8.948734e-01 0.000000e+00
    outer loop
      vertex -2.739300e+01 3.117300e+01 0.000000e+00
      vertex -2.098100e+01 2.797500e+01 1.100200e+01
      vertex -2.098100e+01 2.797500e+01 0.000000e+00
    endloop
  endfacet
  facet normal 4.463202e-01 8.948734e-01 0.000000e+00
    outer loop
      vertex -2.098100e+01 2.797500e+01 1.100200e+01
      vertex -2.739300e+01 3.117300e+01 0.000000e+00
      vertex -2.739300e+01 3.117300e+01 1.100200e+01
    endloop
  endfacet
  facet normal 8.392938e-01 -5.436782e-01 -0.000000e+00
    outer loop
      vertex -1.012300e+01 8.251000e+00 1.100200e+01
      vertex -1.371300e+01 2.709000e+00 0.000000e+00
      vertex -1.012300e+01 8.251000e+00 0.000000e+00
    endloop
  endfacet
  facet normal 8.390660e-01 -5.440297e-01 2.513843e-04
    outer loop
      vertex -1.012300e+01 8.251000e+00 1.100200e+01
      vertex -1.730500e+01 -2.831000e+00 0.000000e+00
      vertex -1.371300e+01 2.709000e+00 0.000000e+00
    endloop
  endfacet
  facet normal 8.390659e-01 -5.440297e-01 0.000000e+00
    outer loop
      vertex -1.730500e+01 -2.831000e+00 0.000000e+00
      vertex -1.371300e+01 2.709000e+00 1.100200e+01
      vertex -1.730500e+01 -2.831000e+00 1.100200e+01
    endloop
  endfacet
  facet normal 8.392937e-01 -5.436782e-01 -2.513618e-04
    outer loop
      vertex -1.730500e+01 -2.831000e+00 0.000000e+00
      vertex -1.012300e+01 8.251000e+00 1.100200e+01
      vertex -1.371300e+01 2.709000e+00 1.100200e+01
    endloop
  endfacet
  facet normal 8.985670e-01 -4.388366e-01 -0.000000e+00
    outer loop
      vertex -2.565300e+01 -8.313001e+00 1.100200e+01
      vertex -2.577900e+01 -8.571000e+00 0.000000e+00
      vertex -2.565300e+01 -8.313001e+00 0.000000e+00
    endloop
  endfacet
  facet normal 8.985670e-01 -4.388366e-01 0.000000e+00
    outer loop
      vertex -2.577900e+01 -8.571000e+00 0.000000e+00
      vertex -2.565300e+01 -8.313001e+00 1.100200e+01
      vertex -2.577900e+01 -8.571000e+00 1.100200e+01
    endloop
  endfacet
  facet normal 9.821553e-01 -1.880716e-01 -0.000000e+00
    outer loop
      vertex -2.577900e+01 -8.571000e+00 1.100200e+01
      vertex -2.583300e+01 -8.853001e+00 0.000000e+00
      vertex -2.577900e+01 -8.571000e+00 0.000000e+00
    endloop
  endfacet
  facet normal 9.821553e-01 -1.880716e-01 0.000000e+00
    outer loop
      vertex -2.583300e+01 -8.853001e+00 0.000000e+00
      vertex -2.577900e+01 -8.571000e+00 1.100200e+01
      vertex -2.583300e+01 -8.853001e+00 1.100200e+01
    endloop
  endfacet
  facet normal -9.013052e-01 4.331847e-01 0.000000e+00
    outer loop
      vertex -2.382300e+01 -9.523001e+00 1.100200e+01
      vertex -2.369900e+01 -9.265000e+00 0.000000e+00
      vertex -2.382300e+01 -9.523001e+00 0.000000e+00
    endloop
  endfacet
  facet normal -9.013052e-01 4.331847e-01 0.000000e+00
    outer loop
      vertex -2.369900e+01 -9.265000e+00 0.000000e+00
      vertex -2.382300e+01 -9.523001e+00 1.100200e+01
      vertex -2.369900e+01 -9.265000e+00 1.100200e+01
    endloop
  endfacet
  facet normal -1.000000e+00 6.123234e-17 0.000000e+00
    outer loop
      vertex -2.704900e+01 -3.243100e+01 0.000000e+00
      vertex -2.704900e+01 -3.243100e+01 1.100200e+01
      vertex -2.704900e+01 -1.546100e+01 5.500000e+00
    endloop
  endfacet
  facet normal -1.000000e+00 6.123234e-17 0.000000e+00
    outer loop
      vertex -2.704900e+01 -1.546100e+01 5.500000e+00
      vertex -2.704900e+01 -1.546100e+01 1.100200e+01
      vertex -2.704900e+01 1.509000e+00 1.100200e+01
    endloop
  endfacet
  facet normal 1.000000e+00 -6.123234e-17 0.000000e+00
    outer loop
      vertex -1.730500e+01 -2.831000e+00 1.100200e+01
      vertex -1.730500e+01 -2.580100e+01 0.000000e+00
      vertex -1.730500e+01 -2.831000e+00 0.000000e+00
    endloop
  endfacet
  facet normal 1.000000e+00 -6.123234e-17 0.000000e+00
    outer loop
      vertex -1.730500e+01 -2.580100e+01 0.000000e+00
      vertex -1.730500e+01 -2.831000e+00 1.100200e+01
      vertex -1.730500e+01 -2.580100e+01 1.100200e+01
    endloop
  endfacet
  facet normal -9.821551e-01 1.880726e-01 0.000000e+00
    outer loop
      vertex -2.369900e+01 -9.265000e+00 1.100200e+01
      vertex -2.364500e+01 -8.983001e+00 0.000000e+00
      vertex -2.369900e+01 -9.265000e+00 0.000000e+00
    endloop
  endfacet
  facet normal -9.821551e-01 1.880726e-01 0.000000e+00
    outer loop
      vertex -2.364500e+01 -8.983001e+00 0.000000e+00
      vertex -2.369900e+01 -9.265000e+00 1.100200e+01
      vertex -2.364500e+01 -8.983001e+00 1.100200e+01
    endloop
  endfacet
  facet normal -7.543042e-01 6.565251e-01 0.000000e+00
    outer loop
      vertex -2.401100e+01 -9.739000e+00 1.100200e+01
      vertex -2.382300e+01 -9.523001e+00 0.000000e+00
      vertex -2.401100e+01 -9.739000e+00 0.000000e+00
    endloop
  endfacet
  facet normal -7.543042e-01 6.565251e-01 0.000000e+00
    outer loop
      vertex -2.382300e+01 -9.523001e+00 0.000000e+00
      vertex -2.401100e+01 -9.739000e+00 1.100200e+01
      vertex -2.382300e+01 -9.523001e+00 1.100200e+01
    endloop
  endfacet
  facet normal -9.975295e-01 -7.024840e-02 0.000000e+00
    outer loop
      vertex -2.364500e+01 -8.983001e+00 1.100200e+01
      vertex -2.366500e+01 -8.699000e+00 0.000000e+00
      vertex -2.364500e+01 -8.983001e+00 0.000000e+00
    endloop
  endfacet
  facet normal -9.975295e-01 -7.024840e-02 0.000000e+00
    outer loop
      vertex -2.366500e+01 -8.699000e+00 0.000000e+00
      vertex -2.364500e+01 -8.983001e+00 1.100200e+01
      vertex -2.366500e+01 -8.699000e+00 1.100200e+01
    endloop
  endfacet
  facet normal -7.614043e-01 -6.482772e-01 0.000000e+00
    outer loop
      vertex -2.330500e+01 2.477900e+01 1.100200e+01
      vertex -2.874900e+01 3.117300e+01 0.000000e+00
      vertex -2.330500e+01 2.477900e+01 0.000000e+00
    endloop
  endfacet
  facet normal -7.614043e-01 -6.482772e-01 0.000000e+00
    outer loop
      vertex -2.874900e+01 3.117300e+01 0.000000e+00
      vertex -2.330500e+01 2.477900e+01 1.100200e+01
      vertex -2.874900e+01 3.117300e+01 1.100200e+01
    endloop
  endfacet
  facet normal 9.977446e-01 6.712468e-02 0.000000e+00
    outer loop
      vertex -1.865700e+01 2.477900e+01 1.100200e+01
      vertex -1.799500e+01 1.493900e+01 0.000000e+00
      vertex -1.865700e+01 2.477900e+01 0.000000e+00
    endloop
  endfacet
  facet normal 9.977564e-01 6.694992e-02 1.570024e-04
    outer loop
      vertex -1.799500e+01 1.493900e+01 0.000000e+00
      vertex -1.865700e+01 2.477900e+01 1.100200e+01
      vertex -1.733500e+01 5.103000e+00 0.000000e+00
    endloop
  endfacet
  facet normal 9.977505e-01 6.703732e-02 0.000000e+00
    outer loop
      vertex -1.733500e+01 5.103000e+00 0.000000e+00
      vertex -1.865700e+01 2.477900e+01 1.100200e+01
      vertex -1.733500e+01 5.103000e+00 1.100200e+01
    endloop
  endfacet
  facet normal 0.000000e+00 0.000000e+00 -1.000000e+00
    outer loop
      vertex -1.733500e+01 5.103000e+00 1.100200e+01
      vertex -1.865700e+01 2.477900e+01 1.100200e+01
      vertex -1.799500e+01 1.493900e+01 1.100200e+01
    endloop
  endfacet
  facet normal -4.359275e-01 -8.999819e-01 0.000000e+00
    outer loop
      vertex -2.439100e+01 -7.879001e+00 1.100200e+01
      vertex -2.413500e+01 -8.003000e+00 0.000000e+00
      vertex -2.413500e+01 -8.003000e+00 1.100200e+01
    endloop
  endfacet
  facet normal -4.359275e-01 -8.999819e-01 0.000000e+00
    outer loop
      vertex -2.413500e+01 -8.003000e+00 0.000000e+00
      vertex -2.439100e+01 -7.879001e+00 1.100200e+01
      vertex -2.439100e+01 -7.879001e+00 0.000000e+00
    endloop
  endfacet
  facet normal 9.970130e-01 7.723381e-02 0.000000e+00
    outer loop
      vertex -2.583300e+01 -8.853001e+00 1.100200e+01
      vertex -2.581100e+01 -9.137000e+00 0.000000e+00
      vertex -2.583300e+01 -8.853001e+00 0.000000e+00
    endloop
  endfacet
  facet normal 9.970130e-01 7.723381e-02 0.000000e+00
    outer loop
      vertex -2.581100e+01 -9.137000e+00 0.000000e+00
      vertex -2.583300e+01 -8.853001e+00 1.100200e+01
      vertex -2.581100e+01 -9.137000e+00 1.100200e+01
    endloop
  endfacet
  facet normal -8.244497e-01 -5.659354e-01 0.000000e+00
    outer loop
      vertex -2.375700e+01 -8.427000e+00 1.100200e+01
      vertex -2.391900e+01 -8.191000e+00 0.000000e+00
      vertex -2.375700e+01 -8.427000e+00 0.000000e+00
    endloop
  endfacet
  facet normal -8.244497e-01 -5.659354e-01 0.000000e+00
    outer loop
      vertex -2.391900e+01 -8.191000e+00 0.000000e+00
      vertex -2.375700e+01 -8.427000e+00 1.100200e+01
      vertex -2.391900e+01 -8.191000e+00 1.100200e+01
    endloop
  endfacet
  facet normal -5.579143e-01 8.298985e-01 0.000000e+00
    outer loop
      vertex -2.424900e+01 -9.899000e+00 0.000000e+00
      vertex -2.401100e+01 -9.739000e+00 1.100200e+01
      vertex -2.401100e+01 -9.739000e+00 0.000000e+00
    endloop
  endfacet
  facet normal -5.579143e-01 8.298985e-01 0.000000e+00
    outer loop
      vertex -2.401100e+01 -9.739000e+00 1.100200e+01
      vertex -2.424900e+01 -9.899000e+00 0.000000e+00
      vertex -2.424900e+01 -9.899000e+00 1.100200e+01
    endloop
  endfacet
  facet normal 6.525227e-01 7.577692e-01 0.000000e+00
    outer loop
      vertex -2.555900e+01 -9.645000e+00 0.000000e+00
      vertex -2.534300e+01 -9.831000e+00 1.100200e+01
      vertex -2.534300e+01 -9.831000e+00 0.000000e+00
    endloop
  endfacet
  facet normal 6.525227e-01 7.577692e-01 0.000000e+00
    outer loop
      vertex -2.534300e+01 -9.831000e+00 1.100200e+01
      vertex -2.555900e+01 -9.645000e+00 0.000000e+00
      vertex -2.555900e+01 -9.645000e+00 1.100200e+01
    endloop
  endfacet
  facet normal -9.472811e-01 -3.204035e-01 0.000000e+00
    outer loop
      vertex -2.366500e+01 -8.699000e+00 1.100200e+01
      vertex -2.375700e+01 -8.427000e+00 0.000000e+00
      vertex -2.366500e+01 -8.699000e+00 0.000000e+00
    endloop
  endfacet
  facet normal -9.472811e-01 -3.204035e-01 0.000000e+00
    outer loop
      vertex -2.375700e+01 -8.427000e+00 0.000000e+00
      vertex -2.366500e+01 -8.699000e+00 1.100200e+01
      vertex -2.375700e+01 -8.427000e+00 1.100200e+01
    endloop
  endfacet
  facet normal 8.298984e-01 5.579146e-01 0.000000e+00
    outer loop
      vertex -2.571900e+01 -9.407001e+00 1.100200e+01
      vertex -2.555900e+01 -9.645000e+00 0.000000e+00
      vertex -2.571900e+01 -9.407001e+00 0.000000e+00
    endloop
  endfacet
  facet normal 8.298984e-01 5.579146e-01 0.000000e+00
    outer loop
      vertex -2.555900e+01 -9.645000e+00 0.000000e+00
      vertex -2.571900e+01 -9.407001e+00 1.100200e+01
      vertex -2.555900e+01 -9.645000e+00 1.100200e+01
    endloop
  endfacet
  facet normal 9.465591e-01 3.225307e-01 0.000000e+00
    outer loop
      vertex -2.581100e+01 -9.137000e+00 1.100200e+01
      vertex -2.571900e+01 -9.407001e+00 0.000000e+00
      vertex -2.581100e+01 -9.137000e+00 0.000000e+00
    endloop
  endfacet
  facet normal 9.465591e-01 3.225307e-01 0.000000e+00
    outer loop
      vertex -2.571900e+01 -9.407001e+00 0.000000e+00
      vertex -2.581100e+01 -9.137000e+00 1.100200e+01
      vertex -2.571900e+01 -9.407001e+00 1.100200e+01
    endloop
  endfacet
  facet normal 7.723451e-02 -9.970129e-01 0.000000e+00
    outer loop
      vertex -2.495700e+01 -7.845000e+00 1.100200e+01
      vertex -2.467300e+01 -7.823000e+00 0.000000e+00
      vertex -2.467300e+01 -7.823000e+00 1.100200e+01
    endloop
  endfacet
  facet normal 7.723451e-02 -9.970129e-01 0.000000e+00
    outer loop
      vertex -2.467300e+01 -7.823000e+00 0.000000e+00
      vertex -2.495700e+01 -7.845000e+00 1.100200e+01
      vertex -2.495700e+01 -7.845000e+00 0.000000e+00
    endloop
  endfacet
  facet normal -1.947805e-01 -9.808468e-01 0.000000e+00
    outer loop
      vertex -2.467300e+01 -7.823000e+00 1.100200e+01
      vertex -2.439100e+01 -7.879001e+00 0.000000e+00
      vertex -2.439100e+01 -7.879001e+00 1.100200e+01
    endloop
  endfacet
  facet normal -1.947805e-01 -9.808468e-01 0.000000e+00
    outer loop
      vertex -2.439100e+01 -7.879001e+00 0.000000e+00
      vertex -2.467300e+01 -7.823000e+00 1.100200e+01
      vertex -2.467300e+01 -7.823000e+00 0.000000e+00
    endloop
  endfacet
  facet normal -4.567661e-01 8.895868e-01 0.000000e+00
    outer loop
      vertex -3.296100e+01 7.825000e+00 0.000000e+00
      vertex -2.605100e+01 1.137300e+01 1.100200e+01
      vertex -2.605100e+01 1.137300e+01 0.000000e+00
    endloop
  endfacet
  facet normal -4.567661e-01 8.895868e-01 0.000000e+00
    outer loop
      vertex -2.605100e+01 1.137300e+01 1.100200e+01
      vertex -3.296100e+01 7.825000e+00 0.000000e+00
      vertex -3.296100e+01 7.825000e+00 1.100200e+01
    endloop
  endfacet
  facet normal -9.796823e-01 2.005557e-01 0.000000e+00
    outer loop
      vertex -2.605100e+01 1.137300e+01 1.100200e+01
      vertex -2.467900e+01 1.807500e+01 0.000000e+00
      vertex -2.605100e+01 1.137300e+01 0.000000e+00
    endloop
  endfacet
  facet normal -9.796366e-01 2.007787e-01 1.415997e-04
    outer loop
      vertex -2.467900e+01 1.807500e+01 0.000000e+00
      vertex -2.605100e+01 1.137300e+01 1.100200e+01
      vertex -2.330500e+01 2.477900e+01 0.000000e+00
    endloop
  endfacet
  facet normal -9.796823e-01 2.005557e-01 -1.416359e-04
    outer loop
      vertex -2.605100e+01 1.137300e+01 1.100200e+01
      vertex -2.467900e+01 1.807500e+01 1.100200e+01
      vertex -2.330500e+01 2.477900e+01 0.000000e+00
    endloop
  endfacet
  facet normal -9.796366e-01 2.007787e-01 0.000000e+00
    outer loop
      vertex -2.330500e+01 2.477900e+01 1.100200e+01
      vertex -2.330500e+01 2.477900e+01 0.000000e+00
      vertex -2.467900e+01 1.807500e+01 1.100200e+01
    endloop
  endfacet
  facet normal 4.388362e-01 8.985670e-01 0.000000e+00
    outer loop
      vertex -2.534300e+01 -9.831000e+00 0.000000e+00
      vertex -2.508500e+01 -9.957001e+00 1.100200e+01
      vertex -2.508500e+01 -9.957001e+00 0.000000e+00
    endloop
  endfacet
  facet normal 4.388362e-01 8.985670e-01 0.000000e+00
    outer loop
      vertex -2.508500e+01 -9.957001e+00 1.100200e+01
      vertex -2.534300e+01 -9.831000e+00 0.000000e+00
      vertex -2.534300e+01 -9.831000e+00 1.100200e+01
    endloop
  endfacet
  facet normal 6.951256e-01 -7.188883e-01 0.000000e+00
    outer loop
      vertex -2.704900e+01 -3.243100e+01 1.100200e+01
      vertex -2.130100e+01 -2.687300e+01 0.000000e+00
      vertex -2.130100e+01 -2.687300e+01 1.100200e+01
    endloop
  endfacet
  facet normal 6.951256e-01 -7.188883e-01 0.000000e+00
    outer loop
      vertex -2.130100e+01 -2.687300e+01 0.000000e+00
      vertex -2.704900e+01 -3.243100e+01 1.100200e+01
      vertex -2.704900e+01 -3.243100e+01 0.000000e+00
    endloop
  endfacet
  facet normal 1.961153e-01 9.805809e-01 0.000000e+00
    outer loop
      vertex -2.508500e+01 -9.957001e+00 0.000000e+00
      vertex -2.480500e+01 -1.001300e+01 1.100200e+01
      vertex -2.480500e+01 -1.001300e+01 0.000000e+00
    endloop
  endfacet
  facet normal 1.961153e-01 9.805809e-01 0.000000e+00
    outer loop
      vertex -2.480500e+01 -1.001300e+01 1.100200e+01
      vertex -2.508500e+01 -9.957001e+00 0.000000e+00
      vertex -2.508500e+01 -9.957001e+00 1.100200e+01
    endloop
  endfacet
  facet normal -6.565238e-01 -7.543053e-01 0.000000e+00
    outer loop
      vertex -2.413500e+01 -8.003000e+00 1.100200e+01
      vertex -2.391900e+01 -8.191000e+00 0.000000e+00
      vertex -2.391900e+01 -8.191000e+00 1.100200e+01
    endloop
  endfacet
  facet normal -6.565238e-01 -7.543053e-01 0.000000e+00
    outer loop
      vertex -2.391900e+01 -8.191000e+00 0.000000e+00
      vertex -2.413500e+01 -8.003000e+00 1.100200e+01
      vertex -2.413500e+01 -8.003000e+00 0.000000e+00
    endloop
  endfacet
  facet normal -3.225312e-01 9.465589e-01 0.000000e+00
    outer loop
      vertex -2.451900e+01 -9.991000e+00 0.000000e+00
      vertex -2.424900e+01 -9.899000e+00 1.100200e+01
      vertex -2.424900e+01 -9.899000e+00 0.000000e+00
    endloop
  endfacet
  facet normal -3.225312e-01 9.465589e-01 0.000000e+00
    outer loop
      vertex -2.424900e+01 -9.899000e+00 1.100200e+01
      vertex -2.451900e+01 -9.991000e+00 0.000000e+00
      vertex -2.451900e+01 -9.991000e+00 1.100200e+01
    endloop
  endfacet
  facet normal -6.576001e-01 -7.533672e-01 0.000000e+00
    outer loop
      vertex -2.030100e+01 -1.870500e+01 1.100200e+01
      vertex -1.888500e+01 -1.994100e+01 2.750000e+00
      vertex -1.888500e+01 -1.994100e+01 1.100200e+01
    endloop
  endfacet
  facet normal -6.682661e-01 -7.439153e-01 -3.245940e-03
    outer loop
      vertex -1.888500e+01 -1.994100e+01 2.750000e+00
      vertex -2.030100e+01 -1.870500e+01 1.100200e+01
      vertex -1.888500e+01 -1.992900e+01 0.000000e+00
    endloop
  endfacet
  facet normal -6.539539e-01 -7.565344e-01 0.000000e+00
    outer loop
      vertex -1.888500e+01 -1.992900e+01 0.000000e+00
      vertex -2.030100e+01 -1.870500e+01 1.100200e+01
      vertex -2.030100e+01 -1.870500e+01 0.000000e+00
    endloop
  endfacet
  facet normal -1.000000e+00 6.123234e-17 0.000000e+00
    outer loop
      vertex -2.704900e+01 -1.546100e+01 5.500000e+00
      vertex -2.704900e+01 -1.546100e+01 0.000000e+00
      vertex -2.704900e+01 -3.243100e+01 0.000000e+00
    endloop
  endfacet
  facet normal -1.000000e+00 6.123234e-17 0.000000e+00
    outer loop
      vertex -2.704900e+01 1.509000e+00 1.100200e+01
      vertex -2.704900e+01 1.509000e+00 0.000000e+00
      vertex -2.704900e+01 -1.546100e+01 5.500000e+00
    endloop
  endfacet
  facet normal 0.000000e+00 0.000000e+00 -1.000000e+00
    outer loop
      vertex -2.581100e+01 -9.137000e+00 0.000000e+00
      vertex -2.704900e+01 -1.546100e+01 0.000000e+00
      vertex -2.704900e+01 1.509000e+00 0.000000e+00
    endloop
  endfacet
  facet normal -1.000000e+00 6.123234e-17 0.000000e+00
    outer loop
      vertex -2.704900e+01 -1.546100e+01 5.500000e+00
      vertex -2.704900e+01 1.509000e+00 0.000000e+00
      vertex -2.704900e+01 -1.546100e+01 0.000000e+00
    endloop
  endfacet
  facet normal 0.000000e+00 0.000000e+00 1.000000e+00
    outer loop
      vertex -2.581100e+01 -9.137000e+00 1.100200e+01
      vertex -2.704900e+01 -1.546100e+01 1.100200e+01
      vertex -2.704900e+01 -3.243100e+01 1.100200e+01
    endloop
  endfacet
  facet normal -1.000000e+00 6.123234e-17 0.000000e+00
    outer loop
      vertex -2.704900e+01 -1.546100e+01 5.500000e+00
      vertex -2.704900e+01 -3.243100e+01 1.100200e+01
      vertex -2.704900e+01 -1.546100e+01 1.100200e+01
    endloop
  endfacet
  facet normal 0.000000e+00 0.000000e+00 1.000000e+00
    outer loop
      vertex -1.012300e+01 8.251000e+00 1.100200e+01
      vertex -1.733500e+01 5.103000e+00 1.100200e+01
      vertex -1.371300e+01 2.709000e+00 1.100200e+01
    endloop
  endfacet
  facet normal 0.000000e+00 0.000000e+00 1.000000e+00
    outer loop
      vertex -2.704900e+01 1.509000e+00 1.100200e+01
      vertex -1.371300e+01 2.709000e+00 1.100200e+01
      vertex -1.733500e+01 5.103000e+00 1.100200e+01
    endloop
  endfacet
  facet normal 0.000000e+00 0.000000e+00 1.000000e+00
    outer loop
      vertex -2.704900e+01 1.509000e+00 1.100200e+01
      vertex -1.733500e+01 5.103000e+00 1.100200e+01
      vertex -3.296100e+01 7.825000e+00 1.100200e+01
    endloop
  endfacet
  facet normal 0.000000e+00 0.000000e+00 1.000000e+00
    outer loop
      vertex -1.371300e+01 2.709000e+00 1.100200e+01
      vertex -2.704900e+01 1.509000e+00 1.100200e+01
      vertex -1.730500e+01 -2.831000e+00 1.100200e+01
    endloop
  endfacet
endsolid Default
