solid Default
  facet normal 1.000000e+00 0.000000e+00 0.000000e+00
    outer loop
      vertex 1.024478e+02 6.377293e+01 1.000000e-02
      vertex 1.024478e+02 -6.377293e+01 1.000000e-02
      vertex 1.024478e+02 6.377293e+01 6.409227e-16
    endloop
  endfacet
  facet normal 1.000000e+00 0.000000e+00 0.000000e+00
    outer loop
      vertex 1.024478e+02 6.377293e+01 6.409227e-16
      vertex 1.024478e+02 -6.377293e+01 1.000000e-02
      vertex 1.024478e+02 -6.377293e+01 8.450854e-15
    endloop
  endfacet
  facet normal 0.000000e+00 1.000000e+00 -6.123234e-17
    outer loop
      vertex -1.024478e+02 6.377293e+01 1.000000e-02
      vertex 1.024478e+02 6.377293e+01 1.000000e-02
      vertex -1.024478e+02 6.377293e+01 6.409227e-16
    endloop
  endfacet
  facet normal 0.000000e+00 1.000000e+00 -6.123234e-17
    outer loop
      vertex -1.024478e+02 6.377293e+01 6.409227e-16
      vertex 1.024478e+02 6.377293e+01 1.000000e-02
      vertex 1.024478e+02 6.377293e+01 6.409227e-16
    endloop
  endfacet
  facet normal -1.000000e+00 0.000000e+00 0.000000e+00
    outer loop
      vertex -1.024478e+02 -6.377293e+01 1.000000e-02
      vertex -1.024478e+02 6.377293e+01 1.000000e-02
      vertex -1.024478e+02 -6.377293e+01 8.450854e-15
    endloop
  endfacet
  facet normal -1.000000e+00 0.000000e+00 0.000000e+00
    outer loop
      vertex -1.024478e+02 -6.377293e+01 8.450854e-15
      vertex -1.024478e+02 6.377293e+01 1.000000e-02
      vertex -1.024478e+02 6.377293e+01 6.409227e-16
    endloop
  endfacet
  facet normal 0.000000e+00 -1.000000e+00 6.123234e-17
    outer loop
      vertex 1.024478e+02 -6.377293e+01 1.000000e-02
      vertex -1.024478e+02 -6.377293e+01 1.000000e-02
      vertex 1.024478e+02 -6.377293e+01 8.450854e-15
    endloop
  endfacet
  facet normal 0.000000e+00 -1.000000e+00 6.123234e-17
    outer loop
      vertex 1.024478e+02 -6.377293e+01 8.450854e-15
      vertex -1.024478e+02 -6.377293e+01 1.000000e-02
      vertex -1.024478e+02 -6.377293e+01 8.450854e-15
    endloop
  endfacet
  facet normal 0.000000e+00 6.123234e-17 1.000000e+00
    outer loop
      vertex -1.024478e+02 6.377293e+01 1.000000e-02
      vertex -1.024478e+02 -6.377293e+01 1.000000e-02
      vertex 1.024478e+02 6.377293e+01 1.000000e-02
    endloop
  endfacet
  facet normal 0.000000e+00 6.123234e-17 1.000000e+00
    outer loop
      vertex 1.024478e+02 6.377293e+01 1.000000e-02
      vertex -1.024478e+02 -6.377293e+01 1.000000e-02
      vertex 1.024478e+02 -6.377293e+01 1.000000e-02
    endloop
  endfacet
  facet normal 0.000000e+00 -6.123234e-17 -1.000000e+00
    outer loop
      vertex -1.024478e+02 -6.377293e+01 8.450854e-15
      vertex -1.024478e+02 6.377293e+01 6.409227e-16
      vertex 1.024478e+02 -6.377293e+01 8.450854e-15
    endloop
  endfacet
  facet normal 0.000000e+00 -6.123234e-17 -1.000000e+00
    outer loop
      vertex 1.024478e+02 -6.377293e+01 8.450854e-15
      vertex -1.024478e+02 6.377293e+01 6.409227e-16
      vertex 1.024478e+02 6.377293e+01 6.409227e-16
    endloop
  endfacet
  facet normal 0.000000e+00 6.123234e-17 1.000000e+00
    outer loop
      vertex -9.076407e+01 -5.461830e+01 6.000000e-01
      vertex -9.251407e+01 -5.636830e+01 6.000000e-01
      vertex 9.251407e+01 -5.636830e+01 6.000000e-01
    endloop
  endfacet
  facet normal 0.000000e+00 6.123234e-17 1.000000e+00
    outer loop
      vertex -9.251407e+01 -5.636830e+01 6.000000e-01
      vertex -9.076407e+01 -5.461830e+01 6.000000e-01
      vertex -9.251407e+01 5.636829e+01 6.000000e-01
    endloop
  endfacet
  facet normal 0.000000e+00 6.123234e-17 1.000000e+00
    outer loop
      vertex -9.251407e+01 5.636829e+01 6.000000e-01
      vertex -9.076407e+01 -5.461830e+01 6.000000e-01
      vertex -9.076407e+01 5.461829e+01 6.000000e-01
    endloop
  endfacet
  facet normal 0.000000e+00 6.123234e-17 1.000000e+00
    outer loop
      vertex -9.251407e+01 5.636829e+01 6.000000e-01
      vertex -9.076407e+01 5.461829e+01 6.000000e-01
      vertex 9.251407e+01 5.636829e+01 6.000000e-01
    endloop
  endfacet
  facet normal 0.000000e+00 6.123234e-17 1.000000e+00
    outer loop
      vertex 9.251407e+01 5.636829e+01 6.000000e-01
      vertex -9.076407e+01 5.461829e+01 6.000000e-01
      vertex 9.076407e+01 5.461829e+01 6.000000e-01
    endloop
  endfacet
  facet normal 0.000000e+00 6.123234e-17 1.000000e+00
    outer loop
      vertex 9.251407e+01 5.636829e+01 6.000000e-01
      vertex 9.076407e+01 5.461829e+01 6.000000e-01
      vertex 9.251407e+01 -5.636830e+01 6.000000e-01
    endloop
  endfacet
  facet normal 0.000000e+00 6.123234e-17 1.000000e+00
    outer loop
      vertex 9.251407e+01 -5.636830e+01 6.000000e-01
      vertex 9.076407e+01 5.461829e+01 6.000000e-01
      vertex 9.076407e+01 -5.461830e+01 6.000000e-01
    endloop
  endfacet
  facet normal 0.000000e+00 6.123234e-17 1.000000e+00
    outer loop
      vertex 9.251407e+01 -5.636830e+01 6.000000e-01
      vertex 9.076407e+01 -5.461830e+01 6.000000e-01
      vertex -9.076407e+01 -5.461830e+01 6.000000e-01
    endloop
  endfacet
  facet normal 0.000000e+00 -6.123234e-17 -1.000000e+00
    outer loop
      vertex 9.076407e+01 -5.461830e+01 7.890295e-15
      vertex 9.251407e+01 -5.636830e+01 7.997451e-15
      vertex -9.076407e+01 -5.461830e+01 7.890295e-15
    endloop
  endfacet
  facet normal 0.000000e+00 -6.123234e-17 -1.000000e+00
    outer loop
      vertex -9.076407e+01 -5.461830e+01 7.890295e-15
      vertex 9.251407e+01 -5.636830e+01 7.997451e-15
      vertex -9.251407e+01 -5.636830e+01 7.997451e-15
    endloop
  endfacet
  facet normal 0.000000e+00 -6.123234e-17 -1.000000e+00
    outer loop
      vertex -9.076407e+01 -5.461830e+01 7.890295e-15
      vertex -9.251407e+01 -5.636830e+01 7.997451e-15
      vertex -9.076407e+01 5.461829e+01 1.201482e-15
    endloop
  endfacet
  facet normal 0.000000e+00 -6.123234e-17 -1.000000e+00
    outer loop
      vertex -9.076407e+01 5.461829e+01 1.201482e-15
      vertex -9.251407e+01 -5.636830e+01 7.997451e-15
      vertex -9.251407e+01 5.636829e+01 1.094326e-15
    endloop
  endfacet
  facet normal 0.000000e+00 -6.123234e-17 -1.000000e+00
    outer loop
      vertex -9.076407e+01 5.461829e+01 1.201482e-15
      vertex -9.251407e+01 5.636829e+01 1.094326e-15
      vertex 9.076407e+01 5.461829e+01 1.201482e-15
    endloop
  endfacet
  facet normal 0.000000e+00 -6.123234e-17 -1.000000e+00
    outer loop
      vertex 9.076407e+01 5.461829e+01 1.201482e-15
      vertex -9.251407e+01 5.636829e+01 1.094326e-15
      vertex 9.251407e+01 5.636829e+01 1.094326e-15
    endloop
  endfacet
  facet normal 0.000000e+00 -6.123234e-17 -1.000000e+00
    outer loop
      vertex 9.076407e+01 5.461829e+01 1.201482e-15
      vertex 9.251407e+01 5.636829e+01 1.094326e-15
      vertex 9.076407e+01 -5.461830e+01 7.890295e-15
    endloop
  endfacet
  facet normal 0.000000e+00 -6.123234e-17 -1.000000e+00
    outer loop
      vertex 9.076407e+01 -5.461830e+01 7.890295e-15
      vertex 9.251407e+01 5.636829e+01 1.094326e-15
      vertex 9.251407e+01 -5.636830e+01 7.997451e-15
    endloop
  endfacet
  facet normal 1.000000e+00 0.000000e+00 0.000000e+00
    outer loop
      vertex 9.251407e+01 5.636829e+01 6.000000e-01
      vertex 9.251407e+01 -5.636830e+01 6.000000e-01
      vertex 9.251407e+01 5.636829e+01 1.094326e-15
    endloop
  endfacet
  facet normal 1.000000e+00 0.000000e+00 0.000000e+00
    outer loop
      vertex 9.251407e+01 5.636829e+01 1.094326e-15
      vertex 9.251407e+01 -5.636830e+01 6.000000e-01
      vertex 9.251407e+01 -5.636830e+01 7.997451e-15
    endloop
  endfacet
  facet normal 0.000000e+00 1.000000e+00 -6.123234e-17
    outer loop
      vertex -9.251407e+01 5.636829e+01 6.000000e-01
      vertex 9.251407e+01 5.636829e+01 6.000000e-01
      vertex -9.251407e+01 5.636829e+01 1.094326e-15
    endloop
  endfacet
  facet normal 0.000000e+00 1.000000e+00 -6.123234e-17
    outer loop
      vertex -9.251407e+01 5.636829e+01 1.094326e-15
      vertex 9.251407e+01 5.636829e+01 6.000000e-01
      vertex 9.251407e+01 5.636829e+01 1.094326e-15
    endloop
  endfacet
  facet normal -1.000000e+00 0.000000e+00 0.000000e+00
    outer loop
      vertex -9.251407e+01 -5.636830e+01 6.000000e-01
      vertex -9.251407e+01 5.636829e+01 6.000000e-01
      vertex -9.251407e+01 -5.636830e+01 7.997451e-15
    endloop
  endfacet
  facet normal -1.000000e+00 0.000000e+00 0.000000e+00
    outer loop
      vertex -9.251407e+01 -5.636830e+01 7.997451e-15
      vertex -9.251407e+01 5.636829e+01 6.000000e-01
      vertex -9.251407e+01 5.636829e+01 1.094326e-15
    endloop
  endfacet
  facet normal 0.000000e+00 -1.000000e+00 6.123234e-17
    outer loop
      vertex 9.251407e+01 -5.636830e+01 6.000000e-01
      vertex -9.251407e+01 -5.636830e+01 6.000000e-01
      vertex 9.251407e+01 -5.636830e+01 7.997451e-15
    endloop
  endfacet
  facet normal 0.000000e+00 -1.000000e+00 6.123234e-17
    outer loop
      vertex 9.251407e+01 -5.636830e+01 7.997451e-15
      vertex -9.251407e+01 -5.636830e+01 6.000000e-01
      vertex -9.251407e+01 -5.636830e+01 7.997451e-15
    endloop
  endfacet
  facet normal 1.000000e+00 0.000000e+00 0.000000e+00
    outer loop
      vertex -9.076407e+01 5.461829e+01 6.000000e-01
      vertex -9.076407e+01 -5.461830e+01 6.000000e-01
      vertex -9.076407e+01 5.461829e+01 1.201482e-15
    endloop
  endfacet
  facet normal 1.000000e+00 0.000000e+00 0.000000e+00
    outer loop
      vertex -9.076407e+01 5.461829e+01 1.201482e-15
      vertex -9.076407e+01 -5.461830e+01 6.000000e-01
      vertex -9.076407e+01 -5.461830e+01 7.890295e-15
    endloop
  endfacet
  facet normal 0.000000e+00 1.000000e+00 -6.123234e-17
    outer loop
      vertex -9.076407e+01 -5.461830e+01 6.000000e-01
      vertex 9.076407e+01 -5.461830e+01 6.000000e-01
      vertex -9.076407e+01 -5.461830e+01 7.890295e-15
    endloop
  endfacet
  facet normal 0.000000e+00 1.000000e+00 -6.123234e-17
    outer loop
      vertex -9.076407e+01 -5.461830e+01 7.890295e-15
      vertex 9.076407e+01 -5.461830e+01 6.000000e-01
      vertex 9.076407e+01 -5.461830e+01 7.890295e-15
    endloop
  endfacet
  facet normal -1.000000e+00 -1.270434e-16 7.779164e-33
    outer loop
      vertex 9.076407e+01 -5.461830e+01 6.000000e-01
      vertex 9.076407e+01 5.461829e+01 6.000000e-01
      vertex 9.076407e+01 -5.461830e+01 7.890295e-15
    endloop
  endfacet
  facet normal -1.000000e+00 -1.270434e-16 7.779164e-33
    outer loop
      vertex 9.076407e+01 -5.461830e+01 7.890295e-15
      vertex 9.076407e+01 5.461829e+01 6.000000e-01
      vertex 9.076407e+01 5.461829e+01 1.201482e-15
    endloop
  endfacet
  facet normal 0.000000e+00 -1.000000e+00 6.123234e-17
    outer loop
      vertex 9.076407e+01 5.461829e+01 6.000000e-01
      vertex -9.076407e+01 5.461829e+01 6.000000e-01
      vertex 9.076407e+01 5.461829e+01 1.201482e-15
    endloop
  endfacet
  facet normal 0.000000e+00 -1.000000e+00 6.123234e-17
    outer loop
      vertex 9.076407e+01 5.461829e+01 1.201482e-15
      vertex -9.076407e+01 5.461829e+01 6.000000e-01
      vertex -9.076407e+01 5.461829e+01 1.201482e-15
    endloop
  endfacet
  facet normal -1.000000e+00 0.000000e+00 0.000000e+00
    outer loop
      vertex -4.326407e+01 -3.849975e+01 6.903319e-15
      vertex -4.326407e+01 -4.798830e+01 7.484326e-15
      vertex -4.326407e+01 -3.849975e+01 2.000000e+00
    endloop
  endfacet
  facet normal -1.000000e+00 0.000000e+00 0.000000e+00
    outer loop
      vertex -4.326407e+01 -3.849975e+01 2.000000e+00
      vertex -4.326407e+01 -4.798830e+01 7.484326e-15
      vertex -4.326407e+01 -4.798830e+01 2.000000e+00
    endloop
  endfacet
  facet normal 0.000000e+00 -1.000000e+00 6.123234e-17
    outer loop
      vertex -6.576408e+01 -4.798830e+01 7.484326e-15
      vertex -6.326408e+01 -4.798830e+01 7.484326e-15
      vertex -6.576408e+01 -4.798830e+01 3.000000e+00
    endloop
  endfacet
  facet normal 0.000000e+00 -1.000000e+00 6.123234e-17
    outer loop
      vertex -6.576408e+01 -4.798830e+01 3.000000e+00
      vertex -6.326408e+01 -4.798830e+01 7.484326e-15
      vertex -6.326408e+01 -4.798830e+01 2.000000e+00
    endloop
  endfacet
  facet normal 0.000000e+00 -1.000000e+00 6.123234e-17
    outer loop
      vertex -6.576408e+01 -4.798830e+01 3.000000e+00
      vertex -6.326408e+01 -4.798830e+01 2.000000e+00
      vertex -4.326407e+01 -4.798830e+01 2.000000e+00
    endloop
  endfacet
  facet normal 0.000000e+00 -1.000000e+00 6.123234e-17
    outer loop
      vertex -2.076408e+01 -4.798830e+01 7.484326e-15
      vertex -1.826408e+01 -4.798830e+01 7.484326e-15
      vertex -2.076408e+01 -4.798830e+01 2.000000e+00
    endloop
  endfacet
  facet normal 0.000000e+00 -1.000000e+00 6.123234e-17
    outer loop
      vertex -2.076408e+01 -4.798830e+01 2.000000e+00
      vertex -1.826408e+01 -4.798830e+01 7.484326e-15
      vertex -1.826408e+01 -4.798830e+01 3.000000e+00
    endloop
  endfacet
  facet normal 0.000000e+00 -1.000000e+00 6.123234e-17
    outer loop
      vertex -2.076408e+01 -4.798830e+01 2.000000e+00
      vertex -1.826408e+01 -4.798830e+01 3.000000e+00
      vertex -4.076407e+01 -4.798830e+01 2.000000e+00
    endloop
  endfacet
  facet normal 0.000000e+00 -1.000000e+00 6.123234e-17
    outer loop
      vertex -4.326407e+01 -4.798830e+01 7.484326e-15
      vertex -4.076407e+01 -4.798830e+01 7.484326e-15
      vertex -4.326407e+01 -4.798830e+01 2.000000e+00
    endloop
  endfacet
  facet normal 0.000000e+00 -1.000000e+00 6.123234e-17
    outer loop
      vertex -4.326407e+01 -4.798830e+01 2.000000e+00
      vertex -4.076407e+01 -4.798830e+01 7.484326e-15
      vertex -4.076407e+01 -4.798830e+01 2.000000e+00
    endloop
  endfacet
  facet normal 0.000000e+00 -1.000000e+00 6.123234e-17
    outer loop
      vertex -4.326407e+01 -4.798830e+01 2.000000e+00
      vertex -4.076407e+01 -4.798830e+01 2.000000e+00
      vertex -6.576408e+01 -4.798830e+01 3.000000e+00
    endloop
  endfacet
  facet normal 0.000000e+00 -1.000000e+00 6.123234e-17
    outer loop
      vertex -6.576408e+01 -4.798830e+01 3.000000e+00
      vertex -4.076407e+01 -4.798830e+01 2.000000e+00
      vertex -1.826408e+01 -4.798830e+01 3.000000e+00
    endloop
  endfacet
  facet normal 1.000000e+00 0.000000e+00 0.000000e+00
    outer loop
      vertex -4.076407e+01 -4.798830e+01 7.484326e-15
      vertex -4.076407e+01 -3.849975e+01 6.903319e-15
      vertex -4.076407e+01 -4.798830e+01 2.000000e+00
    endloop
  endfacet
  facet normal 1.000000e+00 0.000000e+00 0.000000e+00
    outer loop
      vertex -4.076407e+01 -4.798830e+01 2.000000e+00
      vertex -4.076407e+01 -3.849975e+01 6.903319e-15
      vertex -4.076407e+01 -3.849975e+01 2.000000e+00
    endloop
  endfacet
  facet normal 0.000000e+00 -1.000000e+00 6.123234e-17
    outer loop
      vertex -4.076407e+01 -3.849975e+01 6.903319e-15
      vertex -2.076408e+01 -3.849975e+01 6.903319e-15
      vertex -4.076407e+01 -3.849975e+01 2.000000e+00
    endloop
  endfacet
  facet normal 0.000000e+00 -1.000000e+00 6.123234e-17
    outer loop
      vertex -4.076407e+01 -3.849975e+01 2.000000e+00
      vertex -2.076408e+01 -3.849975e+01 6.903319e-15
      vertex -2.076408e+01 -3.849975e+01 2.000000e+00
    endloop
  endfacet
  facet normal -1.000000e+00 0.000000e+00 0.000000e+00
    outer loop
      vertex -2.076408e+01 -3.849975e+01 6.903319e-15
      vertex -2.076408e+01 -4.798830e+01 7.484326e-15
      vertex -2.076408e+01 -3.849975e+01 2.000000e+00
    endloop
  endfacet
  facet normal -1.000000e+00 0.000000e+00 0.000000e+00
    outer loop
      vertex -2.076408e+01 -3.849975e+01 2.000000e+00
      vertex -2.076408e+01 -4.798830e+01 7.484326e-15
      vertex -2.076408e+01 -4.798830e+01 2.000000e+00
    endloop
  endfacet
  facet normal 1.000000e+00 2.315175e-15 -1.417636e-31
    outer loop
      vertex -1.826408e+01 -4.798830e+01 3.000000e+00
      vertex -1.826408e+01 -4.798830e+01 7.484326e-15
      vertex -1.826408e+01 -3.599976e+01 3.000000e+00
    endloop
  endfacet
  facet normal 1.000000e+00 2.315175e-15 -1.417636e-31
    outer loop
      vertex -1.826408e+01 -3.599976e+01 3.000000e+00
      vertex -1.826408e+01 -4.798830e+01 7.484326e-15
      vertex -1.826408e+01 -3.599976e+01 6.750239e-15
    endloop
  endfacet
  facet normal 0.000000e+00 1.000000e+00 -6.123234e-17
    outer loop
      vertex -1.826408e+01 -3.599976e+01 3.000000e+00
      vertex -1.826408e+01 -3.599976e+01 6.750239e-15
      vertex -6.576408e+01 -3.599976e+01 3.000000e+00
    endloop
  endfacet
  facet normal 0.000000e+00 1.000000e+00 -6.123234e-17
    outer loop
      vertex -6.576408e+01 -3.599976e+01 3.000000e+00
      vertex -1.826408e+01 -3.599976e+01 6.750239e-15
      vertex -6.576408e+01 -3.599976e+01 6.750239e-15
    endloop
  endfacet
  facet normal -1.000000e+00 0.000000e+00 0.000000e+00
    outer loop
      vertex -6.576408e+01 -3.599976e+01 3.000000e+00
      vertex -6.576408e+01 -3.599976e+01 6.750239e-15
      vertex -6.576408e+01 -4.798830e+01 3.000000e+00
    endloop
  endfacet
  facet normal -1.000000e+00 0.000000e+00 0.000000e+00
    outer loop
      vertex -6.576408e+01 -4.798830e+01 3.000000e+00
      vertex -6.576408e+01 -3.599976e+01 6.750239e-15
      vertex -6.576408e+01 -4.798830e+01 7.484326e-15
    endloop
  endfacet
  facet normal 1.000000e+00 0.000000e+00 0.000000e+00
    outer loop
      vertex -6.326408e+01 -4.798830e+01 7.484326e-15
      vertex -6.326408e+01 -3.849975e+01 6.903319e-15
      vertex -6.326408e+01 -4.798830e+01 2.000000e+00
    endloop
  endfacet
  facet normal 1.000000e+00 0.000000e+00 0.000000e+00
    outer loop
      vertex -6.326408e+01 -4.798830e+01 2.000000e+00
      vertex -6.326408e+01 -3.849975e+01 6.903319e-15
      vertex -6.326408e+01 -3.849975e+01 2.000000e+00
    endloop
  endfacet
  facet normal 0.000000e+00 -1.000000e+00 6.123234e-17
    outer loop
      vertex -6.326408e+01 -3.849975e+01 6.903319e-15
      vertex -4.326407e+01 -3.849975e+01 6.903319e-15
      vertex -6.326408e+01 -3.849975e+01 2.000000e+00
    endloop
  endfacet
  facet normal 0.000000e+00 -1.000000e+00 6.123234e-17
    outer loop
      vertex -6.326408e+01 -3.849975e+01 2.000000e+00
      vertex -4.326407e+01 -3.849975e+01 6.903319e-15
      vertex -4.326407e+01 -3.849975e+01 2.000000e+00
    endloop
  endfacet
  facet normal 0.000000e+00 -6.123234e-17 -1.000000e+00
    outer loop
      vertex -1.826408e+01 -4.798830e+01 7.484326e-15
      vertex -2.076408e+01 -4.798830e+01 7.484326e-15
      vertex -1.826408e+01 -3.599976e+01 6.750239e-15
    endloop
  endfacet
  facet normal 0.000000e+00 -6.123234e-17 -1.000000e+00
    outer loop
      vertex -1.826408e+01 -3.599976e+01 6.750239e-15
      vertex -2.076408e+01 -4.798830e+01 7.484326e-15
      vertex -2.076408e+01 -3.849975e+01 6.903319e-15
    endloop
  endfacet
  facet normal 0.000000e+00 -6.123234e-17 -1.000000e+00
    outer loop
      vertex -1.826408e+01 -3.599976e+01 6.750239e-15
      vertex -2.076408e+01 -3.849975e+01 6.903319e-15
      vertex -4.076407e+01 -3.849975e+01 6.903319e-15
    endloop
  endfacet
  facet normal 0.000000e+00 -6.123234e-17 -1.000000e+00
    outer loop
      vertex -6.326408e+01 -4.798830e+01 7.484326e-15
      vertex -6.576408e+01 -4.798830e+01 7.484326e-15
      vertex -6.326408e+01 -3.849975e+01 6.903319e-15
    endloop
  endfacet
  facet normal 0.000000e+00 -6.123234e-17 -1.000000e+00
    outer loop
      vertex -6.326408e+01 -3.849975e+01 6.903319e-15
      vertex -6.576408e+01 -4.798830e+01 7.484326e-15
      vertex -6.576408e+01 -3.599976e+01 6.750239e-15
    endloop
  endfacet
  facet normal 0.000000e+00 -6.123234e-17 -1.000000e+00
    outer loop
      vertex -6.326408e+01 -3.849975e+01 6.903319e-15
      vertex -6.576408e+01 -3.599976e+01 6.750239e-15
      vertex -4.326407e+01 -3.849975e+01 6.903319e-15
    endloop
  endfacet
  facet normal 0.000000e+00 -6.123234e-17 -1.000000e+00
    outer loop
      vertex -4.076407e+01 -4.798830e+01 7.484326e-15
      vertex -4.326407e+01 -4.798830e+01 7.484326e-15
      vertex -4.076407e+01 -3.849975e+01 6.903319e-15
    endloop
  endfacet
  facet normal 0.000000e+00 -6.123234e-17 -1.000000e+00
    outer loop
      vertex -4.076407e+01 -3.849975e+01 6.903319e-15
      vertex -4.326407e+01 -4.798830e+01 7.484326e-15
      vertex -4.326407e+01 -3.849975e+01 6.903319e-15
    endloop
  endfacet
  facet normal 0.000000e+00 -6.123234e-17 -1.000000e+00
    outer loop
      vertex -4.076407e+01 -3.849975e+01 6.903319e-15
      vertex -4.326407e+01 -3.849975e+01 6.903319e-15
      vertex -1.826408e+01 -3.599976e+01 6.750239e-15
    endloop
  endfacet
  facet normal 0.000000e+00 -6.123234e-17 -1.000000e+00
    outer loop
      vertex -1.826408e+01 -3.599976e+01 6.750239e-15
      vertex -4.326407e+01 -3.849975e+01 6.903319e-15
      vertex -6.576408e+01 -3.599976e+01 6.750239e-15
    endloop
  endfacet
  facet normal 0.000000e+00 -6.123234e-17 -1.000000e+00
    outer loop
      vertex -4.076407e+01 -3.849975e+01 2.000000e+00
      vertex -2.076408e+01 -3.849975e+01 2.000000e+00
      vertex -4.076407e+01 -4.798830e+01 2.000000e+00
    endloop
  endfacet
  facet normal 0.000000e+00 -6.123234e-17 -1.000000e+00
    outer loop
      vertex -4.076407e+01 -4.798830e+01 2.000000e+00
      vertex -2.076408e+01 -3.849975e+01 2.000000e+00
      vertex -2.076408e+01 -4.798830e+01 2.000000e+00
    endloop
  endfacet
  facet normal 0.000000e+00 -6.123234e-17 -1.000000e+00
    outer loop
      vertex -4.326407e+01 -4.798830e+01 2.000000e+00
      vertex -6.326408e+01 -4.798830e+01 2.000000e+00
      vertex -4.326407e+01 -3.849975e+01 2.000000e+00
    endloop
  endfacet
  facet normal 0.000000e+00 -6.123234e-17 -1.000000e+00
    outer loop
      vertex -4.326407e+01 -3.849975e+01 2.000000e+00
      vertex -6.326408e+01 -4.798830e+01 2.000000e+00
      vertex -6.326408e+01 -3.849975e+01 2.000000e+00
    endloop
  endfacet
  facet normal 0.000000e+00 6.123234e-17 1.000000e+00
    outer loop
      vertex -1.826408e+01 -4.798830e+01 3.000000e+00
      vertex -1.826408e+01 -3.599976e+01 3.000000e+00
      vertex -6.576408e+01 -4.798830e+01 3.000000e+00
    endloop
  endfacet
  facet normal 0.000000e+00 6.123234e-17 1.000000e+00
    outer loop
      vertex -6.576408e+01 -4.798830e+01 3.000000e+00
      vertex -1.826408e+01 -3.599976e+01 3.000000e+00
      vertex -6.576408e+01 -3.599976e+01 3.000000e+00
    endloop
  endfacet
  facet normal -1.000000e+00 0.000000e+00 0.000000e+00
    outer loop
      vertex -1.500001e+01 1.999989e+00 2.000000e+00
      vertex -1.500001e+01 1.300000e+01 2.000000e+00
      vertex -1.500001e+01 1.999989e+00 4.423423e-15
    endloop
  endfacet
  facet normal -1.000000e+00 0.000000e+00 0.000000e+00
    outer loop
      vertex -1.500001e+01 1.999989e+00 4.423423e-15
      vertex -1.500001e+01 1.300000e+01 2.000000e+00
      vertex -1.500001e+01 1.300000e+01 3.749869e-15
    endloop
  endfacet
  facet normal 0.000000e+00 -1.000000e+00 6.123234e-17
    outer loop
      vertex -4.000008e+00 1.999989e+00 2.000000e+00
      vertex -1.500001e+01 1.999989e+00 2.000000e+00
      vertex -4.000008e+00 1.999989e+00 4.423423e-15
    endloop
  endfacet
  facet normal 0.000000e+00 -1.000000e+00 6.123234e-17
    outer loop
      vertex -4.000008e+00 1.999989e+00 4.423423e-15
      vertex -1.500001e+01 1.999989e+00 2.000000e+00
      vertex -1.500001e+01 1.999989e+00 4.423423e-15
    endloop
  endfacet
  facet normal -1.000000e+00 0.000000e+00 0.000000e+00
    outer loop
      vertex -4.000008e+00 -2.000011e+00 2.000000e+00
      vertex -4.000008e+00 1.999989e+00 2.000000e+00
      vertex -4.000008e+00 -2.000011e+00 4.668354e-15
    endloop
  endfacet
  facet normal -1.000000e+00 0.000000e+00 0.000000e+00
    outer loop
      vertex -4.000008e+00 -2.000011e+00 4.668354e-15
      vertex -4.000008e+00 1.999989e+00 2.000000e+00
      vertex -4.000008e+00 1.999989e+00 4.423423e-15
    endloop
  endfacet
  facet normal 0.000000e+00 1.000000e+00 -6.123234e-17
    outer loop
      vertex -1.710000e+01 -2.000011e+00 2.000000e+00
      vertex -4.000008e+00 -2.000011e+00 2.000000e+00
      vertex -1.710000e+01 -2.000011e+00 4.668354e-15
    endloop
  endfacet
  facet normal 0.000000e+00 1.000000e+00 -6.123234e-17
    outer loop
      vertex -1.710000e+01 -2.000011e+00 4.668354e-15
      vertex -4.000008e+00 -2.000011e+00 2.000000e+00
      vertex -4.000008e+00 -2.000011e+00 4.668354e-15
    endloop
  endfacet
  facet normal 0.000000e+00 -1.000000e+00 6.123234e-17
    outer loop
      vertex -2.000000e+00 -1.500000e+01 2.000000e+00
      vertex -1.386853e+01 -1.500000e+01 2.000000e+00
      vertex -2.000000e+00 -1.500000e+01 5.464376e-15
    endloop
  endfacet
  facet normal 0.000000e+00 -1.000000e+00 6.123234e-17
    outer loop
      vertex -2.000000e+00 -1.500000e+01 5.464376e-15
      vertex -1.386853e+01 -1.500000e+01 2.000000e+00
      vertex -1.386853e+01 -1.500000e+01 5.464376e-15
    endloop
  endfacet
  facet normal 1.000000e+00 0.000000e+00 0.000000e+00
    outer loop
      vertex -2.000000e+00 -4.000004e+00 2.000000e+00
      vertex -2.000000e+00 -1.500000e+01 2.000000e+00
      vertex -2.000000e+00 -4.000004e+00 4.790818e-15
    endloop
  endfacet
  facet normal 1.000000e+00 0.000000e+00 0.000000e+00
    outer loop
      vertex -2.000000e+00 -4.000004e+00 4.790818e-15
      vertex -2.000000e+00 -1.500000e+01 2.000000e+00
      vertex -2.000000e+00 -1.500000e+01 5.464376e-15
    endloop
  endfacet
  facet normal 0.000000e+00 -1.000000e+00 6.123234e-17
    outer loop
      vertex 2.000000e+00 -4.000004e+00 2.000000e+00
      vertex -2.000000e+00 -4.000004e+00 2.000000e+00
      vertex 2.000000e+00 -4.000004e+00 4.790818e-15
    endloop
  endfacet
  facet normal 0.000000e+00 -1.000000e+00 6.123234e-17
    outer loop
      vertex 2.000000e+00 -4.000004e+00 4.790818e-15
      vertex -2.000000e+00 -4.000004e+00 2.000000e+00
      vertex -2.000000e+00 -4.000004e+00 4.790818e-15
    endloop
  endfacet
  facet normal -1.000000e+00 0.000000e+00 0.000000e+00
    outer loop
      vertex 2.000000e+00 -1.500000e+01 2.000000e+00
      vertex 2.000000e+00 -4.000004e+00 2.000000e+00
      vertex 2.000000e+00 -1.500000e+01 5.464376e-15
    endloop
  endfacet
  facet normal -1.000000e+00 0.000000e+00 0.000000e+00
    outer loop
      vertex 2.000000e+00 -1.500000e+01 5.464376e-15
      vertex 2.000000e+00 -4.000004e+00 2.000000e+00
      vertex 2.000000e+00 -4.000004e+00 4.790818e-15
    endloop
  endfacet
  facet normal 1.261617e-15 -1.000000e+00 6.123234e-17
    outer loop
      vertex 1.386852e+01 -1.500000e+01 2.000000e+00
      vertex 2.000000e+00 -1.500000e+01 2.000000e+00
      vertex 1.386852e+01 -1.500000e+01 5.464376e-15
    endloop
  endfacet
  facet normal 1.261617e-15 -1.000000e+00 6.123234e-17
    outer loop
      vertex 1.386852e+01 -1.500000e+01 5.464376e-15
      vertex 2.000000e+00 -1.500000e+01 2.000000e+00
      vertex 2.000000e+00 -1.500000e+01 5.464376e-15
    endloop
  endfacet
  facet normal 0.000000e+00 1.000000e+00 -6.123234e-17
    outer loop
      vertex 3.999992e+00 -2.000011e+00 2.000000e+00
      vertex 1.709999e+01 -2.000011e+00 2.000000e+00
      vertex 3.999992e+00 -2.000011e+00 4.668354e-15
    endloop
  endfacet
  facet normal 0.000000e+00 1.000000e+00 -6.123234e-17
    outer loop
      vertex 3.999992e+00 -2.000011e+00 4.668354e-15
      vertex 1.709999e+01 -2.000011e+00 2.000000e+00
      vertex 1.709999e+01 -2.000011e+00 4.668354e-15
    endloop
  endfacet
  facet normal 1.000000e+00 0.000000e+00 0.000000e+00
    outer loop
      vertex 3.999992e+00 1.999989e+00 2.000000e+00
      vertex 3.999992e+00 -2.000011e+00 2.000000e+00
      vertex 3.999992e+00 1.999989e+00 4.423423e-15
    endloop
  endfacet
  facet normal 1.000000e+00 0.000000e+00 0.000000e+00
    outer loop
      vertex 3.999992e+00 1.999989e+00 4.423423e-15
      vertex 3.999992e+00 -2.000011e+00 2.000000e+00
      vertex 3.999992e+00 -2.000011e+00 4.668354e-15
    endloop
  endfacet
  facet normal 0.000000e+00 -1.000000e+00 6.123234e-17
    outer loop
      vertex 1.500000e+01 1.999989e+00 2.000000e+00
      vertex 3.999992e+00 1.999989e+00 2.000000e+00
      vertex 1.500000e+01 1.999989e+00 4.423423e-15
    endloop
  endfacet
  facet normal 0.000000e+00 -1.000000e+00 6.123234e-17
    outer loop
      vertex 1.500000e+01 1.999989e+00 4.423423e-15
      vertex 3.999992e+00 1.999989e+00 2.000000e+00
      vertex 3.999992e+00 1.999989e+00 4.423423e-15
    endloop
  endfacet
  facet normal 1.000000e+00 -1.261617e-15 7.725176e-32
    outer loop
      vertex 1.500000e+01 1.300000e+01 2.000000e+00
      vertex 1.500000e+01 1.999989e+00 2.000000e+00
      vertex 1.500000e+01 1.300000e+01 3.749869e-15
    endloop
  endfacet
  facet normal 1.000000e+00 -1.261617e-15 7.725176e-32
    outer loop
      vertex 1.500000e+01 1.300000e+01 3.749869e-15
      vertex 1.500000e+01 1.999989e+00 2.000000e+00
      vertex 1.500000e+01 1.999989e+00 4.423423e-15
    endloop
  endfacet
  facet normal 7.071068e-01 7.071068e-01 -4.329780e-17
    outer loop
      vertex 1.299999e+01 1.500000e+01 2.000000e+00
      vertex 1.500000e+01 1.300000e+01 2.000000e+00
      vertex 1.299999e+01 1.500000e+01 3.627405e-15
    endloop
  endfacet
  facet normal 7.071068e-01 7.071068e-01 -4.329780e-17
    outer loop
      vertex 1.299999e+01 1.500000e+01 3.627405e-15
      vertex 1.500000e+01 1.300000e+01 2.000000e+00
      vertex 1.500000e+01 1.300000e+01 3.749869e-15
    endloop
  endfacet
  facet normal 6.308085e-16 1.000000e+00 -6.123234e-17
    outer loop
      vertex 2.000000e+00 1.500000e+01 2.000000e+00
      vertex 1.299999e+01 1.500000e+01 2.000000e+00
      vertex 2.000000e+00 1.500000e+01 3.627405e-15
    endloop
  endfacet
  facet normal 6.308085e-16 1.000000e+00 -6.123234e-17
    outer loop
      vertex 2.000000e+00 1.500000e+01 3.627405e-15
      vertex 1.299999e+01 1.500000e+01 2.000000e+00
      vertex 1.299999e+01 1.500000e+01 3.627405e-15
    endloop
  endfacet
  facet normal -1.000000e+00 0.000000e+00 0.000000e+00
    outer loop
      vertex 2.000000e+00 3.999996e+00 2.000000e+00
      vertex 2.000000e+00 1.500000e+01 2.000000e+00
      vertex 2.000000e+00 3.999996e+00 4.300959e-15
    endloop
  endfacet
  facet normal -1.000000e+00 0.000000e+00 0.000000e+00
    outer loop
      vertex 2.000000e+00 3.999996e+00 4.300959e-15
      vertex 2.000000e+00 1.500000e+01 2.000000e+00
      vertex 2.000000e+00 1.500000e+01 3.627405e-15
    endloop
  endfacet
  facet normal 0.000000e+00 1.000000e+00 -6.123234e-17
    outer loop
      vertex -2.000000e+00 3.999996e+00 2.000000e+00
      vertex 2.000000e+00 3.999996e+00 2.000000e+00
      vertex -2.000000e+00 3.999996e+00 4.300959e-15
    endloop
  endfacet
  facet normal 0.000000e+00 1.000000e+00 -6.123234e-17
    outer loop
      vertex -2.000000e+00 3.999996e+00 4.300959e-15
      vertex 2.000000e+00 3.999996e+00 2.000000e+00
      vertex 2.000000e+00 3.999996e+00 4.300959e-15
    endloop
  endfacet
  facet normal 1.000000e+00 0.000000e+00 0.000000e+00
    outer loop
      vertex -2.000000e+00 1.500000e+01 2.000000e+00
      vertex -2.000000e+00 3.999996e+00 2.000000e+00
      vertex -2.000000e+00 1.500000e+01 3.627405e-15
    endloop
  endfacet
  facet normal 1.000000e+00 0.000000e+00 0.000000e+00
    outer loop
      vertex -2.000000e+00 1.500000e+01 3.627405e-15
      vertex -2.000000e+00 3.999996e+00 2.000000e+00
      vertex -2.000000e+00 3.999996e+00 4.300959e-15
    endloop
  endfacet
  facet normal 0.000000e+00 1.000000e+00 -6.123234e-17
    outer loop
      vertex -1.300000e+01 1.500000e+01 2.000000e+00
      vertex -2.000000e+00 1.500000e+01 2.000000e+00
      vertex -1.300000e+01 1.500000e+01 3.627405e-15
    endloop
  endfacet
  facet normal 0.000000e+00 1.000000e+00 -6.123234e-17
    outer loop
      vertex -1.300000e+01 1.500000e+01 3.627405e-15
      vertex -2.000000e+00 1.500000e+01 2.000000e+00
      vertex -2.000000e+00 1.500000e+01 3.627405e-15
    endloop
  endfacet
  facet normal -7.071068e-01 7.071068e-01 -4.329780e-17
    outer loop
      vertex -1.500001e+01 1.300000e+01 2.000000e+00
      vertex -1.300000e+01 1.500000e+01 2.000000e+00
      vertex -1.500001e+01 1.300000e+01 3.749869e-15
    endloop
  endfacet
  facet normal -7.071068e-01 7.071068e-01 -4.329780e-17
    outer loop
      vertex -1.500001e+01 1.300000e+01 3.749869e-15
      vertex -1.300000e+01 1.500000e+01 2.000000e+00
      vertex -1.300000e+01 1.500000e+01 3.627405e-15
    endloop
  endfacet
  facet normal 0.000000e+00 6.123234e-17 1.000000e+00
    outer loop
      vertex 1.709999e+01 -1.176853e+01 2.000000e+00
      vertex 1.709999e+01 -2.000011e+00 2.000000e+00
      vertex 1.386852e+01 -1.500000e+01 2.000000e+00
    endloop
  endfacet
  facet normal 0.000000e+00 6.123234e-17 1.000000e+00
    outer loop
      vertex 1.386852e+01 -1.500000e+01 2.000000e+00
      vertex 1.709999e+01 -2.000011e+00 2.000000e+00
      vertex 3.999992e+00 -2.000011e+00 2.000000e+00
    endloop
  endfacet
  facet normal 0.000000e+00 6.123234e-17 1.000000e+00
    outer loop
      vertex -1.386853e+01 -1.500000e+01 2.000000e+00
      vertex -2.000000e+00 -1.500000e+01 2.000000e+00
      vertex -2.000000e+00 -4.000004e+00 2.000000e+00
    endloop
  endfacet
  facet normal 0.000000e+00 6.123234e-17 1.000000e+00
    outer loop
      vertex 3.999992e+00 1.999989e+00 2.000000e+00
      vertex 1.500000e+01 1.999989e+00 2.000000e+00
      vertex 2.000000e+00 3.999996e+00 2.000000e+00
    endloop
  endfacet
  facet normal 0.000000e+00 6.123234e-17 1.000000e+00
    outer loop
      vertex 2.000000e+00 3.999996e+00 2.000000e+00
      vertex 1.500000e+01 1.999989e+00 2.000000e+00
      vertex 1.500000e+01 1.300000e+01 2.000000e+00
    endloop
  endfacet
  facet normal 0.000000e+00 6.123234e-17 1.000000e+00
    outer loop
      vertex 2.000000e+00 3.999996e+00 2.000000e+00
      vertex 1.500000e+01 1.300000e+01 2.000000e+00
      vertex 2.000000e+00 1.500000e+01 2.000000e+00
    endloop
  endfacet
  facet normal 0.000000e+00 6.123234e-17 1.000000e+00
    outer loop
      vertex 2.000000e+00 1.500000e+01 2.000000e+00
      vertex 1.500000e+01 1.300000e+01 2.000000e+00
      vertex 1.299999e+01 1.500000e+01 2.000000e+00
    endloop
  endfacet
  facet normal 0.000000e+00 6.123234e-17 1.000000e+00
    outer loop
      vertex -1.500001e+01 1.300000e+01 2.000000e+00
      vertex -1.500001e+01 1.999989e+00 2.000000e+00
      vertex -1.300000e+01 1.500000e+01 2.000000e+00
    endloop
  endfacet
  facet normal 0.000000e+00 6.123234e-17 1.000000e+00
    outer loop
      vertex -1.300000e+01 1.500000e+01 2.000000e+00
      vertex -1.500001e+01 1.999989e+00 2.000000e+00
      vertex -4.000008e+00 1.999989e+00 2.000000e+00
    endloop
  endfacet
  facet normal 0.000000e+00 6.123234e-17 1.000000e+00
    outer loop
      vertex -2.000000e+00 -4.000004e+00 2.000000e+00
      vertex 2.000000e+00 3.999996e+00 2.000000e+00
      vertex -2.000000e+00 3.999996e+00 2.000000e+00
    endloop
  endfacet
  facet normal 0.000000e+00 6.123234e-17 1.000000e+00
    outer loop
      vertex 2.000000e+00 3.999996e+00 2.000000e+00
      vertex -2.000000e+00 -4.000004e+00 2.000000e+00
      vertex 3.999992e+00 1.999989e+00 2.000000e+00
    endloop
  endfacet
  facet normal 0.000000e+00 6.123234e-17 1.000000e+00
    outer loop
      vertex 3.999992e+00 1.999989e+00 2.000000e+00
      vertex -2.000000e+00 -4.000004e+00 2.000000e+00
      vertex 2.000000e+00 -4.000004e+00 2.000000e+00
    endloop
  endfacet
  facet normal 0.000000e+00 6.123234e-17 1.000000e+00
    outer loop
      vertex 3.999992e+00 1.999989e+00 2.000000e+00
      vertex 2.000000e+00 -4.000004e+00 2.000000e+00
      vertex 3.999992e+00 -2.000011e+00 2.000000e+00
    endloop
  endfacet
  facet normal 0.000000e+00 6.123234e-17 1.000000e+00
    outer loop
      vertex 3.999992e+00 -2.000011e+00 2.000000e+00
      vertex 2.000000e+00 -4.000004e+00 2.000000e+00
      vertex 2.000000e+00 -1.500000e+01 2.000000e+00
    endloop
  endfacet
  facet normal 0.000000e+00 6.123234e-17 1.000000e+00
    outer loop
      vertex 3.999992e+00 -2.000011e+00 2.000000e+00
      vertex 2.000000e+00 -1.500000e+01 2.000000e+00
      vertex 1.386852e+01 -1.500000e+01 2.000000e+00
    endloop
  endfacet
  facet normal 0.000000e+00 6.123234e-17 1.000000e+00
    outer loop
      vertex -1.710000e+01 -2.000011e+00 2.000000e+00
      vertex -1.710000e+01 -1.176853e+01 2.000000e+00
      vertex -4.000008e+00 -2.000011e+00 2.000000e+00
    endloop
  endfacet
  facet normal 0.000000e+00 6.123234e-17 1.000000e+00
    outer loop
      vertex -4.000008e+00 -2.000011e+00 2.000000e+00
      vertex -1.710000e+01 -1.176853e+01 2.000000e+00
      vertex -1.386853e+01 -1.500000e+01 2.000000e+00
    endloop
  endfacet
  facet normal 0.000000e+00 6.123234e-17 1.000000e+00
    outer loop
      vertex -1.386853e+01 -1.500000e+01 2.000000e+00
      vertex -2.000000e+00 -4.000004e+00 2.000000e+00
      vertex -4.000008e+00 -2.000011e+00 2.000000e+00
    endloop
  endfacet
  facet normal 0.000000e+00 6.123234e-17 1.000000e+00
    outer loop
      vertex -4.000008e+00 -2.000011e+00 2.000000e+00
      vertex -2.000000e+00 -4.000004e+00 2.000000e+00
      vertex -2.000000e+00 3.999996e+00 2.000000e+00
    endloop
  endfacet
  facet normal 0.000000e+00 6.123234e-17 1.000000e+00
    outer loop
      vertex -4.000008e+00 -2.000011e+00 2.000000e+00
      vertex -2.000000e+00 3.999996e+00 2.000000e+00
      vertex -4.000008e+00 1.999989e+00 2.000000e+00
    endloop
  endfacet
  facet normal 0.000000e+00 6.123234e-17 1.000000e+00
    outer loop
      vertex -4.000008e+00 1.999989e+00 2.000000e+00
      vertex -2.000000e+00 3.999996e+00 2.000000e+00
      vertex -2.000000e+00 1.500000e+01 2.000000e+00
    endloop
  endfacet
  facet normal 0.000000e+00 6.123234e-17 1.000000e+00
    outer loop
      vertex -4.000008e+00 1.999989e+00 2.000000e+00
      vertex -2.000000e+00 1.500000e+01 2.000000e+00
      vertex -1.300000e+01 1.500000e+01 2.000000e+00
    endloop
  endfacet
  facet normal 0.000000e+00 -6.123234e-17 -1.000000e+00
    outer loop
      vertex 1.709999e+01 -2.000011e+00 4.668354e-15
      vertex 1.709999e+01 -1.176853e+01 5.266502e-15
      vertex 3.999992e+00 -2.000011e+00 4.668354e-15
    endloop
  endfacet
  facet normal 0.000000e+00 -6.123234e-17 -1.000000e+00
    outer loop
      vertex 3.999992e+00 -2.000011e+00 4.668354e-15
      vertex 1.709999e+01 -1.176853e+01 5.266502e-15
      vertex 1.386852e+01 -1.500000e+01 5.464376e-15
    endloop
  endfacet
  facet normal 0.000000e+00 -6.123234e-17 -1.000000e+00
    outer loop
      vertex -1.710000e+01 -1.176853e+01 5.266502e-15
      vertex -1.710000e+01 -2.000011e+00 4.668354e-15
      vertex -1.386853e+01 -1.500000e+01 5.464376e-15
    endloop
  endfacet
  facet normal 0.000000e+00 -6.123234e-17 -1.000000e+00
    outer loop
      vertex -1.386853e+01 -1.500000e+01 5.464376e-15
      vertex -1.710000e+01 -2.000011e+00 4.668354e-15
      vertex -4.000008e+00 -2.000011e+00 4.668354e-15
    endloop
  endfacet
  facet normal 0.000000e+00 -6.123234e-17 -1.000000e+00
    outer loop
      vertex -1.386853e+01 -1.500000e+01 5.464376e-15
      vertex -4.000008e+00 -2.000011e+00 4.668354e-15
      vertex -2.000000e+00 -1.500000e+01 5.464376e-15
    endloop
  endfacet
  facet normal 0.000000e+00 -6.123234e-17 -1.000000e+00
    outer loop
      vertex -2.000000e+00 -1.500000e+01 5.464376e-15
      vertex -4.000008e+00 -2.000011e+00 4.668354e-15
      vertex -2.000000e+00 -4.000004e+00 4.790818e-15
    endloop
  endfacet
  facet normal 0.000000e+00 -6.123234e-17 -1.000000e+00
    outer loop
      vertex 1.500000e+01 1.300000e+01 3.749869e-15
      vertex 1.500000e+01 1.999989e+00 4.423423e-15
      vertex 3.999992e+00 1.999989e+00 4.423423e-15
    endloop
  endfacet
  facet normal 0.000000e+00 -6.123234e-17 -1.000000e+00
    outer loop
      vertex -1.500001e+01 1.999989e+00 4.423423e-15
      vertex -1.500001e+01 1.300000e+01 3.749869e-15
      vertex -4.000008e+00 1.999989e+00 4.423423e-15
    endloop
  endfacet
  facet normal 0.000000e+00 -6.123234e-17 -1.000000e+00
    outer loop
      vertex -4.000008e+00 1.999989e+00 4.423423e-15
      vertex -1.500001e+01 1.300000e+01 3.749869e-15
      vertex -1.300000e+01 1.500000e+01 3.627405e-15
    endloop
  endfacet
  facet normal 0.000000e+00 -6.123234e-17 -1.000000e+00
    outer loop
      vertex 3.999992e+00 1.999989e+00 4.423423e-15
      vertex -4.000008e+00 -2.000011e+00 4.668354e-15
      vertex -4.000008e+00 1.999989e+00 4.423423e-15
    endloop
  endfacet
  facet normal 0.000000e+00 -6.123234e-17 -1.000000e+00
    outer loop
      vertex -4.000008e+00 -2.000011e+00 4.668354e-15
      vertex 3.999992e+00 1.999989e+00 4.423423e-15
      vertex -2.000000e+00 -4.000004e+00 4.790818e-15
    endloop
  endfacet
  facet normal 0.000000e+00 -6.123234e-17 -1.000000e+00
    outer loop
      vertex -2.000000e+00 -4.000004e+00 4.790818e-15
      vertex 3.999992e+00 1.999989e+00 4.423423e-15
      vertex 3.999992e+00 -2.000011e+00 4.668354e-15
    endloop
  endfacet
  facet normal 0.000000e+00 -6.123234e-17 -1.000000e+00
    outer loop
      vertex -2.000000e+00 -4.000004e+00 4.790818e-15
      vertex 3.999992e+00 -2.000011e+00 4.668354e-15
      vertex 2.000000e+00 -4.000004e+00 4.790818e-15
    endloop
  endfacet
  facet normal 0.000000e+00 -6.123234e-17 -1.000000e+00
    outer loop
      vertex 2.000000e+00 -4.000004e+00 4.790818e-15
      vertex 3.999992e+00 -2.000011e+00 4.668354e-15
      vertex 1.386852e+01 -1.500000e+01 5.464376e-15
    endloop
  endfacet
  facet normal 0.000000e+00 -6.123234e-17 -1.000000e+00
    outer loop
      vertex 2.000000e+00 -4.000004e+00 4.790818e-15
      vertex 1.386852e+01 -1.500000e+01 5.464376e-15
      vertex 2.000000e+00 -1.500000e+01 5.464376e-15
    endloop
  endfacet
  facet normal 0.000000e+00 -6.123234e-17 -1.000000e+00
    outer loop
      vertex 2.000000e+00 1.500000e+01 3.627405e-15
      vertex 1.299999e+01 1.500000e+01 3.627405e-15
      vertex 2.000000e+00 3.999996e+00 4.300959e-15
    endloop
  endfacet
  facet normal 0.000000e+00 -6.123234e-17 -1.000000e+00
    outer loop
      vertex 2.000000e+00 3.999996e+00 4.300959e-15
      vertex 1.299999e+01 1.500000e+01 3.627405e-15
      vertex 1.500000e+01 1.300000e+01 3.749869e-15
    endloop
  endfacet
  facet normal 0.000000e+00 -6.123234e-17 -1.000000e+00
    outer loop
      vertex 1.500000e+01 1.300000e+01 3.749869e-15
      vertex 3.999992e+00 1.999989e+00 4.423423e-15
      vertex 2.000000e+00 3.999996e+00 4.300959e-15
    endloop
  endfacet
  facet normal 0.000000e+00 -6.123234e-17 -1.000000e+00
    outer loop
      vertex 2.000000e+00 3.999996e+00 4.300959e-15
      vertex 3.999992e+00 1.999989e+00 4.423423e-15
      vertex -4.000008e+00 1.999989e+00 4.423423e-15
    endloop
  endfacet
  facet normal 0.000000e+00 -6.123234e-17 -1.000000e+00
    outer loop
      vertex 2.000000e+00 3.999996e+00 4.300959e-15
      vertex -4.000008e+00 1.999989e+00 4.423423e-15
      vertex -2.000000e+00 3.999996e+00 4.300959e-15
    endloop
  endfacet
  facet normal 0.000000e+00 -6.123234e-17 -1.000000e+00
    outer loop
      vertex -2.000000e+00 3.999996e+00 4.300959e-15
      vertex -4.000008e+00 1.999989e+00 4.423423e-15
      vertex -1.300000e+01 1.500000e+01 3.627405e-15
    endloop
  endfacet
  facet normal 0.000000e+00 -6.123234e-17 -1.000000e+00
    outer loop
      vertex -2.000000e+00 3.999996e+00 4.300959e-15
      vertex -1.300000e+01 1.500000e+01 3.627405e-15
      vertex -2.000000e+00 1.500000e+01 3.627405e-15
    endloop
  endfacet
  facet normal -7.071068e-01 -7.071068e-01 4.329780e-17
    outer loop
      vertex -1.386853e+01 -1.500000e+01 2.000000e+00
      vertex -1.710000e+01 -1.176853e+01 2.000000e+00
      vertex -1.386853e+01 -1.500000e+01 5.464376e-15
    endloop
  endfacet
  facet normal -7.071068e-01 -7.071068e-01 4.329780e-17
    outer loop
      vertex -1.386853e+01 -1.500000e+01 5.464376e-15
      vertex -1.710000e+01 -1.176853e+01 2.000000e+00
      vertex -1.710000e+01 -1.176853e+01 5.266502e-15
    endloop
  endfacet
  facet normal -1.000000e+00 0.000000e+00 0.000000e+00
    outer loop
      vertex -1.710000e+01 -1.176853e+01 2.000000e+00
      vertex -1.710000e+01 -2.000011e+00 2.000000e+00
      vertex -1.710000e+01 -1.176853e+01 5.266502e-15
    endloop
  endfacet
  facet normal -1.000000e+00 0.000000e+00 0.000000e+00
    outer loop
      vertex -1.710000e+01 -1.176853e+01 5.266502e-15
      vertex -1.710000e+01 -2.000011e+00 2.000000e+00
      vertex -1.710000e+01 -2.000011e+00 4.668354e-15
    endloop
  endfacet
  facet normal 1.000000e+00 0.000000e+00 0.000000e+00
    outer loop
      vertex 1.709999e+01 -2.000011e+00 2.000000e+00
      vertex 1.709999e+01 -1.176853e+01 2.000000e+00
      vertex 1.709999e+01 -2.000011e+00 4.668354e-15
    endloop
  endfacet
  facet normal 1.000000e+00 0.000000e+00 0.000000e+00
    outer loop
      vertex 1.709999e+01 -2.000011e+00 4.668354e-15
      vertex 1.709999e+01 -1.176853e+01 2.000000e+00
      vertex 1.709999e+01 -1.176853e+01 5.266502e-15
    endloop
  endfacet
  facet normal 7.071068e-01 -7.071068e-01 4.329780e-17
    outer loop
      vertex 1.709999e+01 -1.176853e+01 2.000000e+00
      vertex 1.386852e+01 -1.500000e+01 2.000000e+00
      vertex 1.709999e+01 -1.176853e+01 5.266502e-15
    endloop
  endfacet
  facet normal 7.071068e-01 -7.071068e-01 4.329780e-17
    outer loop
      vertex 1.709999e+01 -1.176853e+01 5.266502e-15
      vertex 1.386852e+01 -1.500000e+01 2.000000e+00
      vertex 1.386852e+01 -1.500000e+01 5.464376e-15
    endloop
  endfacet
  facet normal -1.000000e+00 0.000000e+00 0.000000e+00
    outer loop
      vertex 5.124132e+01 2.688659e+01 2.899560e-15
      vertex 5.124132e+01 2.513659e+01 3.006716e-15
      vertex 5.124132e+01 2.688659e+01 6.000000e-01
    endloop
  endfacet
  facet normal -1.000000e+00 0.000000e+00 0.000000e+00
    outer loop
      vertex 5.124132e+01 2.688659e+01 6.000000e-01
      vertex 5.124132e+01 2.513659e+01 3.006716e-15
      vertex 5.124132e+01 2.513659e+01 6.000000e-01
    endloop
  endfacet
  facet normal 0.000000e+00 -1.000000e+00 6.123234e-17
    outer loop
      vertex 5.124132e+01 2.513659e+01 3.006716e-15
      vertex 7.783214e+01 2.513659e+01 3.006716e-15
      vertex 5.124132e+01 2.513659e+01 6.000000e-01
    endloop
  endfacet
  facet normal 0.000000e+00 -1.000000e+00 6.123234e-17
    outer loop
      vertex 5.124132e+01 2.513659e+01 6.000000e-01
      vertex 7.783214e+01 2.513659e+01 3.006716e-15
      vertex 7.783214e+01 2.513659e+01 6.000000e-01
    endloop
  endfacet
  facet normal -1.000000e+00 0.000000e+00 0.000000e+00
    outer loop
      vertex 7.783214e+01 2.513659e+01 3.006716e-15
      vertex 7.783214e+01 1.913660e+01 3.374108e-15
      vertex 7.783214e+01 2.513659e+01 6.000000e-01
    endloop
  endfacet
  facet normal -1.000000e+00 0.000000e+00 0.000000e+00
    outer loop
      vertex 7.783214e+01 2.513659e+01 6.000000e-01
      vertex 7.783214e+01 1.913660e+01 3.374108e-15
      vertex 7.783214e+01 1.913660e+01 6.000000e-01
    endloop
  endfacet
  facet normal 0.000000e+00 1.000000e+00 -6.123234e-17
    outer loop
      vertex 7.783214e+01 1.913660e+01 3.374108e-15
      vertex 5.124132e+01 1.913660e+01 3.374108e-15
      vertex 7.783214e+01 1.913660e+01 6.000000e-01
    endloop
  endfacet
  facet normal 0.000000e+00 1.000000e+00 -6.123234e-17
    outer loop
      vertex 7.783214e+01 1.913660e+01 6.000000e-01
      vertex 5.124132e+01 1.913660e+01 3.374108e-15
      vertex 5.124132e+01 1.913660e+01 6.000000e-01
    endloop
  endfacet
  facet normal -1.000000e+00 -1.460820e-15 8.944941e-32
    outer loop
      vertex 5.124132e+01 1.913660e+01 3.374108e-15
      vertex 5.124132e+01 9.636593e+00 3.955817e-15
      vertex 5.124132e+01 1.913660e+01 6.000000e-01
    endloop
  endfacet
  facet normal -1.000000e+00 -1.460820e-15 8.944941e-32
    outer loop
      vertex 5.124132e+01 1.913660e+01 6.000000e-01
      vertex 5.124132e+01 9.636593e+00 3.955817e-15
      vertex 5.124132e+01 9.636593e+00 6.000000e-01
    endloop
  endfacet
  facet normal 0.000000e+00 -1.000000e+00 6.123234e-17
    outer loop
      vertex 5.124132e+01 9.636593e+00 3.955817e-15
      vertex 7.783214e+01 9.636593e+00 3.955817e-15
      vertex 5.124132e+01 9.636593e+00 6.000000e-01
    endloop
  endfacet
  facet normal 0.000000e+00 -1.000000e+00 6.123234e-17
    outer loop
      vertex 5.124132e+01 9.636593e+00 6.000000e-01
      vertex 7.783214e+01 9.636593e+00 3.955817e-15
      vertex 7.783214e+01 9.636593e+00 6.000000e-01
    endloop
  endfacet
  facet normal -1.000000e+00 0.000000e+00 0.000000e+00
    outer loop
      vertex 7.783214e+01 9.636593e+00 3.955817e-15
      vertex 7.783214e+01 3.636593e+00 4.323212e-15
      vertex 7.783214e+01 9.636593e+00 6.000000e-01
    endloop
  endfacet
  facet normal -1.000000e+00 0.000000e+00 0.000000e+00
    outer loop
      vertex 7.783214e+01 9.636593e+00 6.000000e-01
      vertex 7.783214e+01 3.636593e+00 4.323212e-15
      vertex 7.783214e+01 3.636593e+00 6.000000e-01
    endloop
  endfacet
  facet normal 0.000000e+00 1.000000e+00 -6.123234e-17
    outer loop
      vertex 7.783214e+01 3.636593e+00 4.323212e-15
      vertex 5.124132e+01 3.636593e+00 4.323212e-15
      vertex 7.783214e+01 3.636593e+00 6.000000e-01
    endloop
  endfacet
  facet normal 0.000000e+00 1.000000e+00 -6.123234e-17
    outer loop
      vertex 7.783214e+01 3.636593e+00 6.000000e-01
      vertex 5.124132e+01 3.636593e+00 4.323212e-15
      vertex 5.124132e+01 3.636593e+00 6.000000e-01
    endloop
  endfacet
  facet normal -1.000000e+00 0.000000e+00 0.000000e+00
    outer loop
      vertex 5.124132e+01 3.636593e+00 4.323212e-15
      vertex 5.124132e+01 -5.863400e+00 4.904917e-15
      vertex 5.124132e+01 3.636593e+00 6.000000e-01
    endloop
  endfacet
  facet normal -1.000000e+00 0.000000e+00 0.000000e+00
    outer loop
      vertex 5.124132e+01 3.636593e+00 6.000000e-01
      vertex 5.124132e+01 -5.863400e+00 4.904917e-15
      vertex 5.124132e+01 -5.863400e+00 6.000000e-01
    endloop
  endfacet
  facet normal 0.000000e+00 -1.000000e+00 6.123234e-17
    outer loop
      vertex 5.124132e+01 -5.863400e+00 4.904917e-15
      vertex 7.958215e+01 -5.863400e+00 4.904917e-15
      vertex 5.124132e+01 -5.863400e+00 6.000000e-01
    endloop
  endfacet
  facet normal 0.000000e+00 -1.000000e+00 6.123234e-17
    outer loop
      vertex 5.124132e+01 -5.863400e+00 6.000000e-01
      vertex 7.958215e+01 -5.863400e+00 4.904917e-15
      vertex 7.958215e+01 -5.863400e+00 6.000000e-01
    endloop
  endfacet
  facet normal 1.000000e+00 0.000000e+00 0.000000e+00
    outer loop
      vertex 7.958215e+01 -5.863400e+00 4.904917e-15
      vertex 7.958215e+01 -4.113407e+00 4.797761e-15
      vertex 7.958215e+01 -5.863400e+00 6.000000e-01
    endloop
  endfacet
  facet normal 1.000000e+00 0.000000e+00 0.000000e+00
    outer loop
      vertex 7.958215e+01 -5.863400e+00 6.000000e-01
      vertex 7.958215e+01 -4.113407e+00 4.797761e-15
      vertex 7.958215e+01 -4.113407e+00 6.000000e-01
    endloop
  endfacet
  facet normal 0.000000e+00 1.000000e+00 -6.123234e-17
    outer loop
      vertex 7.958215e+01 -4.113407e+00 4.797761e-15
      vertex 5.317993e+01 -4.113407e+00 4.797761e-15
      vertex 7.958215e+01 -4.113407e+00 6.000000e-01
    endloop
  endfacet
  facet normal 0.000000e+00 1.000000e+00 -6.123234e-17
    outer loop
      vertex 7.958215e+01 -4.113407e+00 6.000000e-01
      vertex 5.317993e+01 -4.113407e+00 4.797761e-15
      vertex 5.317993e+01 -4.113407e+00 6.000000e-01
    endloop
  endfacet
  facet normal 1.000000e+00 0.000000e+00 0.000000e+00
    outer loop
      vertex 5.317993e+01 -4.113407e+00 4.797761e-15
      vertex 5.317993e+01 1.886593e+00 4.430369e-15
      vertex 5.317993e+01 -4.113407e+00 6.000000e-01
    endloop
  endfacet
  facet normal 1.000000e+00 0.000000e+00 0.000000e+00
    outer loop
      vertex 5.317993e+01 -4.113407e+00 6.000000e-01
      vertex 5.317993e+01 1.886593e+00 4.430369e-15
      vertex 5.317993e+01 1.886593e+00 6.000000e-01
    endloop
  endfacet
  facet normal 0.000000e+00 -1.000000e+00 6.123234e-17
    outer loop
      vertex 5.317993e+01 1.886593e+00 4.430369e-15
      vertex 7.958215e+01 1.886593e+00 4.430369e-15
      vertex 5.317993e+01 1.886593e+00 6.000000e-01
    endloop
  endfacet
  facet normal 0.000000e+00 -1.000000e+00 6.123234e-17
    outer loop
      vertex 5.317993e+01 1.886593e+00 6.000000e-01
      vertex 7.958215e+01 1.886593e+00 4.430369e-15
      vertex 7.958215e+01 1.886593e+00 6.000000e-01
    endloop
  endfacet
  facet normal 1.000000e+00 0.000000e+00 0.000000e+00
    outer loop
      vertex 7.958215e+01 1.886593e+00 4.430369e-15
      vertex 7.958215e+01 1.138659e+01 3.848660e-15
      vertex 7.958215e+01 1.886593e+00 6.000000e-01
    endloop
  endfacet
  facet normal 1.000000e+00 0.000000e+00 0.000000e+00
    outer loop
      vertex 7.958215e+01 1.886593e+00 6.000000e-01
      vertex 7.958215e+01 1.138659e+01 3.848660e-15
      vertex 7.958215e+01 1.138659e+01 6.000000e-01
    endloop
  endfacet
  facet normal 0.000000e+00 1.000000e+00 -6.123234e-17
    outer loop
      vertex 7.958215e+01 1.138659e+01 3.848660e-15
      vertex 5.317993e+01 1.138659e+01 3.848660e-15
      vertex 7.958215e+01 1.138659e+01 6.000000e-01
    endloop
  endfacet
  facet normal 0.000000e+00 1.000000e+00 -6.123234e-17
    outer loop
      vertex 7.958215e+01 1.138659e+01 6.000000e-01
      vertex 5.317993e+01 1.138659e+01 3.848660e-15
      vertex 5.317993e+01 1.138659e+01 6.000000e-01
    endloop
  endfacet
  facet normal 1.000000e+00 0.000000e+00 0.000000e+00
    outer loop
      vertex 5.317993e+01 1.138659e+01 3.848660e-15
      vertex 5.317993e+01 1.738660e+01 3.481268e-15
      vertex 5.317993e+01 1.138659e+01 6.000000e-01
    endloop
  endfacet
  facet normal 1.000000e+00 0.000000e+00 0.000000e+00
    outer loop
      vertex 5.317993e+01 1.138659e+01 6.000000e-01
      vertex 5.317993e+01 1.738660e+01 3.481268e-15
      vertex 5.317993e+01 1.738660e+01 6.000000e-01
    endloop
  endfacet
  facet normal 0.000000e+00 -1.000000e+00 6.123234e-17
    outer loop
      vertex 5.317993e+01 1.738660e+01 3.481268e-15
      vertex 7.958215e+01 1.738660e+01 3.481268e-15
      vertex 5.317993e+01 1.738660e+01 6.000000e-01
    endloop
  endfacet
  facet normal 0.000000e+00 -1.000000e+00 6.123234e-17
    outer loop
      vertex 5.317993e+01 1.738660e+01 6.000000e-01
      vertex 7.958215e+01 1.738660e+01 3.481268e-15
      vertex 7.958215e+01 1.738660e+01 6.000000e-01
    endloop
  endfacet
  facet normal 1.000000e+00 0.000000e+00 0.000000e+00
    outer loop
      vertex 7.958215e+01 1.738660e+01 3.481268e-15
      vertex 7.958215e+01 2.688659e+01 2.899560e-15
      vertex 7.958215e+01 1.738660e+01 6.000000e-01
    endloop
  endfacet
  facet normal 1.000000e+00 0.000000e+00 0.000000e+00
    outer loop
      vertex 7.958215e+01 1.738660e+01 6.000000e-01
      vertex 7.958215e+01 2.688659e+01 2.899560e-15
      vertex 7.958215e+01 2.688659e+01 6.000000e-01
    endloop
  endfacet
  facet normal 0.000000e+00 1.000000e+00 -6.123234e-17
    outer loop
      vertex 7.958215e+01 2.688659e+01 2.899560e-15
      vertex 5.124132e+01 2.688659e+01 2.899560e-15
      vertex 7.958215e+01 2.688659e+01 6.000000e-01
    endloop
  endfacet
  facet normal 0.000000e+00 1.000000e+00 -6.123234e-17
    outer loop
      vertex 7.958215e+01 2.688659e+01 6.000000e-01
      vertex 5.124132e+01 2.688659e+01 2.899560e-15
      vertex 5.124132e+01 2.688659e+01 6.000000e-01
    endloop
  endfacet
  facet normal 0.000000e+00 -6.123234e-17 -1.000000e+00
    outer loop
      vertex 5.124132e+01 2.513659e+01 3.006716e-15
      vertex 5.124132e+01 2.688659e+01 2.899560e-15
      vertex 7.783214e+01 2.513659e+01 3.006716e-15
    endloop
  endfacet
  facet normal 0.000000e+00 -6.123234e-17 -1.000000e+00
    outer loop
      vertex 7.783214e+01 2.513659e+01 3.006716e-15
      vertex 5.124132e+01 2.688659e+01 2.899560e-15
      vertex 7.958215e+01 2.688659e+01 2.899560e-15
    endloop
  endfacet
  facet normal 0.000000e+00 -6.123234e-17 -1.000000e+00
    outer loop
      vertex 7.783214e+01 2.513659e+01 3.006716e-15
      vertex 7.958215e+01 2.688659e+01 2.899560e-15
      vertex 7.783214e+01 1.913660e+01 3.374108e-15
    endloop
  endfacet
  facet normal 0.000000e+00 -6.123234e-17 -1.000000e+00
    outer loop
      vertex 7.783214e+01 1.913660e+01 3.374108e-15
      vertex 7.958215e+01 2.688659e+01 2.899560e-15
      vertex 7.958215e+01 1.738660e+01 3.481268e-15
    endloop
  endfacet
  facet normal 0.000000e+00 -6.123234e-17 -1.000000e+00
    outer loop
      vertex 7.783214e+01 1.913660e+01 3.374108e-15
      vertex 7.958215e+01 1.738660e+01 3.481268e-15
      vertex 5.124132e+01 1.913660e+01 3.374108e-15
    endloop
  endfacet
  facet normal 0.000000e+00 -6.123234e-17 -1.000000e+00
    outer loop
      vertex 5.124132e+01 1.913660e+01 3.374108e-15
      vertex 7.958215e+01 1.738660e+01 3.481268e-15
      vertex 5.317993e+01 1.738660e+01 3.481268e-15
    endloop
  endfacet
  facet normal 0.000000e+00 -6.123234e-17 -1.000000e+00
    outer loop
      vertex 5.124132e+01 1.913660e+01 3.374108e-15
      vertex 5.317993e+01 1.738660e+01 3.481268e-15
      vertex 5.124132e+01 9.636593e+00 3.955817e-15
    endloop
  endfacet
  facet normal 0.000000e+00 -6.123234e-17 -1.000000e+00
    outer loop
      vertex 5.124132e+01 9.636593e+00 3.955817e-15
      vertex 5.317993e+01 1.738660e+01 3.481268e-15
      vertex 5.317993e+01 1.138659e+01 3.848660e-15
    endloop
  endfacet
  facet normal 0.000000e+00 -6.123234e-17 -1.000000e+00
    outer loop
      vertex 5.124132e+01 9.636593e+00 3.955817e-15
      vertex 5.317993e+01 1.138659e+01 3.848660e-15
      vertex 7.783214e+01 9.636593e+00 3.955817e-15
    endloop
  endfacet
  facet normal 0.000000e+00 -6.123234e-17 -1.000000e+00
    outer loop
      vertex 7.783214e+01 9.636593e+00 3.955817e-15
      vertex 5.317993e+01 1.138659e+01 3.848660e-15
      vertex 7.958215e+01 1.138659e+01 3.848660e-15
    endloop
  endfacet
  facet normal 0.000000e+00 -6.123234e-17 -1.000000e+00
    outer loop
      vertex 7.783214e+01 9.636593e+00 3.955817e-15
      vertex 7.958215e+01 1.138659e+01 3.848660e-15
      vertex 7.783214e+01 3.636593e+00 4.323212e-15
    endloop
  endfacet
  facet normal 0.000000e+00 -6.123234e-17 -1.000000e+00
    outer loop
      vertex 7.783214e+01 3.636593e+00 4.323212e-15
      vertex 7.958215e+01 1.138659e+01 3.848660e-15
      vertex 7.958215e+01 1.886593e+00 4.430369e-15
    endloop
  endfacet
  facet normal 0.000000e+00 -6.123234e-17 -1.000000e+00
    outer loop
      vertex 7.783214e+01 3.636593e+00 4.323212e-15
      vertex 7.958215e+01 1.886593e+00 4.430369e-15
      vertex 5.124132e+01 3.636593e+00 4.323212e-15
    endloop
  endfacet
  facet normal 0.000000e+00 -6.123234e-17 -1.000000e+00
    outer loop
      vertex 5.124132e+01 3.636593e+00 4.323212e-15
      vertex 7.958215e+01 1.886593e+00 4.430369e-15
      vertex 5.317993e+01 1.886593e+00 4.430369e-15
    endloop
  endfacet
  facet normal 0.000000e+00 -6.123234e-17 -1.000000e+00
    outer loop
      vertex 5.124132e+01 3.636593e+00 4.323212e-15
      vertex 5.317993e+01 1.886593e+00 4.430369e-15
      vertex 5.124132e+01 -5.863400e+00 4.904917e-15
    endloop
  endfacet
  facet normal 0.000000e+00 -6.123234e-17 -1.000000e+00
    outer loop
      vertex 5.124132e+01 -5.863400e+00 4.904917e-15
      vertex 5.317993e+01 1.886593e+00 4.430369e-15
      vertex 5.317993e+01 -4.113407e+00 4.797761e-15
    endloop
  endfacet
  facet normal 0.000000e+00 -6.123234e-17 -1.000000e+00
    outer loop
      vertex 5.124132e+01 -5.863400e+00 4.904917e-15
      vertex 5.317993e+01 -4.113407e+00 4.797761e-15
      vertex 7.958215e+01 -5.863400e+00 4.904917e-15
    endloop
  endfacet
  facet normal 0.000000e+00 -6.123234e-17 -1.000000e+00
    outer loop
      vertex 7.958215e+01 -5.863400e+00 4.904917e-15
      vertex 5.317993e+01 -4.113407e+00 4.797761e-15
      vertex 7.958215e+01 -4.113407e+00 4.797761e-15
    endloop
  endfacet
  facet normal 0.000000e+00 6.123234e-17 1.000000e+00
    outer loop
      vertex 5.124132e+01 2.688659e+01 6.000000e-01
      vertex 5.124132e+01 2.513659e+01 6.000000e-01
      vertex 7.958215e+01 2.688659e+01 6.000000e-01
    endloop
  endfacet
  facet normal 0.000000e+00 6.123234e-17 1.000000e+00
    outer loop
      vertex 7.958215e+01 2.688659e+01 6.000000e-01
      vertex 5.124132e+01 2.513659e+01 6.000000e-01
      vertex 7.783214e+01 2.513659e+01 6.000000e-01
    endloop
  endfacet
  facet normal 0.000000e+00 6.123234e-17 1.000000e+00
    outer loop
      vertex 7.958215e+01 2.688659e+01 6.000000e-01
      vertex 7.783214e+01 2.513659e+01 6.000000e-01
      vertex 7.958215e+01 1.738660e+01 6.000000e-01
    endloop
  endfacet
  facet normal 0.000000e+00 6.123234e-17 1.000000e+00
    outer loop
      vertex 7.958215e+01 1.738660e+01 6.000000e-01
      vertex 7.783214e+01 2.513659e+01 6.000000e-01
      vertex 7.783214e+01 1.913660e+01 6.000000e-01
    endloop
  endfacet
  facet normal 0.000000e+00 6.123234e-17 1.000000e+00
    outer loop
      vertex 7.958215e+01 1.738660e+01 6.000000e-01
      vertex 7.783214e+01 1.913660e+01 6.000000e-01
      vertex 5.317993e+01 1.738660e+01 6.000000e-01
    endloop
  endfacet
  facet normal 0.000000e+00 6.123234e-17 1.000000e+00
    outer loop
      vertex 5.317993e+01 1.738660e+01 6.000000e-01
      vertex 7.783214e+01 1.913660e+01 6.000000e-01
      vertex 5.124132e+01 1.913660e+01 6.000000e-01
    endloop
  endfacet
  facet normal 0.000000e+00 6.123234e-17 1.000000e+00
    outer loop
      vertex 5.317993e+01 1.738660e+01 6.000000e-01
      vertex 5.124132e+01 1.913660e+01 6.000000e-01
      vertex 5.317993e+01 1.138659e+01 6.000000e-01
    endloop
  endfacet
  facet normal 0.000000e+00 6.123234e-17 1.000000e+00
    outer loop
      vertex 5.317993e+01 1.138659e+01 6.000000e-01
      vertex 5.124132e+01 1.913660e+01 6.000000e-01
      vertex 5.124132e+01 9.636593e+00 6.000000e-01
    endloop
  endfacet
  facet normal 0.000000e+00 6.123234e-17 1.000000e+00
    outer loop
      vertex 5.317993e+01 1.138659e+01 6.000000e-01
      vertex 5.124132e+01 9.636593e+00 6.000000e-01
      vertex 7.958215e+01 1.138659e+01 6.000000e-01
    endloop
  endfacet
  facet normal 0.000000e+00 6.123234e-17 1.000000e+00
    outer loop
      vertex 7.958215e+01 1.138659e+01 6.000000e-01
      vertex 5.124132e+01 9.636593e+00 6.000000e-01
      vertex 7.783214e+01 9.636593e+00 6.000000e-01
    endloop
  endfacet
  facet normal 0.000000e+00 6.123234e-17 1.000000e+00
    outer loop
      vertex 7.958215e+01 1.138659e+01 6.000000e-01
      vertex 7.783214e+01 9.636593e+00 6.000000e-01
      vertex 7.958215e+01 1.886593e+00 6.000000e-01
    endloop
  endfacet
  facet normal 0.000000e+00 6.123234e-17 1.000000e+00
    outer loop
      vertex 7.958215e+01 1.886593e+00 6.000000e-01
      vertex 7.783214e+01 9.636593e+00 6.000000e-01
      vertex 7.783214e+01 3.636593e+00 6.000000e-01
    endloop
  endfacet
  facet normal 0.000000e+00 6.123234e-17 1.000000e+00
    outer loop
      vertex 7.958215e+01 1.886593e+00 6.000000e-01
      vertex 7.783214e+01 3.636593e+00 6.000000e-01
      vertex 5.317993e+01 1.886593e+00 6.000000e-01
    endloop
  endfacet
  facet normal 0.000000e+00 6.123234e-17 1.000000e+00
    outer loop
      vertex 5.317993e+01 1.886593e+00 6.000000e-01
      vertex 7.783214e+01 3.636593e+00 6.000000e-01
      vertex 5.124132e+01 3.636593e+00 6.000000e-01
    endloop
  endfacet
  facet normal 0.000000e+00 6.123234e-17 1.000000e+00
    outer loop
      vertex 5.317993e+01 1.886593e+00 6.000000e-01
      vertex 5.124132e+01 3.636593e+00 6.000000e-01
      vertex 5.317993e+01 -4.113407e+00 6.000000e-01
    endloop
  endfacet
  facet normal 0.000000e+00 6.123234e-17 1.000000e+00
    outer loop
      vertex 5.317993e+01 -4.113407e+00 6.000000e-01
      vertex 5.124132e+01 3.636593e+00 6.000000e-01
      vertex 5.124132e+01 -5.863400e+00 6.000000e-01
    endloop
  endfacet
  facet normal 0.000000e+00 6.123234e-17 1.000000e+00
    outer loop
      vertex 5.317993e+01 -4.113407e+00 6.000000e-01
      vertex 5.124132e+01 -5.863400e+00 6.000000e-01
      vertex 7.958215e+01 -4.113407e+00 6.000000e-01
    endloop
  endfacet
  facet normal 0.000000e+00 6.123234e-17 1.000000e+00
    outer loop
      vertex 7.958215e+01 -4.113407e+00 6.000000e-01
      vertex 5.124132e+01 -5.863400e+00 6.000000e-01
      vertex 7.958215e+01 -5.863400e+00 6.000000e-01
    endloop
  endfacet
endsolid Default
