solid Default
  facet normal 7.449265e-01 6.671465e-01 0.000000e+00
    outer loop
      vertex -2.304400e+01 -1.297000e+00 0.000000e+00
      vertex -2.182600e+01 -2.656999e+00 1.100200e+01
      vertex -2.182600e+01 -2.656999e+00 0.000000e+00
    endloop
  endfacet
  facet normal 7.449265e-01 6.671465e-01 0.000000e+00
    outer loop
      vertex -2.182600e+01 -2.656999e+00 1.100200e+01
      vertex -2.304400e+01 -1.297000e+00 0.000000e+00
      vertex -2.304400e+01 -1.297000e+00 1.100200e+01
    endloop
  endfacet
  facet normal -6.947504e-01 -7.192509e-01 0.000000e+00
    outer loop
      vertex -2.517200e+01 -4.236999e+00 1.100200e+01
      vertex -2.681600e+01 -2.648999e+00 0.000000e+00
      vertex -2.517200e+01 -4.236999e+00 0.000000e+00
    endloop
  endfacet
  facet normal -6.947504e-01 -7.192509e-01 0.000000e+00
    outer loop
      vertex -2.681600e+01 -2.648999e+00 0.000000e+00
      vertex -2.517200e+01 -4.236999e+00 1.100200e+01
      vertex -2.681600e+01 -2.648999e+00 1.100200e+01
    endloop
  endfacet
  facet normal -7.076603e-01 -7.065528e-01 0.000000e+00
    outer loop
      vertex -1.502200e+01 1.079001e+00 1.100200e+01
      vertex -1.374600e+01 -1.989985e-01 0.000000e+00
      vertex -1.374600e+01 -1.989985e-01 1.100200e+01
    endloop
  endfacet
  facet normal -7.076603e-01 -7.065528e-01 0.000000e+00
    outer loop
      vertex -1.374600e+01 -1.989985e-01 0.000000e+00
      vertex -1.502200e+01 1.079001e+00 1.100200e+01
      vertex -1.502200e+01 1.079001e+00 0.000000e+00
    endloop
  endfacet
  facet normal 7.382187e-01 6.745614e-01 0.000000e+00
    outer loop
      vertex -1.312000e+01 -1.208999e+00 0.000000e+00
      vertex -1.180600e+01 -2.646998e+00 1.100200e+01
      vertex -1.180600e+01 -2.646998e+00 0.000000e+00
    endloop
  endfacet
  facet normal 7.382187e-01 6.745614e-01 0.000000e+00
    outer loop
      vertex -1.180600e+01 -2.646998e+00 1.100200e+01
      vertex -1.312000e+01 -1.208999e+00 0.000000e+00
      vertex -1.312000e+01 -1.208999e+00 1.100200e+01
    endloop
  endfacet
  facet normal -7.022058e-01 -7.119740e-01 0.000000e+00
    outer loop
      vertex -2.367000e+01 -2.149992e-01 1.100200e+01
      vertex -2.498200e+01 1.079001e+00 0.000000e+00
      vertex -2.367000e+01 -2.149992e-01 0.000000e+00
    endloop
  endfacet
  facet normal -7.022058e-01 -7.119740e-01 0.000000e+00
    outer loop
      vertex -2.498200e+01 1.079001e+00 0.000000e+00
      vertex -2.367000e+01 -2.149992e-01 1.100200e+01
      vertex -2.498200e+01 1.079001e+00 1.100200e+01
    endloop
  endfacet
  facet normal 7.257485e-01 -6.879601e-01 0.000000e+00
    outer loop
      vertex -2.001400e+01 1.079001e+00 0.000000e+00
      vertex -2.125200e+01 -2.269983e-01 1.100200e+01
      vertex -2.125200e+01 -2.269983e-01 0.000000e+00
    endloop
  endfacet
  facet normal 7.257485e-01 -6.879601e-01 0.000000e+00
    outer loop
      vertex -2.125200e+01 -2.269983e-01 1.100200e+01
      vertex -2.001400e+01 1.079001e+00 0.000000e+00
      vertex -2.001400e+01 1.079001e+00 1.100200e+01
    endloop
  endfacet
  facet normal -7.731003e-01 6.342837e-01 0.000000e+00
    outer loop
      vertex -1.312000e+01 -1.208999e+00 1.100200e+01
      vertex -1.430800e+01 -2.656999e+00 0.000000e+00
      vertex -1.430800e+01 -2.656999e+00 1.100200e+01
    endloop
  endfacet
  facet normal -7.731003e-01 6.342837e-01 0.000000e+00
    outer loop
      vertex -1.430800e+01 -2.656999e+00 0.000000e+00
      vertex -1.312000e+01 -1.208999e+00 1.100200e+01
      vertex -1.312000e+01 -1.208999e+00 0.000000e+00
    endloop
  endfacet
  facet normal 1.000000e+00 2.671891e-24 0.000000e+00
    outer loop
      vertex 3.180200e+01 7.207002e+00 0.000000e+00
      vertex 3.180200e+01 5.850999e+00 1.100200e+01
      vertex 3.180200e+01 5.850999e+00 0.000000e+00
    endloop
  endfacet
  facet normal 1.000000e+00 2.671891e-24 0.000000e+00
    outer loop
      vertex 3.180200e+01 5.850999e+00 1.100200e+01
      vertex 3.180200e+01 7.207002e+00 0.000000e+00
      vertex 3.180200e+01 7.207002e+00 1.100200e+01
    endloop
  endfacet
  facet normal 9.970544e-01 7.669758e-02 0.000000e+00
    outer loop
      vertex -9.384001e+00 3.263001e+00 0.000000e+00
      vertex -9.362000e+00 2.977000e+00 1.100200e+01
      vertex -9.362000e+00 2.977000e+00 0.000000e+00
    endloop
  endfacet
  facet normal 9.970544e-01 7.669758e-02 0.000000e+00
    outer loop
      vertex -9.362000e+00 2.977000e+00 1.100200e+01
      vertex -9.384001e+00 3.263001e+00 0.000000e+00
      vertex -9.384001e+00 3.263001e+00 1.100200e+01
    endloop
  endfacet
  facet normal -7.628955e-01 6.465219e-01 0.000000e+00
    outer loop
      vertex -2.062600e+01 -1.241000e+00 1.100200e+01
      vertex -2.182600e+01 -2.656999e+00 0.000000e+00
      vertex -2.182600e+01 -2.656999e+00 1.100200e+01
    endloop
  endfacet
  facet normal -7.628955e-01 6.465219e-01 0.000000e+00
    outer loop
      vertex -2.182600e+01 -2.656999e+00 0.000000e+00
      vertex -2.062600e+01 -1.241000e+00 1.100200e+01
      vertex -2.062600e+01 -1.241000e+00 0.000000e+00
    endloop
  endfacet
  facet normal 7.299193e-01 6.835260e-01 3.184873e-03
    outer loop
      vertex -2.062600e+01 -1.241000e+00 0.000000e+00
      vertex -1.931200e+01 -2.656999e+00 2.750000e+00
      vertex -1.930000e+01 -2.656999e+00 0.000000e+00
    endloop
  endfacet
  facet normal 7.330145e-01 6.802130e-01 0.000000e+00
    outer loop
      vertex -1.931200e+01 -2.656999e+00 2.750000e+00
      vertex -2.062600e+01 -1.241000e+00 0.000000e+00
      vertex -1.931200e+01 -2.656999e+00 1.100200e+01
    endloop
  endfacet
  facet normal 7.330145e-01 6.802130e-01 0.000000e+00
    outer loop
      vertex -1.931200e+01 -2.656999e+00 1.100200e+01
      vertex -2.062600e+01 -1.241000e+00 0.000000e+00
      vertex -2.062600e+01 -1.241000e+00 1.100200e+01
    endloop
  endfacet
  facet normal 9.164953e-01 4.000454e-01 0.000000e+00
    outer loop
      vertex 5.732000e+00 -4.207000e+00 0.000000e+00
      vertex 8.880000e+00 -1.141900e+01 1.100200e+01
      vertex 8.880000e+00 -1.141900e+01 0.000000e+00
    endloop
  endfacet
  facet normal 9.164953e-01 4.000454e-01 0.000000e+00
    outer loop
      vertex 8.880000e+00 -1.141900e+01 1.100200e+01
      vertex 5.732000e+00 -4.207000e+00 0.000000e+00
      vertex 5.732000e+00 -4.207000e+00 1.100200e+01
    endloop
  endfacet
  facet normal -7.367939e-01 6.761174e-01 0.000000e+00
    outer loop
      vertex -2.304400e+01 -1.297000e+00 1.100200e+01
      vertex -2.429200e+01 -2.656999e+00 0.000000e+00
      vertex -2.429200e+01 -2.656999e+00 1.100200e+01
    endloop
  endfacet
  facet normal -7.367939e-01 6.761174e-01 0.000000e+00
    outer loop
      vertex -2.429200e+01 -2.656999e+00 0.000000e+00
      vertex -2.304400e+01 -1.297000e+00 1.100200e+01
      vertex -2.304400e+01 -1.297000e+00 0.000000e+00
    endloop
  endfacet
  facet normal -7.174997e-01 -6.965588e-01 0.000000e+00
    outer loop
      vertex -1.751200e+01 1.079001e+00 1.100200e+01
      vertex -1.624800e+01 -2.229986e-01 0.000000e+00
      vertex -1.624800e+01 -2.229986e-01 1.100200e+01
    endloop
  endfacet
  facet normal -7.174997e-01 -6.965588e-01 0.000000e+00
    outer loop
      vertex -1.624800e+01 -2.229986e-01 0.000000e+00
      vertex -1.751200e+01 1.079001e+00 1.100200e+01
      vertex -1.751200e+01 1.079001e+00 0.000000e+00
    endloop
  endfacet
  facet normal 7.216353e-01 -6.922734e-01 0.000000e+00
    outer loop
      vertex -1.252000e+01 1.079001e+00 0.000000e+00
      vertex -1.374600e+01 -1.989985e-01 1.100200e+01
      vertex -1.374600e+01 -1.989985e-01 0.000000e+00
    endloop
  endfacet
  facet normal 7.216353e-01 -6.922734e-01 0.000000e+00
    outer loop
      vertex -1.374600e+01 -1.989985e-01 1.100200e+01
      vertex -1.252000e+01 1.079001e+00 0.000000e+00
      vertex -1.252000e+01 1.079001e+00 1.100200e+01
    endloop
  endfacet
  facet normal -6.431246e-01 -7.657615e-01 0.000000e+00
    outer loop
      vertex 3.180200e+01 -8.255000e+00 1.100200e+01
      vertex 2.540800e+01 -2.884999e+00 0.000000e+00
      vertex 3.180200e+01 -8.255000e+00 0.000000e+00
    endloop
  endfacet
  facet normal -6.431246e-01 -7.657615e-01 0.000000e+00
    outer loop
      vertex 2.540800e+01 -2.884999e+00 0.000000e+00
      vertex 3.180200e+01 -8.255000e+00 1.100200e+01
      vertex 2.540800e+01 -2.884999e+00 1.100200e+01
    endloop
  endfacet
  facet normal -7.218729e-01 -6.920256e-01 0.000000e+00
    outer loop
      vertex -2.250400e+01 1.079001e+00 1.100200e+01
      vertex -2.125200e+01 -2.269983e-01 0.000000e+00
      vertex -2.125200e+01 -2.269983e-01 1.100200e+01
    endloop
  endfacet
  facet normal -7.218729e-01 -6.920256e-01 0.000000e+00
    outer loop
      vertex -2.125200e+01 -2.269983e-01 0.000000e+00
      vertex -2.250400e+01 1.079001e+00 1.100200e+01
      vertex -2.250400e+01 1.079001e+00 0.000000e+00
    endloop
  endfacet
  facet normal 0.000000e+00 0.000000e+00 -1.000000e+00
    outer loop
      vertex -2.562000e+01 -1.330998e+00 0.000000e+00
      vertex -2.517200e+01 -4.236999e+00 0.000000e+00
      vertex -2.681600e+01 -2.648999e+00 0.000000e+00
    endloop
  endfacet
  facet normal 0.000000e+00 0.000000e+00 -1.000000e+00
    outer loop
      vertex -2.517200e+01 -4.236999e+00 0.000000e+00
      vertex -2.562000e+01 -1.330998e+00 0.000000e+00
      vertex -2.429200e+01 -2.656999e+00 0.000000e+00
    endloop
  endfacet
  facet normal 0.000000e+00 0.000000e+00 -1.000000e+00
    outer loop
      vertex -2.517200e+01 -4.236999e+00 0.000000e+00
      vertex -2.429200e+01 -2.656999e+00 0.000000e+00
      vertex -2.202001e+00 -4.236999e+00 0.000000e+00
    endloop
  endfacet
  facet normal 0.000000e+00 0.000000e+00 -1.000000e+00
    outer loop
      vertex -2.202001e+00 -4.236999e+00 0.000000e+00
      vertex -2.429200e+01 -2.656999e+00 0.000000e+00
      vertex -2.182600e+01 -2.656999e+00 0.000000e+00
    endloop
  endfacet
  facet normal 0.000000e+00 0.000000e+00 -1.000000e+00
    outer loop
      vertex -2.182600e+01 -2.656999e+00 0.000000e+00
      vertex -2.429200e+01 -2.656999e+00 0.000000e+00
      vertex -2.304400e+01 -1.297000e+00 0.000000e+00
    endloop
  endfacet
  facet normal 0.000000e+00 0.000000e+00 -1.000000e+00
    outer loop
      vertex -2.202001e+00 -4.236999e+00 0.000000e+00
      vertex -2.182600e+01 -2.656999e+00 0.000000e+00
      vertex -1.930000e+01 -2.656999e+00 0.000000e+00
    endloop
  endfacet
  facet normal 0.000000e+00 0.000000e+00 -1.000000e+00
    outer loop
      vertex -1.930000e+01 -2.656999e+00 0.000000e+00
      vertex -2.182600e+01 -2.656999e+00 0.000000e+00
      vertex -2.062600e+01 -1.241000e+00 0.000000e+00
    endloop
  endfacet
  facet normal 0.000000e+00 0.000000e+00 -1.000000e+00
    outer loop
      vertex -2.202001e+00 -4.236999e+00 0.000000e+00
      vertex -1.930000e+01 -2.656999e+00 0.000000e+00
      vertex -1.679600e+01 -2.656999e+00 0.000000e+00
    endloop
  endfacet
  facet normal 0.000000e+00 0.000000e+00 -1.000000e+00
    outer loop
      vertex -1.679600e+01 -2.656999e+00 0.000000e+00
      vertex -1.930000e+01 -2.656999e+00 0.000000e+00
      vertex -1.807600e+01 -1.241000e+00 0.000000e+00
    endloop
  endfacet
  facet normal 0.000000e+00 0.000000e+00 -1.000000e+00
    outer loop
      vertex -2.202001e+00 -4.236999e+00 0.000000e+00
      vertex -1.679600e+01 -2.656999e+00 0.000000e+00
      vertex -1.430800e+01 -2.656999e+00 0.000000e+00
    endloop
  endfacet
  facet normal 0.000000e+00 0.000000e+00 -1.000000e+00
    outer loop
      vertex -1.430800e+01 -2.656999e+00 0.000000e+00
      vertex -1.679600e+01 -2.656999e+00 0.000000e+00
      vertex -1.562200e+01 -1.208999e+00 0.000000e+00
    endloop
  endfacet
  facet normal 0.000000e+00 0.000000e+00 -1.000000e+00
    outer loop
      vertex -2.202001e+00 -4.236999e+00 0.000000e+00
      vertex -1.430800e+01 -2.656999e+00 0.000000e+00
      vertex -1.180600e+01 -2.646998e+00 0.000000e+00
    endloop
  endfacet
  facet normal 0.000000e+00 0.000000e+00 -1.000000e+00
    outer loop
      vertex -1.180600e+01 -2.646998e+00 0.000000e+00
      vertex -1.430800e+01 -2.656999e+00 0.000000e+00
      vertex -1.312000e+01 -1.208999e+00 0.000000e+00
    endloop
  endfacet
  facet normal 0.000000e+00 0.000000e+00 -1.000000e+00
    outer loop
      vertex -2.202001e+00 -4.236999e+00 0.000000e+00
      vertex -1.180600e+01 -2.646998e+00 0.000000e+00
      vertex -1.028200e+01 -1.106999e+00 0.000000e+00
    endloop
  endfacet
  facet normal 0.000000e+00 0.000000e+00 -1.000000e+00
    outer loop
      vertex -2.202001e+00 -4.236999e+00 0.000000e+00
      vertex -1.028200e+01 -1.106999e+00 0.000000e+00
      vertex -9.110001e+00 2.469001e+00 0.000000e+00
    endloop
  endfacet
  facet normal 0.000000e+00 0.000000e+00 -1.000000e+00
    outer loop
      vertex -9.110001e+00 2.469001e+00 0.000000e+00
      vertex -1.028200e+01 -1.106999e+00 0.000000e+00
      vertex -9.270000e+00 2.707002e+00 0.000000e+00
    endloop
  endfacet
  facet normal 0.000000e+00 0.000000e+00 -1.000000e+00
    outer loop
      vertex -9.270000e+00 2.707002e+00 0.000000e+00
      vertex -1.028200e+01 -1.106999e+00 0.000000e+00
      vertex -9.362000e+00 2.977000e+00 0.000000e+00
    endloop
  endfacet
  facet normal 0.000000e+00 0.000000e+00 -1.000000e+00
    outer loop
      vertex -9.362000e+00 2.977000e+00 0.000000e+00
      vertex -1.028200e+01 -1.106999e+00 0.000000e+00
      vertex -9.384001e+00 3.263001e+00 0.000000e+00
    endloop
  endfacet
  facet normal 0.000000e+00 0.000000e+00 -1.000000e+00
    outer loop
      vertex -2.202001e+00 -4.236999e+00 0.000000e+00
      vertex -9.110001e+00 2.469001e+00 0.000000e+00
      vertex -8.894001e+00 2.281001e+00 0.000000e+00
    endloop
  endfacet
  facet normal 0.000000e+00 0.000000e+00 -1.000000e+00
    outer loop
      vertex -2.202001e+00 -4.236999e+00 0.000000e+00
      vertex -8.894001e+00 2.281001e+00 0.000000e+00
      vertex -8.636001e+00 2.157001e+00 0.000000e+00
    endloop
  endfacet
  facet normal 0.000000e+00 0.000000e+00 -1.000000e+00
    outer loop
      vertex -2.202001e+00 -4.236999e+00 0.000000e+00
      vertex -8.636001e+00 2.157001e+00 0.000000e+00
      vertex -8.354001e+00 2.103002e+00 0.000000e+00
    endloop
  endfacet
  facet normal 0.000000e+00 0.000000e+00 -1.000000e+00
    outer loop
      vertex -2.202001e+00 -4.236999e+00 0.000000e+00
      vertex -8.354001e+00 2.103002e+00 0.000000e+00
      vertex -8.070001e+00 2.123000e+00 0.000000e+00
    endloop
  endfacet
  facet normal 0.000000e+00 0.000000e+00 -1.000000e+00
    outer loop
      vertex -2.202001e+00 -4.236999e+00 0.000000e+00
      vertex -8.070001e+00 2.123000e+00 0.000000e+00
      vertex -7.798001e+00 2.215001e+00 0.000000e+00
    endloop
  endfacet
  facet normal 0.000000e+00 0.000000e+00 -1.000000e+00
    outer loop
      vertex -2.202001e+00 -4.236999e+00 0.000000e+00
      vertex -7.798001e+00 2.215001e+00 0.000000e+00
      vertex -7.562001e+00 2.377000e+00 0.000000e+00
    endloop
  endfacet
  facet normal 0.000000e+00 0.000000e+00 -1.000000e+00
    outer loop
      vertex -2.202001e+00 -4.236999e+00 0.000000e+00
      vertex -7.562001e+00 2.377000e+00 0.000000e+00
      vertex -7.374001e+00 2.593001e+00 0.000000e+00
    endloop
  endfacet
  facet normal 0.000000e+00 0.000000e+00 -1.000000e+00
    outer loop
      vertex -2.202001e+00 -4.236999e+00 0.000000e+00
      vertex -7.374001e+00 2.593001e+00 0.000000e+00
      vertex -7.250000e+00 2.849000e+00 0.000000e+00
    endloop
  endfacet
  facet normal 0.000000e+00 0.000000e+00 -1.000000e+00
    outer loop
      vertex -2.202001e+00 -4.236999e+00 0.000000e+00
      vertex -7.250000e+00 2.849000e+00 0.000000e+00
      vertex -7.194001e+00 3.131001e+00 0.000000e+00
    endloop
  endfacet
  facet normal 0.000000e+00 0.000000e+00 -1.000000e+00
    outer loop
      vertex -3.180200e+01 5.507001e+00 0.000000e+00
      vertex -2.498200e+01 1.079001e+00 0.000000e+00
      vertex -2.624400e+01 -2.410002e-01 0.000000e+00
    endloop
  endfacet
  facet normal 0.000000e+00 0.000000e+00 -1.000000e+00
    outer loop
      vertex -2.498200e+01 1.079001e+00 0.000000e+00
      vertex -3.180200e+01 5.507001e+00 0.000000e+00
      vertex -8.508001e+00 4.269002e+00 0.000000e+00
    endloop
  endfacet
  facet normal 0.000000e+00 0.000000e+00 -1.000000e+00
    outer loop
      vertex -8.508001e+00 4.269002e+00 0.000000e+00
      vertex -3.180200e+01 5.507001e+00 0.000000e+00
      vertex -1.483200e+01 5.507001e+00 0.000000e+00
    endloop
  endfacet
  facet normal 0.000000e+00 0.000000e+00 -1.000000e+00
    outer loop
      vertex -2.498200e+01 1.079001e+00 0.000000e+00
      vertex -8.508001e+00 4.269002e+00 0.000000e+00
      vertex -2.250400e+01 1.079001e+00 0.000000e+00
    endloop
  endfacet
  facet normal 0.000000e+00 0.000000e+00 -1.000000e+00
    outer loop
      vertex -2.498200e+01 1.079001e+00 0.000000e+00
      vertex -2.250400e+01 1.079001e+00 0.000000e+00
      vertex -2.367000e+01 -2.149992e-01 0.000000e+00
    endloop
  endfacet
  facet normal 0.000000e+00 0.000000e+00 -1.000000e+00
    outer loop
      vertex -2.250400e+01 1.079001e+00 0.000000e+00
      vertex -8.508001e+00 4.269002e+00 0.000000e+00
      vertex -2.001400e+01 1.079001e+00 0.000000e+00
    endloop
  endfacet
  facet normal 0.000000e+00 0.000000e+00 -1.000000e+00
    outer loop
      vertex -2.250400e+01 1.079001e+00 0.000000e+00
      vertex -2.001400e+01 1.079001e+00 0.000000e+00
      vertex -2.125200e+01 -2.269983e-01 0.000000e+00
    endloop
  endfacet
  facet normal 0.000000e+00 0.000000e+00 -1.000000e+00
    outer loop
      vertex -2.001400e+01 1.079001e+00 0.000000e+00
      vertex -8.508001e+00 4.269002e+00 0.000000e+00
      vertex -8.778001e+00 4.176999e+00 0.000000e+00
    endloop
  endfacet
  facet normal 0.000000e+00 0.000000e+00 -1.000000e+00
    outer loop
      vertex -2.001400e+01 1.079001e+00 0.000000e+00
      vertex -8.778001e+00 4.176999e+00 0.000000e+00
      vertex -1.751200e+01 1.079001e+00 0.000000e+00
    endloop
  endfacet
  facet normal 0.000000e+00 0.000000e+00 -1.000000e+00
    outer loop
      vertex -2.001400e+01 1.079001e+00 0.000000e+00
      vertex -1.751200e+01 1.079001e+00 0.000000e+00
      vertex -1.870200e+01 -2.229986e-01 0.000000e+00
    endloop
  endfacet
  facet normal 0.000000e+00 0.000000e+00 -1.000000e+00
    outer loop
      vertex -1.751200e+01 1.079001e+00 0.000000e+00
      vertex -8.778001e+00 4.176999e+00 0.000000e+00
      vertex -1.502200e+01 1.079001e+00 0.000000e+00
    endloop
  endfacet
  facet normal 0.000000e+00 0.000000e+00 -1.000000e+00
    outer loop
      vertex -1.751200e+01 1.079001e+00 0.000000e+00
      vertex -1.502200e+01 1.079001e+00 0.000000e+00
      vertex -1.624800e+01 -2.229986e-01 0.000000e+00
    endloop
  endfacet
  facet normal 0.000000e+00 0.000000e+00 -1.000000e+00
    outer loop
      vertex -1.502200e+01 1.079001e+00 0.000000e+00
      vertex -8.778001e+00 4.176999e+00 0.000000e+00
      vertex -9.016001e+00 4.016999e+00 0.000000e+00
    endloop
  endfacet
  facet normal 0.000000e+00 0.000000e+00 -1.000000e+00
    outer loop
      vertex -1.502200e+01 1.079001e+00 0.000000e+00
      vertex -9.016001e+00 4.016999e+00 0.000000e+00
      vertex -1.252000e+01 1.079001e+00 0.000000e+00
    endloop
  endfacet
  facet normal 0.000000e+00 0.000000e+00 -1.000000e+00
    outer loop
      vertex -1.502200e+01 1.079001e+00 0.000000e+00
      vertex -1.252000e+01 1.079001e+00 0.000000e+00
      vertex -1.374600e+01 -1.989985e-01 0.000000e+00
    endloop
  endfacet
  facet normal 0.000000e+00 0.000000e+00 -1.000000e+00
    outer loop
      vertex -1.252000e+01 1.079001e+00 0.000000e+00
      vertex -9.016001e+00 4.016999e+00 0.000000e+00
      vertex -9.202001e+00 3.801000e+00 0.000000e+00
    endloop
  endfacet
  facet normal 0.000000e+00 0.000000e+00 -1.000000e+00
    outer loop
      vertex -1.252000e+01 1.079001e+00 0.000000e+00
      vertex -9.202001e+00 3.801000e+00 0.000000e+00
      vertex -9.328001e+00 3.543000e+00 0.000000e+00
    endloop
  endfacet
  facet normal 0.000000e+00 0.000000e+00 -1.000000e+00
    outer loop
      vertex -1.252000e+01 1.079001e+00 0.000000e+00
      vertex -9.328001e+00 3.543000e+00 0.000000e+00
      vertex -1.028200e+01 -1.106999e+00 0.000000e+00
    endloop
  endfacet
  facet normal 0.000000e+00 0.000000e+00 -1.000000e+00
    outer loop
      vertex -1.028200e+01 -1.106999e+00 0.000000e+00
      vertex -9.328001e+00 3.543000e+00 0.000000e+00
      vertex -9.384001e+00 3.263001e+00 0.000000e+00
    endloop
  endfacet
  facet normal 0.000000e+00 0.000000e+00 -1.000000e+00
    outer loop
      vertex -8.508001e+00 4.269002e+00 0.000000e+00
      vertex 2.138000e+00 5.507001e+00 0.000000e+00
      vertex -8.224001e+00 4.291001e+00 0.000000e+00
    endloop
  endfacet
  facet normal 0.000000e+00 0.000000e+00 -1.000000e+00
    outer loop
      vertex -8.224001e+00 4.291001e+00 0.000000e+00
      vertex 2.138000e+00 5.507001e+00 0.000000e+00
      vertex -7.942001e+00 4.237000e+00 0.000000e+00
    endloop
  endfacet
  facet normal 0.000000e+00 0.000000e+00 -1.000000e+00
    outer loop
      vertex -7.942001e+00 4.237000e+00 0.000000e+00
      vertex 2.138000e+00 5.507001e+00 0.000000e+00
      vertex -7.684000e+00 4.111001e+00 0.000000e+00
    endloop
  endfacet
  facet normal 0.000000e+00 0.000000e+00 -1.000000e+00
    outer loop
      vertex -7.684000e+00 4.111001e+00 0.000000e+00
      vertex 2.138000e+00 5.507001e+00 0.000000e+00
      vertex -7.468001e+00 3.923001e+00 0.000000e+00
    endloop
  endfacet
  facet normal 0.000000e+00 0.000000e+00 -1.000000e+00
    outer loop
      vertex -7.468001e+00 3.923001e+00 0.000000e+00
      vertex 2.138000e+00 5.507001e+00 0.000000e+00
      vertex -7.308001e+00 3.687001e+00 0.000000e+00
    endloop
  endfacet
  facet normal 0.000000e+00 0.000000e+00 -1.000000e+00
    outer loop
      vertex -7.308001e+00 3.687001e+00 0.000000e+00
      vertex 2.138000e+00 5.507001e+00 0.000000e+00
      vertex -7.216001e+00 3.415000e+00 0.000000e+00
    endloop
  endfacet
  facet normal 0.000000e+00 0.000000e+00 -1.000000e+00
    outer loop
      vertex -7.216001e+00 3.415000e+00 0.000000e+00
      vertex 2.138000e+00 5.507001e+00 0.000000e+00
      vertex -7.194001e+00 3.131001e+00 0.000000e+00
    endloop
  endfacet
  facet normal 0.000000e+00 0.000000e+00 -1.000000e+00
    outer loop
      vertex -7.194001e+00 3.131001e+00 0.000000e+00
      vertex 2.138000e+00 5.507001e+00 0.000000e+00
      vertex -2.202001e+00 -4.236999e+00 0.000000e+00
    endloop
  endfacet
  facet normal 0.000000e+00 0.000000e+00 -1.000000e+00
    outer loop
      vertex -2.202001e+00 -4.236999e+00 0.000000e+00
      vertex 2.138000e+00 5.507001e+00 0.000000e+00
      vertex 3.338000e+00 -7.829000e+00 0.000000e+00
    endloop
  endfacet
  facet normal 0.000000e+00 0.000000e+00 -1.000000e+00
    outer loop
      vertex 3.338000e+00 -7.829000e+00 0.000000e+00
      vertex 2.138000e+00 5.507001e+00 0.000000e+00
      vertex 8.454000e+00 1.141900e+01 0.000000e+00
    endloop
  endfacet
  facet normal 0.000000e+00 0.000000e+00 -1.000000e+00
    outer loop
      vertex 3.338000e+00 -7.829000e+00 0.000000e+00
      vertex 8.454000e+00 1.141900e+01 0.000000e+00
      vertex 5.732000e+00 -4.207000e+00 0.000000e+00
    endloop
  endfacet
  facet normal 0.000000e+00 0.000000e+00 -1.000000e+00
    outer loop
      vertex 5.732000e+00 -4.207000e+00 0.000000e+00
      vertex 8.454000e+00 1.141900e+01 0.000000e+00
      vertex 1.556800e+01 -3.547000e+00 0.000000e+00
    endloop
  endfacet
  facet normal 0.000000e+00 0.000000e+00 -1.000000e+00
    outer loop
      vertex 1.556800e+01 -3.547000e+00 0.000000e+00
      vertex 8.454000e+00 1.141900e+01 0.000000e+00
      vertex 1.200200e+01 4.509000e+00 0.000000e+00
    endloop
  endfacet
  facet normal 0.000000e+00 0.000000e+00 -1.000000e+00
    outer loop
      vertex 1.556800e+01 -3.547000e+00 0.000000e+00
      vertex 1.200200e+01 4.509000e+00 0.000000e+00
      vertex 1.870400e+01 3.137000e+00 0.000000e+00
    endloop
  endfacet
  facet normal 0.000000e+00 0.000000e+00 -1.000000e+00
    outer loop
      vertex 1.556800e+01 -3.547000e+00 0.000000e+00
      vertex 1.870400e+01 3.137000e+00 0.000000e+00
      vertex 2.540800e+01 -2.884999e+00 0.000000e+00
    endloop
  endfacet
  facet normal 0.000000e+00 0.000000e+00 -1.000000e+00
    outer loop
      vertex 2.540800e+01 -2.884999e+00 0.000000e+00
      vertex 1.870400e+01 3.137000e+00 0.000000e+00
      vertex 2.540800e+01 1.763001e+00 0.000000e+00
    endloop
  endfacet
  facet normal 0.000000e+00 0.000000e+00 -1.000000e+00
    outer loop
      vertex 2.540800e+01 -2.884999e+00 0.000000e+00
      vertex 2.540800e+01 1.763001e+00 0.000000e+00
      vertex 3.180200e+01 7.207002e+00 0.000000e+00
    endloop
  endfacet
  facet normal 0.000000e+00 0.000000e+00 -1.000000e+00
    outer loop
      vertex 2.540800e+01 -2.884999e+00 0.000000e+00
      vertex 3.180200e+01 7.207002e+00 0.000000e+00
      vertex 2.860400e+01 -5.609999e-01 0.000000e+00
    endloop
  endfacet
  facet normal 0.000000e+00 0.000000e+00 -1.000000e+00
    outer loop
      vertex 2.860400e+01 -5.609999e-01 0.000000e+00
      vertex 3.180200e+01 7.207002e+00 0.000000e+00
      vertex 3.180200e+01 5.850999e+00 0.000000e+00
    endloop
  endfacet
  facet normal 0.000000e+00 0.000000e+00 -1.000000e+00
    outer loop
      vertex 2.860400e+01 -5.609999e-01 0.000000e+00
      vertex 3.180200e+01 -8.255000e+00 0.000000e+00
      vertex 2.540800e+01 -2.884999e+00 0.000000e+00
    endloop
  endfacet
  facet normal 0.000000e+00 0.000000e+00 -1.000000e+00
    outer loop
      vertex 3.180200e+01 -8.255000e+00 0.000000e+00
      vertex 2.860400e+01 -5.609999e-01 0.000000e+00
      vertex 3.180200e+01 -6.652999e+00 0.000000e+00
    endloop
  endfacet
  facet normal 0.000000e+00 0.000000e+00 -1.000000e+00
    outer loop
      vertex 8.880000e+00 -1.141900e+01 0.000000e+00
      vertex 3.338000e+00 -7.829000e+00 0.000000e+00
      vertex 5.732000e+00 -4.207000e+00 0.000000e+00
    endloop
  endfacet
  facet normal -7.107895e-01 7.034047e-01 0.000000e+00
    outer loop
      vertex -1.028200e+01 -1.106999e+00 1.100200e+01
      vertex -1.180600e+01 -2.646998e+00 0.000000e+00
      vertex -1.180600e+01 -2.646998e+00 1.100200e+01
    endloop
  endfacet
  facet normal -7.107895e-01 7.034047e-01 0.000000e+00
    outer loop
      vertex -1.180600e+01 -2.646998e+00 0.000000e+00
      vertex -1.028200e+01 -1.106999e+00 1.100200e+01
      vertex -1.028200e+01 -1.106999e+00 0.000000e+00
    endloop
  endfacet
  facet normal 7.381416e-01 -6.746458e-01 0.000000e+00
    outer loop
      vertex -1.751200e+01 1.079001e+00 0.000000e+00
      vertex -1.870200e+01 -2.229986e-01 1.100200e+01
      vertex -1.870200e+01 -2.229986e-01 0.000000e+00
    endloop
  endfacet
  facet normal 7.381416e-01 -6.746458e-01 0.000000e+00
    outer loop
      vertex -1.870200e+01 -2.229986e-01 1.100200e+01
      vertex -1.751200e+01 1.079001e+00 0.000000e+00
      vertex -1.751200e+01 1.079001e+00 1.100200e+01
    endloop
  endfacet
  facet normal 7.418339e-01 6.705836e-01 0.000000e+00
    outer loop
      vertex -1.807600e+01 -1.241000e+00 0.000000e+00
      vertex -1.679600e+01 -2.656999e+00 1.100200e+01
      vertex -1.679600e+01 -2.656999e+00 0.000000e+00
    endloop
  endfacet
  facet normal 7.418339e-01 6.705836e-01 0.000000e+00
    outer loop
      vertex -1.679600e+01 -2.656999e+00 1.100200e+01
      vertex -1.807600e+01 -1.241000e+00 0.000000e+00
      vertex -1.807600e+01 -1.241000e+00 1.100200e+01
    endloop
  endfacet
  facet normal 7.280359e-01 -6.855390e-01 0.000000e+00
    outer loop
      vertex -1.502200e+01 1.079001e+00 0.000000e+00
      vertex -1.624800e+01 -2.229986e-01 1.100200e+01
      vertex -1.624800e+01 -2.229986e-01 0.000000e+00
    endloop
  endfacet
  facet normal 7.280359e-01 -6.855390e-01 0.000000e+00
    outer loop
      vertex -1.624800e+01 -2.229986e-01 1.100200e+01
      vertex -1.502200e+01 1.079001e+00 0.000000e+00
      vertex -1.502200e+01 1.079001e+00 1.100200e+01
    endloop
  endfacet
  facet normal 7.065740e-01 7.076392e-01 0.000000e+00
    outer loop
      vertex -2.562000e+01 -1.330998e+00 1.100200e+01
      vertex -2.429200e+01 -2.656999e+00 0.000000e+00
      vertex -2.562000e+01 -1.330998e+00 0.000000e+00
    endloop
  endfacet
  facet normal 7.065740e-01 7.076392e-01 0.000000e+00
    outer loop
      vertex -2.429200e+01 -2.656999e+00 0.000000e+00
      vertex -2.562000e+01 -1.330998e+00 1.100200e+01
      vertex -2.429200e+01 -2.656999e+00 1.100200e+01
    endloop
  endfacet
  facet normal -6.987472e-01 -7.153687e-01 0.000000e+00
    outer loop
      vertex -1.028200e+01 -1.106999e+00 1.100200e+01
      vertex -1.252000e+01 1.079001e+00 0.000000e+00
      vertex -1.028200e+01 -1.106999e+00 0.000000e+00
    endloop
  endfacet
  facet normal -6.987472e-01 -7.153687e-01 0.000000e+00
    outer loop
      vertex -1.252000e+01 1.079001e+00 0.000000e+00
      vertex -1.028200e+01 -1.106999e+00 1.100200e+01
      vertex -1.252000e+01 1.079001e+00 1.100200e+01
    endloop
  endfacet
  facet normal -9.472810e-01 -3.204038e-01 0.000000e+00
    outer loop
      vertex -7.308001e+00 3.687001e+00 1.100200e+01
      vertex -7.216001e+00 3.415000e+00 0.000000e+00
      vertex -7.216001e+00 3.415000e+00 1.100200e+01
    endloop
  endfacet
  facet normal -9.472810e-01 -3.204038e-01 0.000000e+00
    outer loop
      vertex -7.216001e+00 3.415000e+00 0.000000e+00
      vertex -7.308001e+00 3.687001e+00 1.100200e+01
      vertex -7.308001e+00 3.687001e+00 0.000000e+00
    endloop
  endfacet
  facet normal -8.277089e-01 -5.611579e-01 0.000000e+00
    outer loop
      vertex -7.468001e+00 3.923001e+00 1.100200e+01
      vertex -7.308001e+00 3.687001e+00 0.000000e+00
      vertex -7.308001e+00 3.687001e+00 1.100200e+01
    endloop
  endfacet
  facet normal -8.277089e-01 -5.611579e-01 0.000000e+00
    outer loop
      vertex -7.308001e+00 3.687001e+00 0.000000e+00
      vertex -7.468001e+00 3.923001e+00 1.100200e+01
      vertex -7.468001e+00 3.923001e+00 0.000000e+00
    endloop
  endfacet
  facet normal 7.228085e-01 -6.910484e-01 0.000000e+00
    outer loop
      vertex -2.498200e+01 1.079001e+00 0.000000e+00
      vertex -2.624400e+01 -2.410002e-01 1.100200e+01
      vertex -2.624400e+01 -2.410002e-01 0.000000e+00
    endloop
  endfacet
  facet normal 7.228085e-01 -6.910484e-01 0.000000e+00
    outer loop
      vertex -2.624400e+01 -2.410002e-01 1.100200e+01
      vertex -2.498200e+01 1.079001e+00 0.000000e+00
      vertex -2.498200e+01 1.079001e+00 1.100200e+01
    endloop
  endfacet
  facet normal -7.043965e-01 -7.098067e-01 0.000000e+00
    outer loop
      vertex -1.870200e+01 -2.229986e-01 1.100200e+01
      vertex -2.001400e+01 1.079001e+00 0.000000e+00
      vertex -1.870200e+01 -2.229986e-01 0.000000e+00
    endloop
  endfacet
  facet normal -7.043965e-01 -7.098067e-01 0.000000e+00
    outer loop
      vertex -2.001400e+01 1.079001e+00 0.000000e+00
      vertex -1.870200e+01 -2.229986e-01 1.100200e+01
      vertex -2.001400e+01 1.079001e+00 1.100200e+01
    endloop
  endfacet
  facet normal 7.405412e-01 6.720109e-01 0.000000e+00
    outer loop
      vertex -1.562200e+01 -1.208999e+00 0.000000e+00
      vertex -1.430800e+01 -2.656999e+00 1.100200e+01
      vertex -1.430800e+01 -2.656999e+00 0.000000e+00
    endloop
  endfacet
  facet normal 7.405412e-01 6.720109e-01 0.000000e+00
    outer loop
      vertex -1.430800e+01 -2.656999e+00 1.100200e+01
      vertex -1.562200e+01 -1.208999e+00 0.000000e+00
      vertex -1.562200e+01 -1.208999e+00 1.100200e+01
    endloop
  endfacet
  facet normal 7.428943e-01 -6.694088e-01 0.000000e+00
    outer loop
      vertex -2.250400e+01 1.079001e+00 0.000000e+00
      vertex -2.367000e+01 -2.149992e-01 1.100200e+01
      vertex -2.367000e+01 -2.149992e-01 0.000000e+00
    endloop
  endfacet
  facet normal 7.428943e-01 -6.694088e-01 0.000000e+00
    outer loop
      vertex -2.367000e+01 -2.149992e-01 1.100200e+01
      vertex -2.250400e+01 1.079001e+00 0.000000e+00
      vertex -2.250400e+01 1.079001e+00 1.100200e+01
    endloop
  endfacet
  facet normal -7.405496e-01 6.720017e-01 0.000000e+00
    outer loop
      vertex -2.562000e+01 -1.330998e+00 1.100200e+01
      vertex -2.681600e+01 -2.648999e+00 0.000000e+00
      vertex -2.681600e+01 -2.648999e+00 1.100200e+01
    endloop
  endfacet
  facet normal -7.405496e-01 6.720017e-01 0.000000e+00
    outer loop
      vertex -2.681600e+01 -2.648999e+00 0.000000e+00
      vertex -2.562000e+01 -1.330998e+00 1.100200e+01
      vertex -2.562000e+01 -1.330998e+00 0.000000e+00
    endloop
  endfacet
  facet normal 1.000000e+00 2.671891e-24 0.000000e+00
    outer loop
      vertex 3.180200e+01 -6.652999e+00 0.000000e+00
      vertex 3.180200e+01 -8.255000e+00 1.100200e+01
      vertex 3.180200e+01 -8.255000e+00 0.000000e+00
    endloop
  endfacet
  facet normal 1.000000e+00 2.671891e-24 0.000000e+00
    outer loop
      vertex 3.180200e+01 -8.255000e+00 1.100200e+01
      vertex 3.180200e+01 -6.652999e+00 0.000000e+00
      vertex 3.180200e+01 -6.652999e+00 1.100200e+01
    endloop
  endfacet
  facet normal -7.767701e-01 6.297843e-01 0.000000e+00
    outer loop
      vertex -1.562200e+01 -1.208999e+00 1.100200e+01
      vertex -1.679600e+01 -2.656999e+00 0.000000e+00
      vertex -1.679600e+01 -2.656999e+00 1.100200e+01
    endloop
  endfacet
  facet normal -7.767701e-01 6.297843e-01 0.000000e+00
    outer loop
      vertex -1.679600e+01 -2.656999e+00 0.000000e+00
      vertex -1.562200e+01 -1.208999e+00 1.100200e+01
      vertex -1.562200e+01 -1.208999e+00 0.000000e+00
    endloop
  endfacet
  facet normal 0.000000e+00 0.000000e+00 1.000000e+00
    outer loop
      vertex -2.517200e+01 -4.236999e+00 1.100200e+01
      vertex -2.562000e+01 -1.330998e+00 1.100200e+01
      vertex -2.681600e+01 -2.648999e+00 1.100200e+01
    endloop
  endfacet
  facet normal 0.000000e+00 0.000000e+00 1.000000e+00
    outer loop
      vertex -2.562000e+01 -1.330998e+00 1.100200e+01
      vertex -2.517200e+01 -4.236999e+00 1.100200e+01
      vertex -2.429200e+01 -2.656999e+00 1.100200e+01
    endloop
  endfacet
  facet normal 0.000000e+00 0.000000e+00 1.000000e+00
    outer loop
      vertex -2.429200e+01 -2.656999e+00 1.100200e+01
      vertex -2.517200e+01 -4.236999e+00 1.100200e+01
      vertex -2.202001e+00 -4.236999e+00 1.100200e+01
    endloop
  endfacet
  facet normal 0.000000e+00 0.000000e+00 1.000000e+00
    outer loop
      vertex -2.429200e+01 -2.656999e+00 1.100200e+01
      vertex -2.202001e+00 -4.236999e+00 1.100200e+01
      vertex -2.182600e+01 -2.656999e+00 1.100200e+01
    endloop
  endfacet
  facet normal 0.000000e+00 0.000000e+00 1.000000e+00
    outer loop
      vertex -2.429200e+01 -2.656999e+00 1.100200e+01
      vertex -2.182600e+01 -2.656999e+00 1.100200e+01
      vertex -2.304400e+01 -1.297000e+00 1.100200e+01
    endloop
  endfacet
  facet normal 0.000000e+00 0.000000e+00 1.000000e+00
    outer loop
      vertex -2.182600e+01 -2.656999e+00 1.100200e+01
      vertex -2.202001e+00 -4.236999e+00 1.100200e+01
      vertex -1.931200e+01 -2.656999e+00 1.100200e+01
    endloop
  endfacet
  facet normal 0.000000e+00 0.000000e+00 1.000000e+00
    outer loop
      vertex -2.182600e+01 -2.656999e+00 1.100200e+01
      vertex -1.931200e+01 -2.656999e+00 1.100200e+01
      vertex -2.062600e+01 -1.241000e+00 1.100200e+01
    endloop
  endfacet
  facet normal 0.000000e+00 0.000000e+00 1.000000e+00
    outer loop
      vertex -1.931200e+01 -2.656999e+00 1.100200e+01
      vertex -2.202001e+00 -4.236999e+00 1.100200e+01
      vertex -1.679600e+01 -2.656999e+00 1.100200e+01
    endloop
  endfacet
  facet normal 0.000000e+00 0.000000e+00 1.000000e+00
    outer loop
      vertex -1.931200e+01 -2.656999e+00 1.100200e+01
      vertex -1.679600e+01 -2.656999e+00 1.100200e+01
      vertex -1.807600e+01 -1.241000e+00 1.100200e+01
    endloop
  endfacet
  facet normal 0.000000e+00 0.000000e+00 1.000000e+00
    outer loop
      vertex -1.679600e+01 -2.656999e+00 1.100200e+01
      vertex -2.202001e+00 -4.236999e+00 1.100200e+01
      vertex -1.430800e+01 -2.656999e+00 1.100200e+01
    endloop
  endfacet
  facet normal 0.000000e+00 0.000000e+00 1.000000e+00
    outer loop
      vertex -1.679600e+01 -2.656999e+00 1.100200e+01
      vertex -1.430800e+01 -2.656999e+00 1.100200e+01
      vertex -1.562200e+01 -1.208999e+00 1.100200e+01
    endloop
  endfacet
  facet normal 0.000000e+00 0.000000e+00 1.000000e+00
    outer loop
      vertex -1.430800e+01 -2.656999e+00 1.100200e+01
      vertex -2.202001e+00 -4.236999e+00 1.100200e+01
      vertex -1.180600e+01 -2.646998e+00 1.100200e+01
    endloop
  endfacet
  facet normal 0.000000e+00 0.000000e+00 1.000000e+00
    outer loop
      vertex -1.430800e+01 -2.656999e+00 1.100200e+01
      vertex -1.180600e+01 -2.646998e+00 1.100200e+01
      vertex -1.312000e+01 -1.208999e+00 1.100200e+01
    endloop
  endfacet
  facet normal 0.000000e+00 0.000000e+00 1.000000e+00
    outer loop
      vertex -1.180600e+01 -2.646998e+00 1.100200e+01
      vertex -2.202001e+00 -4.236999e+00 1.100200e+01
      vertex -1.028200e+01 -1.106999e+00 1.100200e+01
    endloop
  endfacet
  facet normal 0.000000e+00 0.000000e+00 1.000000e+00
    outer loop
      vertex -1.028200e+01 -1.106999e+00 1.100200e+01
      vertex -2.202001e+00 -4.236999e+00 1.100200e+01
      vertex -9.110001e+00 2.469001e+00 1.100200e+01
    endloop
  endfacet
  facet normal 0.000000e+00 0.000000e+00 1.000000e+00
    outer loop
      vertex -1.028200e+01 -1.106999e+00 1.100200e+01
      vertex -9.110001e+00 2.469001e+00 1.100200e+01
      vertex -9.270000e+00 2.707002e+00 1.100200e+01
    endloop
  endfacet
  facet normal 0.000000e+00 0.000000e+00 1.000000e+00
    outer loop
      vertex -1.028200e+01 -1.106999e+00 1.100200e+01
      vertex -9.270000e+00 2.707002e+00 1.100200e+01
      vertex -9.362000e+00 2.977000e+00 1.100200e+01
    endloop
  endfacet
  facet normal 0.000000e+00 0.000000e+00 1.000000e+00
    outer loop
      vertex -1.028200e+01 -1.106999e+00 1.100200e+01
      vertex -9.362000e+00 2.977000e+00 1.100200e+01
      vertex -9.384001e+00 3.263001e+00 1.100200e+01
    endloop
  endfacet
  facet normal 0.000000e+00 0.000000e+00 1.000000e+00
    outer loop
      vertex -9.110001e+00 2.469001e+00 1.100200e+01
      vertex -2.202001e+00 -4.236999e+00 1.100200e+01
      vertex -8.894001e+00 2.281001e+00 1.100200e+01
    endloop
  endfacet
  facet normal 0.000000e+00 0.000000e+00 1.000000e+00
    outer loop
      vertex -8.894001e+00 2.281001e+00 1.100200e+01
      vertex -2.202001e+00 -4.236999e+00 1.100200e+01
      vertex -8.636001e+00 2.157001e+00 1.100200e+01
    endloop
  endfacet
  facet normal 0.000000e+00 0.000000e+00 1.000000e+00
    outer loop
      vertex -8.636001e+00 2.157001e+00 1.100200e+01
      vertex -2.202001e+00 -4.236999e+00 1.100200e+01
      vertex -8.354001e+00 2.103002e+00 1.100200e+01
    endloop
  endfacet
  facet normal 0.000000e+00 0.000000e+00 1.000000e+00
    outer loop
      vertex -8.354001e+00 2.103002e+00 1.100200e+01
      vertex -2.202001e+00 -4.236999e+00 1.100200e+01
      vertex -8.070001e+00 2.123000e+00 1.100200e+01
    endloop
  endfacet
  facet normal 0.000000e+00 0.000000e+00 1.000000e+00
    outer loop
      vertex -8.070001e+00 2.123000e+00 1.100200e+01
      vertex -2.202001e+00 -4.236999e+00 1.100200e+01
      vertex -7.798001e+00 2.215001e+00 1.100200e+01
    endloop
  endfacet
  facet normal 0.000000e+00 0.000000e+00 1.000000e+00
    outer loop
      vertex -7.798001e+00 2.215001e+00 1.100200e+01
      vertex -2.202001e+00 -4.236999e+00 1.100200e+01
      vertex -7.562001e+00 2.377000e+00 1.100200e+01
    endloop
  endfacet
  facet normal 0.000000e+00 0.000000e+00 1.000000e+00
    outer loop
      vertex -7.562001e+00 2.377000e+00 1.100200e+01
      vertex -2.202001e+00 -4.236999e+00 1.100200e+01
      vertex -7.374001e+00 2.593001e+00 1.100200e+01
    endloop
  endfacet
  facet normal 0.000000e+00 0.000000e+00 1.000000e+00
    outer loop
      vertex -7.374001e+00 2.593001e+00 1.100200e+01
      vertex -2.202001e+00 -4.236999e+00 1.100200e+01
      vertex -7.250000e+00 2.849000e+00 1.100200e+01
    endloop
  endfacet
  facet normal 0.000000e+00 0.000000e+00 1.000000e+00
    outer loop
      vertex -7.250000e+00 2.849000e+00 1.100200e+01
      vertex -2.202001e+00 -4.236999e+00 1.100200e+01
      vertex -7.194001e+00 3.131001e+00 1.100200e+01
    endloop
  endfacet
  facet normal 0.000000e+00 0.000000e+00 1.000000e+00
    outer loop
      vertex -8.508001e+00 4.269002e+00 1.100200e+01
      vertex 2.138000e+00 5.507001e+00 1.100200e+01
      vertex -1.483200e+01 5.507001e+00 1.100200e+01
    endloop
  endfacet
  facet normal 0.000000e+00 0.000000e+00 1.000000e+00
    outer loop
      vertex -8.508001e+00 4.269002e+00 1.100200e+01
      vertex -3.180200e+01 5.507001e+00 1.100200e+01
      vertex -2.498200e+01 1.079001e+00 1.100200e+01
    endloop
  endfacet
  facet normal 0.000000e+00 0.000000e+00 1.000000e+00
    outer loop
      vertex -2.498200e+01 1.079001e+00 1.100200e+01
      vertex -3.180200e+01 5.507001e+00 1.100200e+01
      vertex -2.624400e+01 -2.410002e-01 1.100200e+01
    endloop
  endfacet
  facet normal 0.000000e+00 0.000000e+00 1.000000e+00
    outer loop
      vertex -8.508001e+00 4.269002e+00 1.100200e+01
      vertex -2.498200e+01 1.079001e+00 1.100200e+01
      vertex -2.250400e+01 1.079001e+00 1.100200e+01
    endloop
  endfacet
  facet normal 0.000000e+00 0.000000e+00 1.000000e+00
    outer loop
      vertex -2.250400e+01 1.079001e+00 1.100200e+01
      vertex -2.498200e+01 1.079001e+00 1.100200e+01
      vertex -2.367000e+01 -2.149992e-01 1.100200e+01
    endloop
  endfacet
  facet normal 0.000000e+00 0.000000e+00 1.000000e+00
    outer loop
      vertex -8.508001e+00 4.269002e+00 1.100200e+01
      vertex -2.250400e+01 1.079001e+00 1.100200e+01
      vertex -2.001400e+01 1.079001e+00 1.100200e+01
    endloop
  endfacet
  facet normal 0.000000e+00 0.000000e+00 1.000000e+00
    outer loop
      vertex -2.001400e+01 1.079001e+00 1.100200e+01
      vertex -2.250400e+01 1.079001e+00 1.100200e+01
      vertex -2.125200e+01 -2.269983e-01 1.100200e+01
    endloop
  endfacet
  facet normal 0.000000e+00 0.000000e+00 1.000000e+00
    outer loop
      vertex -8.508001e+00 4.269002e+00 1.100200e+01
      vertex -2.001400e+01 1.079001e+00 1.100200e+01
      vertex -8.778001e+00 4.176999e+00 1.100200e+01
    endloop
  endfacet
  facet normal 0.000000e+00 0.000000e+00 1.000000e+00
    outer loop
      vertex -8.778001e+00 4.176999e+00 1.100200e+01
      vertex -2.001400e+01 1.079001e+00 1.100200e+01
      vertex -1.751200e+01 1.079001e+00 1.100200e+01
    endloop
  endfacet
  facet normal 0.000000e+00 0.000000e+00 1.000000e+00
    outer loop
      vertex -1.751200e+01 1.079001e+00 1.100200e+01
      vertex -2.001400e+01 1.079001e+00 1.100200e+01
      vertex -1.870200e+01 -2.229986e-01 1.100200e+01
    endloop
  endfacet
  facet normal 0.000000e+00 0.000000e+00 1.000000e+00
    outer loop
      vertex -8.778001e+00 4.176999e+00 1.100200e+01
      vertex -1.751200e+01 1.079001e+00 1.100200e+01
      vertex -1.502200e+01 1.079001e+00 1.100200e+01
    endloop
  endfacet
  facet normal 0.000000e+00 0.000000e+00 1.000000e+00
    outer loop
      vertex -1.502200e+01 1.079001e+00 1.100200e+01
      vertex -1.751200e+01 1.079001e+00 1.100200e+01
      vertex -1.624800e+01 -2.229986e-01 1.100200e+01
    endloop
  endfacet
  facet normal 0.000000e+00 0.000000e+00 1.000000e+00
    outer loop
      vertex -8.778001e+00 4.176999e+00 1.100200e+01
      vertex -1.502200e+01 1.079001e+00 1.100200e+01
      vertex -9.016001e+00 4.016999e+00 1.100200e+01
    endloop
  endfacet
  facet normal 0.000000e+00 0.000000e+00 1.000000e+00
    outer loop
      vertex -9.016001e+00 4.016999e+00 1.100200e+01
      vertex -1.502200e+01 1.079001e+00 1.100200e+01
      vertex -1.252000e+01 1.079001e+00 1.100200e+01
    endloop
  endfacet
  facet normal 0.000000e+00 0.000000e+00 1.000000e+00
    outer loop
      vertex -1.252000e+01 1.079001e+00 1.100200e+01
      vertex -1.502200e+01 1.079001e+00 1.100200e+01
      vertex -1.374600e+01 -1.989985e-01 1.100200e+01
    endloop
  endfacet
  facet normal 0.000000e+00 0.000000e+00 1.000000e+00
    outer loop
      vertex -9.016001e+00 4.016999e+00 1.100200e+01
      vertex -1.252000e+01 1.079001e+00 1.100200e+01
      vertex -9.202001e+00 3.801000e+00 1.100200e+01
    endloop
  endfacet
  facet normal 0.000000e+00 0.000000e+00 1.000000e+00
    outer loop
      vertex -9.202001e+00 3.801000e+00 1.100200e+01
      vertex -1.252000e+01 1.079001e+00 1.100200e+01
      vertex -9.328001e+00 3.543000e+00 1.100200e+01
    endloop
  endfacet
  facet normal 0.000000e+00 0.000000e+00 1.000000e+00
    outer loop
      vertex -9.328001e+00 3.543000e+00 1.100200e+01
      vertex -1.252000e+01 1.079001e+00 1.100200e+01
      vertex -1.028200e+01 -1.106999e+00 1.100200e+01
    endloop
  endfacet
  facet normal 0.000000e+00 0.000000e+00 1.000000e+00
    outer loop
      vertex -9.328001e+00 3.543000e+00 1.100200e+01
      vertex -1.028200e+01 -1.106999e+00 1.100200e+01
      vertex -9.384001e+00 3.263001e+00 1.100200e+01
    endloop
  endfacet
  facet normal 0.000000e+00 0.000000e+00 1.000000e+00
    outer loop
      vertex 2.138000e+00 5.507001e+00 1.100200e+01
      vertex -8.508001e+00 4.269002e+00 1.100200e+01
      vertex -8.224001e+00 4.291001e+00 1.100200e+01
    endloop
  endfacet
  facet normal 0.000000e+00 0.000000e+00 1.000000e+00
    outer loop
      vertex 2.138000e+00 5.507001e+00 1.100200e+01
      vertex -8.224001e+00 4.291001e+00 1.100200e+01
      vertex -7.942001e+00 4.237000e+00 1.100200e+01
    endloop
  endfacet
  facet normal 0.000000e+00 0.000000e+00 1.000000e+00
    outer loop
      vertex 2.138000e+00 5.507001e+00 1.100200e+01
      vertex -7.942001e+00 4.237000e+00 1.100200e+01
      vertex -7.684000e+00 4.111001e+00 1.100200e+01
    endloop
  endfacet
  facet normal 0.000000e+00 0.000000e+00 1.000000e+00
    outer loop
      vertex 2.138000e+00 5.507001e+00 1.100200e+01
      vertex -7.684000e+00 4.111001e+00 1.100200e+01
      vertex -7.468001e+00 3.923001e+00 1.100200e+01
    endloop
  endfacet
  facet normal 0.000000e+00 0.000000e+00 1.000000e+00
    outer loop
      vertex 2.138000e+00 5.507001e+00 1.100200e+01
      vertex -7.468001e+00 3.923001e+00 1.100200e+01
      vertex -7.308001e+00 3.687001e+00 1.100200e+01
    endloop
  endfacet
  facet normal 0.000000e+00 0.000000e+00 1.000000e+00
    outer loop
      vertex 2.138000e+00 5.507001e+00 1.100200e+01
      vertex -7.308001e+00 3.687001e+00 1.100200e+01
      vertex -7.216001e+00 3.415000e+00 1.100200e+01
    endloop
  endfacet
  facet normal 0.000000e+00 0.000000e+00 1.000000e+00
    outer loop
      vertex 2.138000e+00 5.507001e+00 1.100200e+01
      vertex -7.216001e+00 3.415000e+00 1.100200e+01
      vertex -7.194001e+00 3.131001e+00 1.100200e+01
    endloop
  endfacet
  facet normal 0.000000e+00 0.000000e+00 1.000000e+00
    outer loop
      vertex -7.194001e+00 3.131001e+00 1.100200e+01
      vertex -2.202001e+00 -4.236999e+00 1.100200e+01
      vertex 2.138000e+00 5.507001e+00 1.100200e+01
    endloop
  endfacet
  facet normal 0.000000e+00 0.000000e+00 1.000000e+00
    outer loop
      vertex 8.454000e+00 1.141900e+01 1.100200e+01
      vertex 5.732000e+00 -4.207000e+00 1.100200e+01
      vertex 1.556800e+01 -3.547000e+00 1.100200e+01
    endloop
  endfacet
  facet normal 0.000000e+00 0.000000e+00 1.000000e+00
    outer loop
      vertex 8.454000e+00 1.141900e+01 1.100200e+01
      vertex 1.556800e+01 -3.547000e+00 1.100200e+01
      vertex 1.200200e+01 4.509000e+00 1.100200e+01
    endloop
  endfacet
  facet normal 0.000000e+00 0.000000e+00 1.000000e+00
    outer loop
      vertex 1.200200e+01 4.509000e+00 1.100200e+01
      vertex 1.556800e+01 -3.547000e+00 1.100200e+01
      vertex 1.870400e+01 3.137000e+00 1.100200e+01
    endloop
  endfacet
  facet normal 0.000000e+00 0.000000e+00 1.000000e+00
    outer loop
      vertex 1.870400e+01 3.137000e+00 1.100200e+01
      vertex 1.556800e+01 -3.547000e+00 1.100200e+01
      vertex 2.540800e+01 -2.884999e+00 1.100200e+01
    endloop
  endfacet
  facet normal 0.000000e+00 0.000000e+00 1.000000e+00
    outer loop
      vertex 1.870400e+01 3.137000e+00 1.100200e+01
      vertex 2.540800e+01 -2.884999e+00 1.100200e+01
      vertex 2.540800e+01 1.763001e+00 1.100200e+01
    endloop
  endfacet
  facet normal 0.000000e+00 0.000000e+00 1.000000e+00
    outer loop
      vertex 2.540800e+01 1.763001e+00 1.100200e+01
      vertex 2.540800e+01 -2.884999e+00 1.100200e+01
      vertex 3.180200e+01 -8.255000e+00 1.100200e+01
    endloop
  endfacet
  facet normal 0.000000e+00 0.000000e+00 1.000000e+00
    outer loop
      vertex 2.540800e+01 1.763001e+00 1.100200e+01
      vertex 3.180200e+01 -8.255000e+00 1.100200e+01
      vertex 2.860400e+01 -5.609999e-01 1.100200e+01
    endloop
  endfacet
  facet normal 0.000000e+00 0.000000e+00 1.000000e+00
    outer loop
      vertex 2.860400e+01 -5.609999e-01 1.100200e+01
      vertex 3.180200e+01 -8.255000e+00 1.100200e+01
      vertex 3.180200e+01 -6.652999e+00 1.100200e+01
    endloop
  endfacet
  facet normal 0.000000e+00 0.000000e+00 1.000000e+00
    outer loop
      vertex 2.860400e+01 -5.609999e-01 1.100200e+01
      vertex 3.180200e+01 7.207002e+00 1.100200e+01
      vertex 2.540800e+01 1.763001e+00 1.100200e+01
    endloop
  endfacet
  facet normal 0.000000e+00 0.000000e+00 1.000000e+00
    outer loop
      vertex 3.180200e+01 7.207002e+00 1.100200e+01
      vertex 2.860400e+01 -5.609999e-01 1.100200e+01
      vertex 3.180200e+01 5.850999e+00 1.100200e+01
    endloop
  endfacet
  facet normal 8.854159e-01 4.647997e-01 0.000000e+00
    outer loop
      vertex 2.860400e+01 -5.609999e-01 0.000000e+00
      vertex 3.180200e+01 -6.652999e+00 1.100200e+01
      vertex 3.180200e+01 -6.652999e+00 0.000000e+00
    endloop
  endfacet
  facet normal 8.854159e-01 4.647997e-01 0.000000e+00
    outer loop
      vertex 3.180200e+01 -6.652999e+00 1.100200e+01
      vertex 2.860400e+01 -5.609999e-01 0.000000e+00
      vertex 2.860400e+01 -5.609999e-01 1.100200e+01
    endloop
  endfacet
  facet normal -6.565235e-01 -7.543056e-01 0.000000e+00
    outer loop
      vertex -7.468001e+00 3.923001e+00 1.100200e+01
      vertex -7.684000e+00 4.111001e+00 0.000000e+00
      vertex -7.468001e+00 3.923001e+00 0.000000e+00
    endloop
  endfacet
  facet normal -6.565235e-01 -7.543056e-01 0.000000e+00
    outer loop
      vertex -7.684000e+00 4.111001e+00 0.000000e+00
      vertex -7.468001e+00 3.923001e+00 1.100200e+01
      vertex -7.684000e+00 4.111001e+00 1.100200e+01
    endloop
  endfacet
  facet normal -6.833719e-01 7.300705e-01 0.000000e+00
    outer loop
      vertex 2.138000e+00 5.507001e+00 1.100200e+01
      vertex 8.454000e+00 1.141900e+01 0.000000e+00
      vertex 2.138000e+00 5.507001e+00 0.000000e+00
    endloop
  endfacet
  facet normal -6.833719e-01 7.300705e-01 0.000000e+00
    outer loop
      vertex 8.454000e+00 1.141900e+01 0.000000e+00
      vertex 2.138000e+00 5.507001e+00 1.100200e+01
      vertex 8.454000e+00 1.141900e+01 1.100200e+01
    endloop
  endfacet
  facet normal 8.948733e-01 -4.463202e-01 0.000000e+00
    outer loop
      vertex 3.180200e+01 5.850999e+00 0.000000e+00
      vertex 2.860400e+01 -5.609999e-01 1.100200e+01
      vertex 2.860400e+01 -5.609999e-01 0.000000e+00
    endloop
  endfacet
  facet normal 8.948733e-01 -4.463202e-01 0.000000e+00
    outer loop
      vertex 2.860400e+01 -5.609999e-01 1.100200e+01
      vertex 3.180200e+01 5.850999e+00 0.000000e+00
      vertex 3.180200e+01 5.850999e+00 1.100200e+01
    endloop
  endfacet
  facet normal -5.436782e-01 -8.392937e-01 0.000000e+00
    outer loop
      vertex 8.880000e+00 -1.141900e+01 1.100200e+01
      vertex 3.338000e+00 -7.829000e+00 0.000000e+00
      vertex 8.880000e+00 -1.141900e+01 0.000000e+00
    endloop
  endfacet
  facet normal -5.440297e-01 -8.390659e-01 2.513843e-04
    outer loop
      vertex 8.880000e+00 -1.141900e+01 1.100200e+01
      vertex -2.202001e+00 -4.236999e+00 0.000000e+00
      vertex 3.338000e+00 -7.829000e+00 0.000000e+00
    endloop
  endfacet
  facet normal -5.440298e-01 -8.390660e-01 0.000000e+00
    outer loop
      vertex -2.202001e+00 -4.236999e+00 0.000000e+00
      vertex 3.338000e+00 -7.829000e+00 1.100200e+01
      vertex -2.202001e+00 -4.236999e+00 1.100200e+01
    endloop
  endfacet
  facet normal -5.436782e-01 -8.392937e-01 -2.513618e-04
    outer loop
      vertex -2.202001e+00 -4.236999e+00 0.000000e+00
      vertex 8.880000e+00 -1.141900e+01 1.100200e+01
      vertex 3.338000e+00 -7.829000e+00 1.100200e+01
    endloop
  endfacet
  facet normal -4.388365e-01 -8.985669e-01 0.000000e+00
    outer loop
      vertex -7.684000e+00 4.111001e+00 1.100200e+01
      vertex -7.942001e+00 4.237000e+00 0.000000e+00
      vertex -7.684000e+00 4.111001e+00 0.000000e+00
    endloop
  endfacet
  facet normal -4.388365e-01 -8.985669e-01 0.000000e+00
    outer loop
      vertex -7.942001e+00 4.237000e+00 0.000000e+00
      vertex -7.684000e+00 4.111001e+00 1.100200e+01
      vertex -7.942001e+00 4.237000e+00 1.100200e+01
    endloop
  endfacet
  facet normal -1.880716e-01 -9.821553e-01 0.000000e+00
    outer loop
      vertex -7.942001e+00 4.237000e+00 1.100200e+01
      vertex -8.224001e+00 4.291001e+00 0.000000e+00
      vertex -7.942001e+00 4.237000e+00 0.000000e+00
    endloop
  endfacet
  facet normal -1.880716e-01 -9.821553e-01 0.000000e+00
    outer loop
      vertex -8.224001e+00 4.291001e+00 0.000000e+00
      vertex -7.942001e+00 4.237000e+00 1.100200e+01
      vertex -8.224001e+00 4.291001e+00 1.100200e+01
    endloop
  endfacet
  facet normal 4.331847e-01 9.013052e-01 0.000000e+00
    outer loop
      vertex -8.894001e+00 2.281001e+00 1.100200e+01
      vertex -8.636001e+00 2.157001e+00 0.000000e+00
      vertex -8.894001e+00 2.281001e+00 0.000000e+00
    endloop
  endfacet
  facet normal 4.331847e-01 9.013052e-01 0.000000e+00
    outer loop
      vertex -8.636001e+00 2.157001e+00 0.000000e+00
      vertex -8.894001e+00 2.281001e+00 1.100200e+01
      vertex -8.636001e+00 2.157001e+00 1.100200e+01
    endloop
  endfacet
  facet normal -2.671891e-24 1.000000e+00 0.000000e+00
    outer loop
      vertex -3.180200e+01 5.507001e+00 0.000000e+00
      vertex -3.180200e+01 5.507001e+00 1.100200e+01
      vertex -1.483200e+01 5.507001e+00 5.500000e+00
    endloop
  endfacet
  facet normal -2.671891e-24 1.000000e+00 0.000000e+00
    outer loop
      vertex -1.483200e+01 5.507001e+00 5.500000e+00
      vertex -1.483200e+01 5.507001e+00 1.100200e+01
      vertex 2.138000e+00 5.507001e+00 1.100200e+01
    endloop
  endfacet
  facet normal 2.671891e-24 -1.000000e+00 0.000000e+00
    outer loop
      vertex -2.202001e+00 -4.236999e+00 1.100200e+01
      vertex -2.517200e+01 -4.236999e+00 0.000000e+00
      vertex -2.202001e+00 -4.236999e+00 0.000000e+00
    endloop
  endfacet
  facet normal 2.671891e-24 -1.000000e+00 0.000000e+00
    outer loop
      vertex -2.517200e+01 -4.236999e+00 0.000000e+00
      vertex -2.202001e+00 -4.236999e+00 1.100200e+01
      vertex -2.517200e+01 -4.236999e+00 1.100200e+01
    endloop
  endfacet
  facet normal 1.880726e-01 9.821551e-01 0.000000e+00
    outer loop
      vertex -8.636001e+00 2.157001e+00 1.100200e+01
      vertex -8.354001e+00 2.103002e+00 0.000000e+00
      vertex -8.636001e+00 2.157001e+00 0.000000e+00
    endloop
  endfacet
  facet normal 1.880726e-01 9.821551e-01 0.000000e+00
    outer loop
      vertex -8.354001e+00 2.103002e+00 0.000000e+00
      vertex -8.636001e+00 2.157001e+00 1.100200e+01
      vertex -8.354001e+00 2.103002e+00 1.100200e+01
    endloop
  endfacet
  facet normal 6.565251e-01 7.543042e-01 0.000000e+00
    outer loop
      vertex -9.110001e+00 2.469001e+00 1.100200e+01
      vertex -8.894001e+00 2.281001e+00 0.000000e+00
      vertex -9.110001e+00 2.469001e+00 0.000000e+00
    endloop
  endfacet
  facet normal 6.565251e-01 7.543042e-01 0.000000e+00
    outer loop
      vertex -8.894001e+00 2.281001e+00 0.000000e+00
      vertex -9.110001e+00 2.469001e+00 1.100200e+01
      vertex -8.894001e+00 2.281001e+00 1.100200e+01
    endloop
  endfacet
  facet normal -7.024840e-02 9.975295e-01 0.000000e+00
    outer loop
      vertex -8.354001e+00 2.103002e+00 1.100200e+01
      vertex -8.070001e+00 2.123000e+00 0.000000e+00
      vertex -8.354001e+00 2.103002e+00 0.000000e+00
    endloop
  endfacet
  facet normal -7.024840e-02 9.975295e-01 0.000000e+00
    outer loop
      vertex -8.070001e+00 2.123000e+00 0.000000e+00
      vertex -8.354001e+00 2.103002e+00 1.100200e+01
      vertex -8.070001e+00 2.123000e+00 1.100200e+01
    endloop
  endfacet
  facet normal -6.482773e-01 7.614044e-01 0.000000e+00
    outer loop
      vertex 2.540800e+01 1.763001e+00 1.100200e+01
      vertex 3.180200e+01 7.207002e+00 0.000000e+00
      vertex 2.540800e+01 1.763001e+00 0.000000e+00
    endloop
  endfacet
  facet normal -6.482773e-01 7.614044e-01 0.000000e+00
    outer loop
      vertex 3.180200e+01 7.207002e+00 0.000000e+00
      vertex 2.540800e+01 1.763001e+00 1.100200e+01
      vertex 3.180200e+01 7.207002e+00 1.100200e+01
    endloop
  endfacet
  facet normal 6.712468e-02 -9.977446e-01 0.000000e+00
    outer loop
      vertex 2.540800e+01 -2.884999e+00 1.100200e+01
      vertex 1.556800e+01 -3.547000e+00 0.000000e+00
      vertex 2.540800e+01 -2.884999e+00 0.000000e+00
    endloop
  endfacet
  facet normal 6.694991e-02 -9.977564e-01 1.570024e-04
    outer loop
      vertex 1.556800e+01 -3.547000e+00 0.000000e+00
      vertex 2.540800e+01 -2.884999e+00 1.100200e+01
      vertex 5.732000e+00 -4.207000e+00 0.000000e+00
    endloop
  endfacet
  facet normal 6.703731e-02 -9.977505e-01 0.000000e+00
    outer loop
      vertex 5.732000e+00 -4.207000e+00 0.000000e+00
      vertex 2.540800e+01 -2.884999e+00 1.100200e+01
      vertex 5.732000e+00 -4.207000e+00 1.100200e+01
    endloop
  endfacet
  facet normal 0.000000e+00 0.000000e+00 -1.000000e+00
    outer loop
      vertex 5.732000e+00 -4.207000e+00 1.100200e+01
      vertex 2.540800e+01 -2.884999e+00 1.100200e+01
      vertex 1.556800e+01 -3.547000e+00 1.100200e+01
    endloop
  endfacet
  facet normal -8.999818e-01 4.359275e-01 0.000000e+00
    outer loop
      vertex -7.250000e+00 2.849000e+00 1.100200e+01
      vertex -7.374001e+00 2.593001e+00 0.000000e+00
      vertex -7.374001e+00 2.593001e+00 1.100200e+01
    endloop
  endfacet
  facet normal -8.999818e-01 4.359275e-01 0.000000e+00
    outer loop
      vertex -7.374001e+00 2.593001e+00 0.000000e+00
      vertex -7.250000e+00 2.849000e+00 1.100200e+01
      vertex -7.250000e+00 2.849000e+00 0.000000e+00
    endloop
  endfacet
  facet normal 7.723381e-02 -9.970130e-01 0.000000e+00
    outer loop
      vertex -8.224001e+00 4.291001e+00 1.100200e+01
      vertex -8.508001e+00 4.269002e+00 0.000000e+00
      vertex -8.224001e+00 4.291001e+00 0.000000e+00
    endloop
  endfacet
  facet normal 7.723381e-02 -9.970130e-01 0.000000e+00
    outer loop
      vertex -8.508001e+00 4.269002e+00 0.000000e+00
      vertex -8.224001e+00 4.291001e+00 1.100200e+01
      vertex -8.508001e+00 4.269002e+00 1.100200e+01
    endloop
  endfacet
  facet normal -5.659353e-01 8.244496e-01 0.000000e+00
    outer loop
      vertex -7.798001e+00 2.215001e+00 1.100200e+01
      vertex -7.562001e+00 2.377000e+00 0.000000e+00
      vertex -7.798001e+00 2.215001e+00 0.000000e+00
    endloop
  endfacet
  facet normal -5.659353e-01 8.244496e-01 0.000000e+00
    outer loop
      vertex -7.562001e+00 2.377000e+00 0.000000e+00
      vertex -7.798001e+00 2.215001e+00 1.100200e+01
      vertex -7.562001e+00 2.377000e+00 1.100200e+01
    endloop
  endfacet
  facet normal 8.298986e-01 5.579144e-01 0.000000e+00
    outer loop
      vertex -9.270000e+00 2.707002e+00 0.000000e+00
      vertex -9.110001e+00 2.469001e+00 1.100200e+01
      vertex -9.110001e+00 2.469001e+00 0.000000e+00
    endloop
  endfacet
  facet normal 8.298986e-01 5.579144e-01 0.000000e+00
    outer loop
      vertex -9.110001e+00 2.469001e+00 1.100200e+01
      vertex -9.270000e+00 2.707002e+00 0.000000e+00
      vertex -9.270000e+00 2.707002e+00 1.100200e+01
    endloop
  endfacet
  facet normal 7.577692e-01 -6.525227e-01 0.000000e+00
    outer loop
      vertex -9.016001e+00 4.016999e+00 0.000000e+00
      vertex -9.202001e+00 3.801000e+00 1.100200e+01
      vertex -9.202001e+00 3.801000e+00 0.000000e+00
    endloop
  endfacet
  facet normal 7.577692e-01 -6.525227e-01 0.000000e+00
    outer loop
      vertex -9.202001e+00 3.801000e+00 1.100200e+01
      vertex -9.016001e+00 4.016999e+00 0.000000e+00
      vertex -9.016001e+00 4.016999e+00 1.100200e+01
    endloop
  endfacet
  facet normal -3.204035e-01 9.472811e-01 0.000000e+00
    outer loop
      vertex -8.070001e+00 2.123000e+00 1.100200e+01
      vertex -7.798001e+00 2.215001e+00 0.000000e+00
      vertex -8.070001e+00 2.123000e+00 0.000000e+00
    endloop
  endfacet
  facet normal -3.204035e-01 9.472811e-01 0.000000e+00
    outer loop
      vertex -7.798001e+00 2.215001e+00 0.000000e+00
      vertex -8.070001e+00 2.123000e+00 1.100200e+01
      vertex -7.798001e+00 2.215001e+00 1.100200e+01
    endloop
  endfacet
  facet normal 5.579146e-01 -8.298984e-01 0.000000e+00
    outer loop
      vertex -8.778001e+00 4.176999e+00 1.100200e+01
      vertex -9.016001e+00 4.016999e+00 0.000000e+00
      vertex -8.778001e+00 4.176999e+00 0.000000e+00
    endloop
  endfacet
  facet normal 5.579146e-01 -8.298984e-01 0.000000e+00
    outer loop
      vertex -9.016001e+00 4.016999e+00 0.000000e+00
      vertex -8.778001e+00 4.176999e+00 1.100200e+01
      vertex -9.016001e+00 4.016999e+00 1.100200e+01
    endloop
  endfacet
  facet normal 3.225307e-01 -9.465590e-01 0.000000e+00
    outer loop
      vertex -8.508001e+00 4.269002e+00 1.100200e+01
      vertex -8.778001e+00 4.176999e+00 0.000000e+00
      vertex -8.508001e+00 4.269002e+00 0.000000e+00
    endloop
  endfacet
  facet normal 3.225307e-01 -9.465590e-01 0.000000e+00
    outer loop
      vertex -8.778001e+00 4.176999e+00 0.000000e+00
      vertex -8.508001e+00 4.269002e+00 1.100200e+01
      vertex -8.778001e+00 4.176999e+00 1.100200e+01
    endloop
  endfacet
  facet normal -9.970129e-01 -7.723451e-02 0.000000e+00
    outer loop
      vertex -7.216001e+00 3.415000e+00 1.100200e+01
      vertex -7.194001e+00 3.131001e+00 0.000000e+00
      vertex -7.194001e+00 3.131001e+00 1.100200e+01
    endloop
  endfacet
  facet normal -9.970129e-01 -7.723451e-02 0.000000e+00
    outer loop
      vertex -7.194001e+00 3.131001e+00 0.000000e+00
      vertex -7.216001e+00 3.415000e+00 1.100200e+01
      vertex -7.216001e+00 3.415000e+00 0.000000e+00
    endloop
  endfacet
  facet normal -9.808468e-01 1.947805e-01 0.000000e+00
    outer loop
      vertex -7.194001e+00 3.131001e+00 1.100200e+01
      vertex -7.250000e+00 2.849000e+00 0.000000e+00
      vertex -7.250000e+00 2.849000e+00 1.100200e+01
    endloop
  endfacet
  facet normal -9.808468e-01 1.947805e-01 0.000000e+00
    outer loop
      vertex -7.250000e+00 2.849000e+00 0.000000e+00
      vertex -7.194001e+00 3.131001e+00 1.100200e+01
      vertex -7.194001e+00 3.131001e+00 0.000000e+00
    endloop
  endfacet
  facet normal 8.895868e-01 4.567661e-01 0.000000e+00
    outer loop
      vertex 8.454000e+00 1.141900e+01 0.000000e+00
      vertex 1.200200e+01 4.509000e+00 1.100200e+01
      vertex 1.200200e+01 4.509000e+00 0.000000e+00
    endloop
  endfacet
  facet normal 8.895868e-01 4.567661e-01 0.000000e+00
    outer loop
      vertex 1.200200e+01 4.509000e+00 1.100200e+01
      vertex 8.454000e+00 1.141900e+01 0.000000e+00
      vertex 8.454000e+00 1.141900e+01 1.100200e+01
    endloop
  endfacet
  facet normal 2.005557e-01 9.796823e-01 0.000000e+00
    outer loop
      vertex 1.200200e+01 4.509000e+00 1.100200e+01
      vertex 1.870400e+01 3.137000e+00 0.000000e+00
      vertex 1.200200e+01 4.509000e+00 0.000000e+00
    endloop
  endfacet
  facet normal 2.007787e-01 9.796366e-01 1.415997e-04
    outer loop
      vertex 1.870400e+01 3.137000e+00 0.000000e+00
      vertex 1.200200e+01 4.509000e+00 1.100200e+01
      vertex 2.540800e+01 1.763001e+00 0.000000e+00
    endloop
  endfacet
  facet normal 2.005557e-01 9.796823e-01 -1.416359e-04
    outer loop
      vertex 1.200200e+01 4.509000e+00 1.100200e+01
      vertex 1.870400e+01 3.137000e+00 1.100200e+01
      vertex 2.540800e+01 1.763001e+00 0.000000e+00
    endloop
  endfacet
  facet normal 2.007787e-01 9.796366e-01 0.000000e+00
    outer loop
      vertex 2.540800e+01 1.763001e+00 1.100200e+01
      vertex 2.540800e+01 1.763001e+00 0.000000e+00
      vertex 1.870400e+01 3.137000e+00 1.100200e+01
    endloop
  endfacet
  facet normal 8.985671e-01 -4.388362e-01 0.000000e+00
    outer loop
      vertex -9.202001e+00 3.801000e+00 0.000000e+00
      vertex -9.328001e+00 3.543000e+00 1.100200e+01
      vertex -9.328001e+00 3.543000e+00 0.000000e+00
    endloop
  endfacet
  facet normal 8.985671e-01 -4.388362e-01 0.000000e+00
    outer loop
      vertex -9.328001e+00 3.543000e+00 1.100200e+01
      vertex -9.202001e+00 3.801000e+00 0.000000e+00
      vertex -9.202001e+00 3.801000e+00 1.100200e+01
    endloop
  endfacet
  facet normal -7.188883e-01 -6.951256e-01 0.000000e+00
    outer loop
      vertex -3.180200e+01 5.507001e+00 1.100200e+01
      vertex -2.624400e+01 -2.410002e-01 0.000000e+00
      vertex -2.624400e+01 -2.410002e-01 1.100200e+01
    endloop
  endfacet
  facet normal -7.188883e-01 -6.951256e-01 0.000000e+00
    outer loop
      vertex -2.624400e+01 -2.410002e-01 0.000000e+00
      vertex -3.180200e+01 5.507001e+00 1.100200e+01
      vertex -3.180200e+01 5.507001e+00 0.000000e+00
    endloop
  endfacet
  facet normal 9.805808e-01 -1.961153e-01 0.000000e+00
    outer loop
      vertex -9.328001e+00 3.543000e+00 0.000000e+00
      vertex -9.384001e+00 3.263001e+00 1.100200e+01
      vertex -9.384001e+00 3.263001e+00 0.000000e+00
    endloop
  endfacet
  facet normal 9.805808e-01 -1.961153e-01 0.000000e+00
    outer loop
      vertex -9.384001e+00 3.263001e+00 1.100200e+01
      vertex -9.328001e+00 3.543000e+00 0.000000e+00
      vertex -9.328001e+00 3.543000e+00 1.100200e+01
    endloop
  endfacet
  facet normal -7.543053e-01 6.565238e-01 0.000000e+00
    outer loop
      vertex -7.374001e+00 2.593001e+00 1.100200e+01
      vertex -7.562001e+00 2.377000e+00 0.000000e+00
      vertex -7.562001e+00 2.377000e+00 1.100200e+01
    endloop
  endfacet
  facet normal -7.543053e-01 6.565238e-01 0.000000e+00
    outer loop
      vertex -7.562001e+00 2.377000e+00 0.000000e+00
      vertex -7.374001e+00 2.593001e+00 1.100200e+01
      vertex -7.374001e+00 2.593001e+00 0.000000e+00
    endloop
  endfacet
  facet normal 9.465588e-01 3.225312e-01 0.000000e+00
    outer loop
      vertex -9.362000e+00 2.977000e+00 0.000000e+00
      vertex -9.270000e+00 2.707002e+00 1.100200e+01
      vertex -9.270000e+00 2.707002e+00 0.000000e+00
    endloop
  endfacet
  facet normal 9.465588e-01 3.225312e-01 0.000000e+00
    outer loop
      vertex -9.270000e+00 2.707002e+00 1.100200e+01
      vertex -9.362000e+00 2.977000e+00 0.000000e+00
      vertex -9.362000e+00 2.977000e+00 1.100200e+01
    endloop
  endfacet
  facet normal -7.533672e-01 6.576001e-01 0.000000e+00
    outer loop
      vertex -1.807600e+01 -1.241000e+00 1.100200e+01
      vertex -1.931200e+01 -2.656999e+00 2.750000e+00
      vertex -1.931200e+01 -2.656999e+00 1.100200e+01
    endloop
  endfacet
  facet normal -7.439153e-01 6.682661e-01 -3.245940e-03
    outer loop
      vertex -1.931200e+01 -2.656999e+00 2.750000e+00
      vertex -1.807600e+01 -1.241000e+00 1.100200e+01
      vertex -1.930000e+01 -2.656999e+00 0.000000e+00
    endloop
  endfacet
  facet normal -7.565344e-01 6.539539e-01 0.000000e+00
    outer loop
      vertex -1.930000e+01 -2.656999e+00 0.000000e+00
      vertex -1.807600e+01 -1.241000e+00 1.100200e+01
      vertex -1.807600e+01 -1.241000e+00 0.000000e+00
    endloop
  endfacet
  facet normal -2.671891e-24 1.000000e+00 0.000000e+00
    outer loop
      vertex -1.483200e+01 5.507001e+00 5.500000e+00
      vertex -1.483200e+01 5.507001e+00 0.000000e+00
      vertex -3.180200e+01 5.507001e+00 0.000000e+00
    endloop
  endfacet
  facet normal -2.671891e-24 1.000000e+00 0.000000e+00
    outer loop
      vertex 2.138000e+00 5.507001e+00 1.100200e+01
      vertex 2.138000e+00 5.507001e+00 0.000000e+00
      vertex -1.483200e+01 5.507001e+00 5.500000e+00
    endloop
  endfacet
  facet normal 0.000000e+00 0.000000e+00 -1.000000e+00
    outer loop
      vertex -8.508001e+00 4.269002e+00 0.000000e+00
      vertex -1.483200e+01 5.507001e+00 0.000000e+00
      vertex 2.138000e+00 5.507001e+00 0.000000e+00
    endloop
  endfacet
  facet normal -2.671891e-24 1.000000e+00 0.000000e+00
    outer loop
      vertex -1.483200e+01 5.507001e+00 5.500000e+00
      vertex 2.138000e+00 5.507001e+00 0.000000e+00
      vertex -1.483200e+01 5.507001e+00 0.000000e+00
    endloop
  endfacet
  facet normal 0.000000e+00 0.000000e+00 1.000000e+00
    outer loop
      vertex -8.508001e+00 4.269002e+00 1.100200e+01
      vertex -1.483200e+01 5.507001e+00 1.100200e+01
      vertex -3.180200e+01 5.507001e+00 1.100200e+01
    endloop
  endfacet
  facet normal -2.671891e-24 1.000000e+00 0.000000e+00
    outer loop
      vertex -1.483200e+01 5.507001e+00 5.500000e+00
      vertex -3.180200e+01 5.507001e+00 1.100200e+01
      vertex -1.483200e+01 5.507001e+00 1.100200e+01
    endloop
  endfacet
  facet normal 0.000000e+00 0.000000e+00 1.000000e+00
    outer loop
      vertex 8.880000e+00 -1.141900e+01 1.100200e+01
      vertex 5.732000e+00 -4.207000e+00 1.100200e+01
      vertex 3.338000e+00 -7.829000e+00 1.100200e+01
    endloop
  endfacet
  facet normal 0.000000e+00 0.000000e+00 1.000000e+00
    outer loop
      vertex 2.138000e+00 5.507001e+00 1.100200e+01
      vertex 3.338000e+00 -7.829000e+00 1.100200e+01
      vertex 5.732000e+00 -4.207000e+00 1.100200e+01
    endloop
  endfacet
  facet normal 0.000000e+00 0.000000e+00 1.000000e+00
    outer loop
      vertex 2.138000e+00 5.507001e+00 1.100200e+01
      vertex 5.732000e+00 -4.207000e+00 1.100200e+01
      vertex 8.454000e+00 1.141900e+01 1.100200e+01
    endloop
  endfacet
  facet normal 0.000000e+00 0.000000e+00 1.000000e+00
    outer loop
      vertex 3.338000e+00 -7.829000e+00 1.100200e+01
      vertex 2.138000e+00 5.507001e+00 1.100200e+01
      vertex -2.202001e+00 -4.236999e+00 1.100200e+01
    endloop
  endfacet
endsolid Default
