solid Default
  facet normal 0.000000e+00 0.000000e+00 -1.000000e+00
    outer loop
      vertex 5.968645e+00 9.714607e+00 1.914881e+00
      vertex 5.968645e+00 -1.028538e+01 1.914881e+00
      vertex -1.403135e+01 -1.028538e+01 1.914881e+00
    endloop
  endfacet
  facet normal 0.000000e+00 0.000000e+00 -1.000000e+00
    outer loop
      vertex 5.968645e+00 9.714607e+00 1.914881e+00
      vertex -1.403135e+01 -1.028538e+01 1.914881e+00
      vertex -1.403134e+01 9.714612e+00 1.914881e+00
    endloop
  endfacet
  facet normal 0.000000e+00 0.000000e+00 1.000000e+00
    outer loop
      vertex 5.968649e+00 9.714603e+00 1.191488e+01
      vertex -1.403134e+01 9.714608e+00 1.191488e+01
      vertex -1.403135e+01 -1.028538e+01 1.191488e+01
    endloop
  endfacet
  facet normal 0.000000e+00 0.000000e+00 1.000000e+00
    outer loop
      vertex 5.968649e+00 9.714603e+00 1.191488e+01
      vertex -1.403135e+01 -1.028538e+01 1.191488e+01
      vertex 5.968638e+00 -1.028539e+01 1.191488e+01
    endloop
  endfacet
  facet normal 1.000000e+00 -5.722048e-07 -4.768374e-07
    outer loop
      vertex 5.968645e+00 9.714607e+00 1.914881e+00
      vertex 5.968649e+00 9.714603e+00 1.191488e+01
      vertex 5.968638e+00 -1.028539e+01 1.191488e+01
    endloop
  endfacet
  facet normal 1.000000e+00 0.000000e+00 6.675720e-07
    outer loop
      vertex 5.968645e+00 9.714607e+00 1.914881e+00
      vertex 5.968638e+00 -1.028539e+01 1.191488e+01
      vertex 5.968645e+00 -1.028538e+01 1.914881e+00
    endloop
  endfacet
  facet normal -4.768374e-07 -1.000000e+00 -5.722049e-07
    outer loop
      vertex 5.968645e+00 -1.028538e+01 1.914881e+00
      vertex 5.968638e+00 -1.028539e+01 1.191488e+01
      vertex -1.403135e+01 -1.028538e+01 1.191488e+01
    endloop
  endfacet
  facet normal -9.536748e-08 -1.000000e+00 1.907348e-07
    outer loop
      vertex 5.968645e+00 -1.028538e+01 1.914881e+00
      vertex -1.403135e+01 -1.028538e+01 1.191488e+01
      vertex -1.403135e+01 -1.028538e+01 1.914881e+00
    endloop
  endfacet
  facet normal -1.000000e+00 2.384187e-07 -2.861023e-07
    outer loop
      vertex -1.403135e+01 -1.028538e+01 1.914881e+00
      vertex -1.403135e+01 -1.028538e+01 1.191488e+01
      vertex -1.403134e+01 9.714608e+00 1.191488e+01
    endloop
  endfacet
  facet normal -1.000000e+00 2.384187e-07 -2.861022e-07
    outer loop
      vertex -1.403135e+01 -1.028538e+01 1.914881e+00
      vertex -1.403134e+01 9.714608e+00 1.191488e+01
      vertex -1.403134e+01 9.714612e+00 1.914881e+00
    endloop
  endfacet
  facet normal 2.384187e-07 1.000000e+00 4.768370e-07
    outer loop
      vertex 5.968649e+00 9.714603e+00 1.191488e+01
      vertex 5.968645e+00 9.714607e+00 1.914881e+00
      vertex -1.403134e+01 9.714612e+00 1.914881e+00
    endloop
  endfacet
  facet normal 2.861024e-07 1.000000e+00 3.814698e-07
    outer loop
      vertex 5.968649e+00 9.714603e+00 1.191488e+01
      vertex -1.403134e+01 9.714612e+00 1.914881e+00
      vertex -1.403134e+01 9.714608e+00 1.191488e+01
    endloop
  endfacet
endsolid Default
